<?xml version="1.0" encoding="utf-8" standalone="no"?>
<!DOCTYPE svg PUBLIC "-//W3C//DTD SVG 1.1//EN"
  "http://www.w3.org/Graphics/SVG/1.1/DTD/svg11.dtd">
<svg xmlns:xlink="http://www.w3.org/1999/xlink" width="576pt" height="360pt" viewBox="0 0 576 360" xmlns="http://www.w3.org/2000/svg" version="1.1">
 <metadata>
  <rdf:RDF xmlns:dc="http://purl.org/dc/elements/1.1/" xmlns:cc="http://creativecommons.org/ns#" xmlns:rdf="http://www.w3.org/1999/02/22-rdf-syntax-ns#">
   <cc:Work>
    <dc:type rdf:resource="http://purl.org/dc/dcmitype/StillImage"/>
    <dc:date>2025-08-06T14:55:02.396840</dc:date>
    <dc:format>image/svg+xml</dc:format>
    <dc:creator>
     <cc:Agent>
      <dc:title>Matplotlib v3.10.1, https://matplotlib.org/</dc:title>
     </cc:Agent>
    </dc:creator>
   </cc:Work>
  </rdf:RDF>
 </metadata>
 <defs>
  <style type="text/css">*{stroke-linejoin: round; stroke-linecap: butt}</style>
 </defs>
 <g id="figure_1">
  <g id="patch_1">
   <path d="M 0 360 
L 576 360 
L 576 0 
L 0 0 
z
" style="fill: #ffffff"/>
  </g>
  <g id="axes_1">
   <g id="patch_2">
    <path d="M 60.05 315.16 
L 565.2 315.16 
L 565.2 27.6 
L 60.05 27.6 
z
" style="fill: #ffffff"/>
   </g>
   <g id="matplotlib.axis_1">
    <g id="xtick_1">
     <g id="line2d_1">
      <path d="M 85.758997 315.16 
L 85.758997 27.6 
" clip-path="url(#p24d00131a4)" style="fill: none; stroke-dasharray: 0.8,1.32; stroke-dashoffset: 0; stroke: #b0b0b0; stroke-opacity: 0.7; stroke-width: 0.8"/>
     </g>
     <g id="line2d_2">
      <defs>
       <path id="m311caf60ef" d="M 0 0 
L 0 3.5 
" style="stroke: #000000; stroke-width: 0.8"/>
      </defs>
      <g>
       <use xlink:href="#m311caf60ef" x="85.758997" y="315.16" style="stroke: #000000; stroke-width: 0.8"/>
      </g>
     </g>
     <g id="text_1">
      <!-- 200 -->
      <g transform="translate(76.215247 329.758438) scale(0.1 -0.1)">
       <defs>
        <path id="DejaVuSans-32" d="M 1228 531 
L 3431 531 
L 3431 0 
L 469 0 
L 469 531 
Q 828 903 1448 1529 
Q 2069 2156 2228 2338 
Q 2531 2678 2651 2914 
Q 2772 3150 2772 3378 
Q 2772 3750 2511 3984 
Q 2250 4219 1831 4219 
Q 1534 4219 1204 4116 
Q 875 4013 500 3803 
L 500 4441 
Q 881 4594 1212 4672 
Q 1544 4750 1819 4750 
Q 2544 4750 2975 4387 
Q 3406 4025 3406 3419 
Q 3406 3131 3298 2873 
Q 3191 2616 2906 2266 
Q 2828 2175 2409 1742 
Q 1991 1309 1228 531 
z
" transform="scale(0.015625)"/>
        <path id="DejaVuSans-30" d="M 2034 4250 
Q 1547 4250 1301 3770 
Q 1056 3291 1056 2328 
Q 1056 1369 1301 889 
Q 1547 409 2034 409 
Q 2525 409 2770 889 
Q 3016 1369 3016 2328 
Q 3016 3291 2770 3770 
Q 2525 4250 2034 4250 
z
M 2034 4750 
Q 2819 4750 3233 4129 
Q 3647 3509 3647 2328 
Q 3647 1150 3233 529 
Q 2819 -91 2034 -91 
Q 1250 -91 836 529 
Q 422 1150 422 2328 
Q 422 3509 836 4129 
Q 1250 4750 2034 4750 
z
" transform="scale(0.015625)"/>
       </defs>
       <use xlink:href="#DejaVuSans-32"/>
       <use xlink:href="#DejaVuSans-30" transform="translate(63.623047 0)"/>
       <use xlink:href="#DejaVuSans-30" transform="translate(127.246094 0)"/>
      </g>
     </g>
    </g>
    <g id="xtick_2">
     <g id="line2d_3">
      <path d="M 196.722839 315.16 
L 196.722839 27.6 
" clip-path="url(#p24d00131a4)" style="fill: none; stroke-dasharray: 0.8,1.32; stroke-dashoffset: 0; stroke: #b0b0b0; stroke-opacity: 0.7; stroke-width: 0.8"/>
     </g>
     <g id="line2d_4">
      <g>
       <use xlink:href="#m311caf60ef" x="196.722839" y="315.16" style="stroke: #000000; stroke-width: 0.8"/>
      </g>
     </g>
     <g id="text_2">
      <!-- 300 -->
      <g transform="translate(187.179089 329.758438) scale(0.1 -0.1)">
       <defs>
        <path id="DejaVuSans-33" d="M 2597 2516 
Q 3050 2419 3304 2112 
Q 3559 1806 3559 1356 
Q 3559 666 3084 287 
Q 2609 -91 1734 -91 
Q 1441 -91 1130 -33 
Q 819 25 488 141 
L 488 750 
Q 750 597 1062 519 
Q 1375 441 1716 441 
Q 2309 441 2620 675 
Q 2931 909 2931 1356 
Q 2931 1769 2642 2001 
Q 2353 2234 1838 2234 
L 1294 2234 
L 1294 2753 
L 1863 2753 
Q 2328 2753 2575 2939 
Q 2822 3125 2822 3475 
Q 2822 3834 2567 4026 
Q 2313 4219 1838 4219 
Q 1578 4219 1281 4162 
Q 984 4106 628 3988 
L 628 4550 
Q 988 4650 1302 4700 
Q 1616 4750 1894 4750 
Q 2613 4750 3031 4423 
Q 3450 4097 3450 3541 
Q 3450 3153 3228 2886 
Q 3006 2619 2597 2516 
z
" transform="scale(0.015625)"/>
       </defs>
       <use xlink:href="#DejaVuSans-33"/>
       <use xlink:href="#DejaVuSans-30" transform="translate(63.623047 0)"/>
       <use xlink:href="#DejaVuSans-30" transform="translate(127.246094 0)"/>
      </g>
     </g>
    </g>
    <g id="xtick_3">
     <g id="line2d_5">
      <path d="M 307.686681 315.16 
L 307.686681 27.6 
" clip-path="url(#p24d00131a4)" style="fill: none; stroke-dasharray: 0.8,1.32; stroke-dashoffset: 0; stroke: #b0b0b0; stroke-opacity: 0.7; stroke-width: 0.8"/>
     </g>
     <g id="line2d_6">
      <g>
       <use xlink:href="#m311caf60ef" x="307.686681" y="315.16" style="stroke: #000000; stroke-width: 0.8"/>
      </g>
     </g>
     <g id="text_3">
      <!-- 400 -->
      <g transform="translate(298.142931 329.758438) scale(0.1 -0.1)">
       <defs>
        <path id="DejaVuSans-34" d="M 2419 4116 
L 825 1625 
L 2419 1625 
L 2419 4116 
z
M 2253 4666 
L 3047 4666 
L 3047 1625 
L 3713 1625 
L 3713 1100 
L 3047 1100 
L 3047 0 
L 2419 0 
L 2419 1100 
L 313 1100 
L 313 1709 
L 2253 4666 
z
" transform="scale(0.015625)"/>
       </defs>
       <use xlink:href="#DejaVuSans-34"/>
       <use xlink:href="#DejaVuSans-30" transform="translate(63.623047 0)"/>
       <use xlink:href="#DejaVuSans-30" transform="translate(127.246094 0)"/>
      </g>
     </g>
    </g>
    <g id="xtick_4">
     <g id="line2d_7">
      <path d="M 418.650523 315.16 
L 418.650523 27.6 
" clip-path="url(#p24d00131a4)" style="fill: none; stroke-dasharray: 0.8,1.32; stroke-dashoffset: 0; stroke: #b0b0b0; stroke-opacity: 0.7; stroke-width: 0.8"/>
     </g>
     <g id="line2d_8">
      <g>
       <use xlink:href="#m311caf60ef" x="418.650523" y="315.16" style="stroke: #000000; stroke-width: 0.8"/>
      </g>
     </g>
     <g id="text_4">
      <!-- 500 -->
      <g transform="translate(409.106773 329.758438) scale(0.1 -0.1)">
       <defs>
        <path id="DejaVuSans-35" d="M 691 4666 
L 3169 4666 
L 3169 4134 
L 1269 4134 
L 1269 2991 
Q 1406 3038 1543 3061 
Q 1681 3084 1819 3084 
Q 2600 3084 3056 2656 
Q 3513 2228 3513 1497 
Q 3513 744 3044 326 
Q 2575 -91 1722 -91 
Q 1428 -91 1123 -41 
Q 819 9 494 109 
L 494 744 
Q 775 591 1075 516 
Q 1375 441 1709 441 
Q 2250 441 2565 725 
Q 2881 1009 2881 1497 
Q 2881 1984 2565 2268 
Q 2250 2553 1709 2553 
Q 1456 2553 1204 2497 
Q 953 2441 691 2322 
L 691 4666 
z
" transform="scale(0.015625)"/>
       </defs>
       <use xlink:href="#DejaVuSans-35"/>
       <use xlink:href="#DejaVuSans-30" transform="translate(63.623047 0)"/>
       <use xlink:href="#DejaVuSans-30" transform="translate(127.246094 0)"/>
      </g>
     </g>
    </g>
    <g id="xtick_5">
     <g id="line2d_9">
      <path d="M 529.614365 315.16 
L 529.614365 27.6 
" clip-path="url(#p24d00131a4)" style="fill: none; stroke-dasharray: 0.8,1.32; stroke-dashoffset: 0; stroke: #b0b0b0; stroke-opacity: 0.7; stroke-width: 0.8"/>
     </g>
     <g id="line2d_10">
      <g>
       <use xlink:href="#m311caf60ef" x="529.614365" y="315.16" style="stroke: #000000; stroke-width: 0.8"/>
      </g>
     </g>
     <g id="text_5">
      <!-- 600 -->
      <g transform="translate(520.070615 329.758438) scale(0.1 -0.1)">
       <defs>
        <path id="DejaVuSans-36" d="M 2113 2584 
Q 1688 2584 1439 2293 
Q 1191 2003 1191 1497 
Q 1191 994 1439 701 
Q 1688 409 2113 409 
Q 2538 409 2786 701 
Q 3034 994 3034 1497 
Q 3034 2003 2786 2293 
Q 2538 2584 2113 2584 
z
M 3366 4563 
L 3366 3988 
Q 3128 4100 2886 4159 
Q 2644 4219 2406 4219 
Q 1781 4219 1451 3797 
Q 1122 3375 1075 2522 
Q 1259 2794 1537 2939 
Q 1816 3084 2150 3084 
Q 2853 3084 3261 2657 
Q 3669 2231 3669 1497 
Q 3669 778 3244 343 
Q 2819 -91 2113 -91 
Q 1303 -91 875 529 
Q 447 1150 447 2328 
Q 447 3434 972 4092 
Q 1497 4750 2381 4750 
Q 2619 4750 2861 4703 
Q 3103 4656 3366 4563 
z
" transform="scale(0.015625)"/>
       </defs>
       <use xlink:href="#DejaVuSans-36"/>
       <use xlink:href="#DejaVuSans-30" transform="translate(63.623047 0)"/>
       <use xlink:href="#DejaVuSans-30" transform="translate(127.246094 0)"/>
      </g>
     </g>
    </g>
    <g id="text_6">
     <!-- Temperature (C) -->
     <g transform="translate(263.843125 344.95625) scale(0.12 -0.12)">
      <defs>
       <path id="DejaVuSans-54" d="M -19 4666 
L 3928 4666 
L 3928 4134 
L 2272 4134 
L 2272 0 
L 1638 0 
L 1638 4134 
L -19 4134 
L -19 4666 
z
" transform="scale(0.015625)"/>
       <path id="DejaVuSans-65" d="M 3597 1894 
L 3597 1613 
L 953 1613 
Q 991 1019 1311 708 
Q 1631 397 2203 397 
Q 2534 397 2845 478 
Q 3156 559 3463 722 
L 3463 178 
Q 3153 47 2828 -22 
Q 2503 -91 2169 -91 
Q 1331 -91 842 396 
Q 353 884 353 1716 
Q 353 2575 817 3079 
Q 1281 3584 2069 3584 
Q 2775 3584 3186 3129 
Q 3597 2675 3597 1894 
z
M 3022 2063 
Q 3016 2534 2758 2815 
Q 2500 3097 2075 3097 
Q 1594 3097 1305 2825 
Q 1016 2553 972 2059 
L 3022 2063 
z
" transform="scale(0.015625)"/>
       <path id="DejaVuSans-6d" d="M 3328 2828 
Q 3544 3216 3844 3400 
Q 4144 3584 4550 3584 
Q 5097 3584 5394 3201 
Q 5691 2819 5691 2113 
L 5691 0 
L 5113 0 
L 5113 2094 
Q 5113 2597 4934 2840 
Q 4756 3084 4391 3084 
Q 3944 3084 3684 2787 
Q 3425 2491 3425 1978 
L 3425 0 
L 2847 0 
L 2847 2094 
Q 2847 2600 2669 2842 
Q 2491 3084 2119 3084 
Q 1678 3084 1418 2786 
Q 1159 2488 1159 1978 
L 1159 0 
L 581 0 
L 581 3500 
L 1159 3500 
L 1159 2956 
Q 1356 3278 1631 3431 
Q 1906 3584 2284 3584 
Q 2666 3584 2933 3390 
Q 3200 3197 3328 2828 
z
" transform="scale(0.015625)"/>
       <path id="DejaVuSans-70" d="M 1159 525 
L 1159 -1331 
L 581 -1331 
L 581 3500 
L 1159 3500 
L 1159 2969 
Q 1341 3281 1617 3432 
Q 1894 3584 2278 3584 
Q 2916 3584 3314 3078 
Q 3713 2572 3713 1747 
Q 3713 922 3314 415 
Q 2916 -91 2278 -91 
Q 1894 -91 1617 61 
Q 1341 213 1159 525 
z
M 3116 1747 
Q 3116 2381 2855 2742 
Q 2594 3103 2138 3103 
Q 1681 3103 1420 2742 
Q 1159 2381 1159 1747 
Q 1159 1113 1420 752 
Q 1681 391 2138 391 
Q 2594 391 2855 752 
Q 3116 1113 3116 1747 
z
" transform="scale(0.015625)"/>
       <path id="DejaVuSans-72" d="M 2631 2963 
Q 2534 3019 2420 3045 
Q 2306 3072 2169 3072 
Q 1681 3072 1420 2755 
Q 1159 2438 1159 1844 
L 1159 0 
L 581 0 
L 581 3500 
L 1159 3500 
L 1159 2956 
Q 1341 3275 1631 3429 
Q 1922 3584 2338 3584 
Q 2397 3584 2469 3576 
Q 2541 3569 2628 3553 
L 2631 2963 
z
" transform="scale(0.015625)"/>
       <path id="DejaVuSans-61" d="M 2194 1759 
Q 1497 1759 1228 1600 
Q 959 1441 959 1056 
Q 959 750 1161 570 
Q 1363 391 1709 391 
Q 2188 391 2477 730 
Q 2766 1069 2766 1631 
L 2766 1759 
L 2194 1759 
z
M 3341 1997 
L 3341 0 
L 2766 0 
L 2766 531 
Q 2569 213 2275 61 
Q 1981 -91 1556 -91 
Q 1019 -91 701 211 
Q 384 513 384 1019 
Q 384 1609 779 1909 
Q 1175 2209 1959 2209 
L 2766 2209 
L 2766 2266 
Q 2766 2663 2505 2880 
Q 2244 3097 1772 3097 
Q 1472 3097 1187 3025 
Q 903 2953 641 2809 
L 641 3341 
Q 956 3463 1253 3523 
Q 1550 3584 1831 3584 
Q 2591 3584 2966 3190 
Q 3341 2797 3341 1997 
z
" transform="scale(0.015625)"/>
       <path id="DejaVuSans-74" d="M 1172 4494 
L 1172 3500 
L 2356 3500 
L 2356 3053 
L 1172 3053 
L 1172 1153 
Q 1172 725 1289 603 
Q 1406 481 1766 481 
L 2356 481 
L 2356 0 
L 1766 0 
Q 1100 0 847 248 
Q 594 497 594 1153 
L 594 3053 
L 172 3053 
L 172 3500 
L 594 3500 
L 594 4494 
L 1172 4494 
z
" transform="scale(0.015625)"/>
       <path id="DejaVuSans-75" d="M 544 1381 
L 544 3500 
L 1119 3500 
L 1119 1403 
Q 1119 906 1312 657 
Q 1506 409 1894 409 
Q 2359 409 2629 706 
Q 2900 1003 2900 1516 
L 2900 3500 
L 3475 3500 
L 3475 0 
L 2900 0 
L 2900 538 
Q 2691 219 2414 64 
Q 2138 -91 1772 -91 
Q 1169 -91 856 284 
Q 544 659 544 1381 
z
M 1991 3584 
L 1991 3584 
z
" transform="scale(0.015625)"/>
       <path id="DejaVuSans-20" transform="scale(0.015625)"/>
       <path id="DejaVuSans-28" d="M 1984 4856 
Q 1566 4138 1362 3434 
Q 1159 2731 1159 2009 
Q 1159 1288 1364 580 
Q 1569 -128 1984 -844 
L 1484 -844 
Q 1016 -109 783 600 
Q 550 1309 550 2009 
Q 550 2706 781 3412 
Q 1013 4119 1484 4856 
L 1984 4856 
z
" transform="scale(0.015625)"/>
       <path id="DejaVuSans-43" d="M 4122 4306 
L 4122 3641 
Q 3803 3938 3442 4084 
Q 3081 4231 2675 4231 
Q 1875 4231 1450 3742 
Q 1025 3253 1025 2328 
Q 1025 1406 1450 917 
Q 1875 428 2675 428 
Q 3081 428 3442 575 
Q 3803 722 4122 1019 
L 4122 359 
Q 3791 134 3420 21 
Q 3050 -91 2638 -91 
Q 1578 -91 968 557 
Q 359 1206 359 2328 
Q 359 3453 968 4101 
Q 1578 4750 2638 4750 
Q 3056 4750 3426 4639 
Q 3797 4528 4122 4306 
z
" transform="scale(0.015625)"/>
       <path id="DejaVuSans-29" d="M 513 4856 
L 1013 4856 
Q 1481 4119 1714 3412 
Q 1947 2706 1947 2009 
Q 1947 1309 1714 600 
Q 1481 -109 1013 -844 
L 513 -844 
Q 928 -128 1133 580 
Q 1338 1288 1338 2009 
Q 1338 2731 1133 3434 
Q 928 4138 513 4856 
z
" transform="scale(0.015625)"/>
      </defs>
      <use xlink:href="#DejaVuSans-54"/>
      <use xlink:href="#DejaVuSans-65" transform="translate(44.083984 0)"/>
      <use xlink:href="#DejaVuSans-6d" transform="translate(105.607422 0)"/>
      <use xlink:href="#DejaVuSans-70" transform="translate(203.019531 0)"/>
      <use xlink:href="#DejaVuSans-65" transform="translate(266.496094 0)"/>
      <use xlink:href="#DejaVuSans-72" transform="translate(328.019531 0)"/>
      <use xlink:href="#DejaVuSans-61" transform="translate(369.132812 0)"/>
      <use xlink:href="#DejaVuSans-74" transform="translate(430.412109 0)"/>
      <use xlink:href="#DejaVuSans-75" transform="translate(469.621094 0)"/>
      <use xlink:href="#DejaVuSans-72" transform="translate(533 0)"/>
      <use xlink:href="#DejaVuSans-65" transform="translate(571.863281 0)"/>
      <use xlink:href="#DejaVuSans-20" transform="translate(633.386719 0)"/>
      <use xlink:href="#DejaVuSans-28" transform="translate(665.173828 0)"/>
      <use xlink:href="#DejaVuSans-43" transform="translate(704.1875 0)"/>
      <use xlink:href="#DejaVuSans-29" transform="translate(774.011719 0)"/>
     </g>
    </g>
   </g>
   <g id="matplotlib.axis_2">
    <g id="ytick_1">
     <g id="line2d_11">
      <path d="M 60.05 302.603694 
L 565.2 302.603694 
" clip-path="url(#p24d00131a4)" style="fill: none; stroke-dasharray: 0.8,1.32; stroke-dashoffset: 0; stroke: #b0b0b0; stroke-opacity: 0.7; stroke-width: 0.8"/>
     </g>
     <g id="line2d_12">
      <defs>
       <path id="m05ea926191" d="M 0 0 
L -3.5 0 
" style="stroke: #000000; stroke-width: 0.8"/>
      </defs>
      <g>
       <use xlink:href="#m05ea926191" x="60.05" y="302.603694" style="stroke: #000000; stroke-width: 0.8"/>
      </g>
     </g>
     <g id="text_7">
      <!-- 0 -->
      <g transform="translate(46.6875 306.402912) scale(0.1 -0.1)">
       <use xlink:href="#DejaVuSans-30"/>
      </g>
     </g>
    </g>
    <g id="ytick_2">
     <g id="line2d_13">
      <path d="M 60.05 270.441024 
L 565.2 270.441024 
" clip-path="url(#p24d00131a4)" style="fill: none; stroke-dasharray: 0.8,1.32; stroke-dashoffset: 0; stroke: #b0b0b0; stroke-opacity: 0.7; stroke-width: 0.8"/>
     </g>
     <g id="line2d_14">
      <g>
       <use xlink:href="#m05ea926191" x="60.05" y="270.441024" style="stroke: #000000; stroke-width: 0.8"/>
      </g>
     </g>
     <g id="text_8">
      <!-- 500 -->
      <g transform="translate(33.9625 274.240242) scale(0.1 -0.1)">
       <use xlink:href="#DejaVuSans-35"/>
       <use xlink:href="#DejaVuSans-30" transform="translate(63.623047 0)"/>
       <use xlink:href="#DejaVuSans-30" transform="translate(127.246094 0)"/>
      </g>
     </g>
    </g>
    <g id="ytick_3">
     <g id="line2d_15">
      <path d="M 60.05 238.278354 
L 565.2 238.278354 
" clip-path="url(#p24d00131a4)" style="fill: none; stroke-dasharray: 0.8,1.32; stroke-dashoffset: 0; stroke: #b0b0b0; stroke-opacity: 0.7; stroke-width: 0.8"/>
     </g>
     <g id="line2d_16">
      <g>
       <use xlink:href="#m05ea926191" x="60.05" y="238.278354" style="stroke: #000000; stroke-width: 0.8"/>
      </g>
     </g>
     <g id="text_9">
      <!-- 1000 -->
      <g transform="translate(27.6 242.077572) scale(0.1 -0.1)">
       <defs>
        <path id="DejaVuSans-31" d="M 794 531 
L 1825 531 
L 1825 4091 
L 703 3866 
L 703 4441 
L 1819 4666 
L 2450 4666 
L 2450 531 
L 3481 531 
L 3481 0 
L 794 0 
L 794 531 
z
" transform="scale(0.015625)"/>
       </defs>
       <use xlink:href="#DejaVuSans-31"/>
       <use xlink:href="#DejaVuSans-30" transform="translate(63.623047 0)"/>
       <use xlink:href="#DejaVuSans-30" transform="translate(127.246094 0)"/>
       <use xlink:href="#DejaVuSans-30" transform="translate(190.869141 0)"/>
      </g>
     </g>
    </g>
    <g id="ytick_4">
     <g id="line2d_17">
      <path d="M 60.05 206.115684 
L 565.2 206.115684 
" clip-path="url(#p24d00131a4)" style="fill: none; stroke-dasharray: 0.8,1.32; stroke-dashoffset: 0; stroke: #b0b0b0; stroke-opacity: 0.7; stroke-width: 0.8"/>
     </g>
     <g id="line2d_18">
      <g>
       <use xlink:href="#m05ea926191" x="60.05" y="206.115684" style="stroke: #000000; stroke-width: 0.8"/>
      </g>
     </g>
     <g id="text_10">
      <!-- 1500 -->
      <g transform="translate(27.6 209.914902) scale(0.1 -0.1)">
       <use xlink:href="#DejaVuSans-31"/>
       <use xlink:href="#DejaVuSans-35" transform="translate(63.623047 0)"/>
       <use xlink:href="#DejaVuSans-30" transform="translate(127.246094 0)"/>
       <use xlink:href="#DejaVuSans-30" transform="translate(190.869141 0)"/>
      </g>
     </g>
    </g>
    <g id="ytick_5">
     <g id="line2d_19">
      <path d="M 60.05 173.953014 
L 565.2 173.953014 
" clip-path="url(#p24d00131a4)" style="fill: none; stroke-dasharray: 0.8,1.32; stroke-dashoffset: 0; stroke: #b0b0b0; stroke-opacity: 0.7; stroke-width: 0.8"/>
     </g>
     <g id="line2d_20">
      <g>
       <use xlink:href="#m05ea926191" x="60.05" y="173.953014" style="stroke: #000000; stroke-width: 0.8"/>
      </g>
     </g>
     <g id="text_11">
      <!-- 2000 -->
      <g transform="translate(27.6 177.752232) scale(0.1 -0.1)">
       <use xlink:href="#DejaVuSans-32"/>
       <use xlink:href="#DejaVuSans-30" transform="translate(63.623047 0)"/>
       <use xlink:href="#DejaVuSans-30" transform="translate(127.246094 0)"/>
       <use xlink:href="#DejaVuSans-30" transform="translate(190.869141 0)"/>
      </g>
     </g>
    </g>
    <g id="ytick_6">
     <g id="line2d_21">
      <path d="M 60.05 141.790344 
L 565.2 141.790344 
" clip-path="url(#p24d00131a4)" style="fill: none; stroke-dasharray: 0.8,1.32; stroke-dashoffset: 0; stroke: #b0b0b0; stroke-opacity: 0.7; stroke-width: 0.8"/>
     </g>
     <g id="line2d_22">
      <g>
       <use xlink:href="#m05ea926191" x="60.05" y="141.790344" style="stroke: #000000; stroke-width: 0.8"/>
      </g>
     </g>
     <g id="text_12">
      <!-- 2500 -->
      <g transform="translate(27.6 145.589562) scale(0.1 -0.1)">
       <use xlink:href="#DejaVuSans-32"/>
       <use xlink:href="#DejaVuSans-35" transform="translate(63.623047 0)"/>
       <use xlink:href="#DejaVuSans-30" transform="translate(127.246094 0)"/>
       <use xlink:href="#DejaVuSans-30" transform="translate(190.869141 0)"/>
      </g>
     </g>
    </g>
    <g id="ytick_7">
     <g id="line2d_23">
      <path d="M 60.05 109.627674 
L 565.2 109.627674 
" clip-path="url(#p24d00131a4)" style="fill: none; stroke-dasharray: 0.8,1.32; stroke-dashoffset: 0; stroke: #b0b0b0; stroke-opacity: 0.7; stroke-width: 0.8"/>
     </g>
     <g id="line2d_24">
      <g>
       <use xlink:href="#m05ea926191" x="60.05" y="109.627674" style="stroke: #000000; stroke-width: 0.8"/>
      </g>
     </g>
     <g id="text_13">
      <!-- 3000 -->
      <g transform="translate(27.6 113.426892) scale(0.1 -0.1)">
       <use xlink:href="#DejaVuSans-33"/>
       <use xlink:href="#DejaVuSans-30" transform="translate(63.623047 0)"/>
       <use xlink:href="#DejaVuSans-30" transform="translate(127.246094 0)"/>
       <use xlink:href="#DejaVuSans-30" transform="translate(190.869141 0)"/>
      </g>
     </g>
    </g>
    <g id="ytick_8">
     <g id="line2d_25">
      <path d="M 60.05 77.465004 
L 565.2 77.465004 
" clip-path="url(#p24d00131a4)" style="fill: none; stroke-dasharray: 0.8,1.32; stroke-dashoffset: 0; stroke: #b0b0b0; stroke-opacity: 0.7; stroke-width: 0.8"/>
     </g>
     <g id="line2d_26">
      <g>
       <use xlink:href="#m05ea926191" x="60.05" y="77.465004" style="stroke: #000000; stroke-width: 0.8"/>
      </g>
     </g>
     <g id="text_14">
      <!-- 3500 -->
      <g transform="translate(27.6 81.264222) scale(0.1 -0.1)">
       <use xlink:href="#DejaVuSans-33"/>
       <use xlink:href="#DejaVuSans-35" transform="translate(63.623047 0)"/>
       <use xlink:href="#DejaVuSans-30" transform="translate(127.246094 0)"/>
       <use xlink:href="#DejaVuSans-30" transform="translate(190.869141 0)"/>
      </g>
     </g>
    </g>
    <g id="ytick_9">
     <g id="line2d_27">
      <path d="M 60.05 45.302334 
L 565.2 45.302334 
" clip-path="url(#p24d00131a4)" style="fill: none; stroke-dasharray: 0.8,1.32; stroke-dashoffset: 0; stroke: #b0b0b0; stroke-opacity: 0.7; stroke-width: 0.8"/>
     </g>
     <g id="line2d_28">
      <g>
       <use xlink:href="#m05ea926191" x="60.05" y="45.302334" style="stroke: #000000; stroke-width: 0.8"/>
      </g>
     </g>
     <g id="text_15">
      <!-- 4000 -->
      <g transform="translate(27.6 49.101552) scale(0.1 -0.1)">
       <use xlink:href="#DejaVuSans-34"/>
       <use xlink:href="#DejaVuSans-30" transform="translate(63.623047 0)"/>
       <use xlink:href="#DejaVuSans-30" transform="translate(127.246094 0)"/>
       <use xlink:href="#DejaVuSans-30" transform="translate(190.869141 0)"/>
      </g>
     </g>
    </g>
    <g id="text_16">
     <!-- ADC Value (12-bit) -->
     <g transform="translate(21.104375 226.895) rotate(-90) scale(0.12 -0.12)">
      <defs>
       <path id="DejaVuSans-41" d="M 2188 4044 
L 1331 1722 
L 3047 1722 
L 2188 4044 
z
M 1831 4666 
L 2547 4666 
L 4325 0 
L 3669 0 
L 3244 1197 
L 1141 1197 
L 716 0 
L 50 0 
L 1831 4666 
z
" transform="scale(0.015625)"/>
       <path id="DejaVuSans-44" d="M 1259 4147 
L 1259 519 
L 2022 519 
Q 2988 519 3436 956 
Q 3884 1394 3884 2338 
Q 3884 3275 3436 3711 
Q 2988 4147 2022 4147 
L 1259 4147 
z
M 628 4666 
L 1925 4666 
Q 3281 4666 3915 4102 
Q 4550 3538 4550 2338 
Q 4550 1131 3912 565 
Q 3275 0 1925 0 
L 628 0 
L 628 4666 
z
" transform="scale(0.015625)"/>
       <path id="DejaVuSans-56" d="M 1831 0 
L 50 4666 
L 709 4666 
L 2188 738 
L 3669 4666 
L 4325 4666 
L 2547 0 
L 1831 0 
z
" transform="scale(0.015625)"/>
       <path id="DejaVuSans-6c" d="M 603 4863 
L 1178 4863 
L 1178 0 
L 603 0 
L 603 4863 
z
" transform="scale(0.015625)"/>
       <path id="DejaVuSans-2d" d="M 313 2009 
L 1997 2009 
L 1997 1497 
L 313 1497 
L 313 2009 
z
" transform="scale(0.015625)"/>
       <path id="DejaVuSans-62" d="M 3116 1747 
Q 3116 2381 2855 2742 
Q 2594 3103 2138 3103 
Q 1681 3103 1420 2742 
Q 1159 2381 1159 1747 
Q 1159 1113 1420 752 
Q 1681 391 2138 391 
Q 2594 391 2855 752 
Q 3116 1113 3116 1747 
z
M 1159 2969 
Q 1341 3281 1617 3432 
Q 1894 3584 2278 3584 
Q 2916 3584 3314 3078 
Q 3713 2572 3713 1747 
Q 3713 922 3314 415 
Q 2916 -91 2278 -91 
Q 1894 -91 1617 61 
Q 1341 213 1159 525 
L 1159 0 
L 581 0 
L 581 4863 
L 1159 4863 
L 1159 2969 
z
" transform="scale(0.015625)"/>
       <path id="DejaVuSans-69" d="M 603 3500 
L 1178 3500 
L 1178 0 
L 603 0 
L 603 3500 
z
M 603 4863 
L 1178 4863 
L 1178 4134 
L 603 4134 
L 603 4863 
z
" transform="scale(0.015625)"/>
      </defs>
      <use xlink:href="#DejaVuSans-41"/>
      <use xlink:href="#DejaVuSans-44" transform="translate(68.408203 0)"/>
      <use xlink:href="#DejaVuSans-43" transform="translate(145.410156 0)"/>
      <use xlink:href="#DejaVuSans-20" transform="translate(215.234375 0)"/>
      <use xlink:href="#DejaVuSans-56" transform="translate(247.021484 0)"/>
      <use xlink:href="#DejaVuSans-61" transform="translate(307.679688 0)"/>
      <use xlink:href="#DejaVuSans-6c" transform="translate(368.958984 0)"/>
      <use xlink:href="#DejaVuSans-75" transform="translate(396.742188 0)"/>
      <use xlink:href="#DejaVuSans-65" transform="translate(460.121094 0)"/>
      <use xlink:href="#DejaVuSans-20" transform="translate(521.644531 0)"/>
      <use xlink:href="#DejaVuSans-28" transform="translate(553.431641 0)"/>
      <use xlink:href="#DejaVuSans-31" transform="translate(592.445312 0)"/>
      <use xlink:href="#DejaVuSans-32" transform="translate(656.068359 0)"/>
      <use xlink:href="#DejaVuSans-2d" transform="translate(719.691406 0)"/>
      <use xlink:href="#DejaVuSans-62" transform="translate(755.775391 0)"/>
      <use xlink:href="#DejaVuSans-69" transform="translate(819.251953 0)"/>
      <use xlink:href="#DejaVuSans-74" transform="translate(847.035156 0)"/>
      <use xlink:href="#DejaVuSans-29" transform="translate(886.244141 0)"/>
     </g>
    </g>
   </g>
   <g id="line2d_29">
    <path d="M 542.238636 302.089091 
L 403.132652 300.03068 
L 364.539796 297.972269 
L 342.697616 295.913858 
L 327.702257 293.855447 
L 316.380535 291.797037 
L 307.330182 289.738626 
L 299.813825 287.680215 
L 293.398156 285.621804 
L 287.807963 283.563393 
L 282.858085 281.504982 
L 278.418275 279.446571 
L 274.393606 277.38816 
L 270.712861 275.329749 
L 267.321309 273.271339 
L 264.176026 271.212928 
L 258.493724 267.096106 
L 253.461102 262.979284 
L 248.937417 258.862462 
L 244.82195 254.745641 
L 241.040226 250.628819 
L 237.535653 246.511997 
L 234.264237 242.395175 
L 229.719887 236.219943 
L 225.532279 230.04471 
L 221.633454 223.869477 
L 217.971168 217.694245 
L 213.386096 209.460601 
L 209.072721 201.226958 
L 203.973542 190.934903 
L 198.165047 178.584438 
L 191.659117 164.175562 
L 174.192137 125.065755 
L 169.323283 114.773701 
L 165.231869 106.540057 
L 160.892965 98.306414 
L 157.420913 92.131181 
L 153.702296 85.955948 
L 149.660609 79.780716 
L 146.733553 75.663894 
L 143.567605 71.547072 
L 140.097802 67.430251 
L 136.229902 63.313429 
L 131.81907 59.196607 
L 129.340788 57.138196 
L 126.624543 55.079785 
L 123.607447 53.021374 
L 120.197481 50.962963 
L 116.251796 48.904553 
L 111.529773 46.846142 
L 105.574125 44.787731 
L 97.323132 42.72932 
L 83.011364 40.670909 
L 83.011364 40.670909 
" clip-path="url(#p24d00131a4)" style="fill: none; stroke: #000080; stroke-width: 1.5; stroke-linecap: square"/>
    <defs>
     <path id="m2e6d1f82d8" d="M 0 1.5 
C 0.397805 1.5 0.77937 1.341951 1.06066 1.06066 
C 1.341951 0.77937 1.5 0.397805 1.5 0 
C 1.5 -0.397805 1.341951 -0.77937 1.06066 -1.06066 
C 0.77937 -1.341951 0.397805 -1.5 0 -1.5 
C -0.397805 -1.5 -0.77937 -1.341951 -1.06066 -1.06066 
C -1.341951 -0.77937 -1.5 -0.397805 -1.5 0 
C -1.5 0.397805 -1.341951 0.77937 -1.06066 1.06066 
C -0.77937 1.341951 -0.397805 1.5 0 1.5 
z
" style="stroke: #000080"/>
    </defs>
    <g clip-path="url(#p24d00131a4)">
     <use xlink:href="#m2e6d1f82d8" x="542.238636" y="302.089091" style="fill: #000080; stroke: #000080"/>
     <use xlink:href="#m2e6d1f82d8" x="403.132652" y="300.03068" style="fill: #000080; stroke: #000080"/>
     <use xlink:href="#m2e6d1f82d8" x="364.539796" y="297.972269" style="fill: #000080; stroke: #000080"/>
     <use xlink:href="#m2e6d1f82d8" x="342.697616" y="295.913858" style="fill: #000080; stroke: #000080"/>
     <use xlink:href="#m2e6d1f82d8" x="327.702257" y="293.855447" style="fill: #000080; stroke: #000080"/>
     <use xlink:href="#m2e6d1f82d8" x="316.380535" y="291.797037" style="fill: #000080; stroke: #000080"/>
     <use xlink:href="#m2e6d1f82d8" x="307.330182" y="289.738626" style="fill: #000080; stroke: #000080"/>
     <use xlink:href="#m2e6d1f82d8" x="299.813825" y="287.680215" style="fill: #000080; stroke: #000080"/>
     <use xlink:href="#m2e6d1f82d8" x="293.398156" y="285.621804" style="fill: #000080; stroke: #000080"/>
     <use xlink:href="#m2e6d1f82d8" x="287.807963" y="283.563393" style="fill: #000080; stroke: #000080"/>
     <use xlink:href="#m2e6d1f82d8" x="282.858085" y="281.504982" style="fill: #000080; stroke: #000080"/>
     <use xlink:href="#m2e6d1f82d8" x="278.418275" y="279.446571" style="fill: #000080; stroke: #000080"/>
     <use xlink:href="#m2e6d1f82d8" x="274.393606" y="277.38816" style="fill: #000080; stroke: #000080"/>
     <use xlink:href="#m2e6d1f82d8" x="270.712861" y="275.329749" style="fill: #000080; stroke: #000080"/>
     <use xlink:href="#m2e6d1f82d8" x="267.321309" y="273.271339" style="fill: #000080; stroke: #000080"/>
     <use xlink:href="#m2e6d1f82d8" x="264.176026" y="271.212928" style="fill: #000080; stroke: #000080"/>
     <use xlink:href="#m2e6d1f82d8" x="261.242751" y="269.154517" style="fill: #000080; stroke: #000080"/>
     <use xlink:href="#m2e6d1f82d8" x="258.493724" y="267.096106" style="fill: #000080; stroke: #000080"/>
     <use xlink:href="#m2e6d1f82d8" x="255.906153" y="265.037695" style="fill: #000080; stroke: #000080"/>
     <use xlink:href="#m2e6d1f82d8" x="253.461102" y="262.979284" style="fill: #000080; stroke: #000080"/>
     <use xlink:href="#m2e6d1f82d8" x="251.142679" y="260.920873" style="fill: #000080; stroke: #000080"/>
     <use xlink:href="#m2e6d1f82d8" x="248.937417" y="258.862462" style="fill: #000080; stroke: #000080"/>
     <use xlink:href="#m2e6d1f82d8" x="246.833809" y="256.804052" style="fill: #000080; stroke: #000080"/>
     <use xlink:href="#m2e6d1f82d8" x="244.82195" y="254.745641" style="fill: #000080; stroke: #000080"/>
     <use xlink:href="#m2e6d1f82d8" x="242.893254" y="252.68723" style="fill: #000080; stroke: #000080"/>
     <use xlink:href="#m2e6d1f82d8" x="241.040226" y="250.628819" style="fill: #000080; stroke: #000080"/>
     <use xlink:href="#m2e6d1f82d8" x="239.256293" y="248.570408" style="fill: #000080; stroke: #000080"/>
     <use xlink:href="#m2e6d1f82d8" x="237.535653" y="246.511997" style="fill: #000080; stroke: #000080"/>
     <use xlink:href="#m2e6d1f82d8" x="235.873162" y="244.453586" style="fill: #000080; stroke: #000080"/>
     <use xlink:href="#m2e6d1f82d8" x="234.264237" y="242.395175" style="fill: #000080; stroke: #000080"/>
     <use xlink:href="#m2e6d1f82d8" x="232.704779" y="240.336764" style="fill: #000080; stroke: #000080"/>
     <use xlink:href="#m2e6d1f82d8" x="231.191103" y="238.278354" style="fill: #000080; stroke: #000080"/>
     <use xlink:href="#m2e6d1f82d8" x="229.719887" y="236.219943" style="fill: #000080; stroke: #000080"/>
     <use xlink:href="#m2e6d1f82d8" x="228.288124" y="234.161532" style="fill: #000080; stroke: #000080"/>
     <use xlink:href="#m2e6d1f82d8" x="226.893085" y="232.103121" style="fill: #000080; stroke: #000080"/>
     <use xlink:href="#m2e6d1f82d8" x="225.532279" y="230.04471" style="fill: #000080; stroke: #000080"/>
     <use xlink:href="#m2e6d1f82d8" x="224.203434" y="227.986299" style="fill: #000080; stroke: #000080"/>
     <use xlink:href="#m2e6d1f82d8" x="222.904464" y="225.927888" style="fill: #000080; stroke: #000080"/>
     <use xlink:href="#m2e6d1f82d8" x="221.633454" y="223.869477" style="fill: #000080; stroke: #000080"/>
     <use xlink:href="#m2e6d1f82d8" x="220.388636" y="221.811067" style="fill: #000080; stroke: #000080"/>
     <use xlink:href="#m2e6d1f82d8" x="219.168379" y="219.752656" style="fill: #000080; stroke: #000080"/>
     <use xlink:href="#m2e6d1f82d8" x="217.971168" y="217.694245" style="fill: #000080; stroke: #000080"/>
     <use xlink:href="#m2e6d1f82d8" x="216.7956" y="215.635834" style="fill: #000080; stroke: #000080"/>
     <use xlink:href="#m2e6d1f82d8" x="215.640367" y="213.577423" style="fill: #000080; stroke: #000080"/>
     <use xlink:href="#m2e6d1f82d8" x="214.504246" y="211.519012" style="fill: #000080; stroke: #000080"/>
     <use xlink:href="#m2e6d1f82d8" x="213.386096" y="209.460601" style="fill: #000080; stroke: #000080"/>
     <use xlink:href="#m2e6d1f82d8" x="212.284846" y="207.40219" style="fill: #000080; stroke: #000080"/>
     <use xlink:href="#m2e6d1f82d8" x="211.19949" y="205.34378" style="fill: #000080; stroke: #000080"/>
     <use xlink:href="#m2e6d1f82d8" x="210.12908" y="203.285369" style="fill: #000080; stroke: #000080"/>
     <use xlink:href="#m2e6d1f82d8" x="209.072721" y="201.226958" style="fill: #000080; stroke: #000080"/>
     <use xlink:href="#m2e6d1f82d8" x="208.029568" y="199.168547" style="fill: #000080; stroke: #000080"/>
     <use xlink:href="#m2e6d1f82d8" x="206.998817" y="197.110136" style="fill: #000080; stroke: #000080"/>
     <use xlink:href="#m2e6d1f82d8" x="205.979708" y="195.051725" style="fill: #000080; stroke: #000080"/>
     <use xlink:href="#m2e6d1f82d8" x="204.971514" y="192.993314" style="fill: #000080; stroke: #000080"/>
     <use xlink:href="#m2e6d1f82d8" x="203.973542" y="190.934903" style="fill: #000080; stroke: #000080"/>
     <use xlink:href="#m2e6d1f82d8" x="202.98513" y="188.876492" style="fill: #000080; stroke: #000080"/>
     <use xlink:href="#m2e6d1f82d8" x="202.005642" y="186.818082" style="fill: #000080; stroke: #000080"/>
     <use xlink:href="#m2e6d1f82d8" x="201.034468" y="184.759671" style="fill: #000080; stroke: #000080"/>
     <use xlink:href="#m2e6d1f82d8" x="200.07102" y="182.70126" style="fill: #000080; stroke: #000080"/>
     <use xlink:href="#m2e6d1f82d8" x="199.114729" y="180.642849" style="fill: #000080; stroke: #000080"/>
     <use xlink:href="#m2e6d1f82d8" x="198.165047" y="178.584438" style="fill: #000080; stroke: #000080"/>
     <use xlink:href="#m2e6d1f82d8" x="197.22144" y="176.526027" style="fill: #000080; stroke: #000080"/>
     <use xlink:href="#m2e6d1f82d8" x="196.283389" y="174.467616" style="fill: #000080; stroke: #000080"/>
     <use xlink:href="#m2e6d1f82d8" x="195.350388" y="172.409205" style="fill: #000080; stroke: #000080"/>
     <use xlink:href="#m2e6d1f82d8" x="194.421941" y="170.350795" style="fill: #000080; stroke: #000080"/>
     <use xlink:href="#m2e6d1f82d8" x="193.497564" y="168.292384" style="fill: #000080; stroke: #000080"/>
     <use xlink:href="#m2e6d1f82d8" x="192.576779" y="166.233973" style="fill: #000080; stroke: #000080"/>
     <use xlink:href="#m2e6d1f82d8" x="191.659117" y="164.175562" style="fill: #000080; stroke: #000080"/>
     <use xlink:href="#m2e6d1f82d8" x="190.74411" y="162.117151" style="fill: #000080; stroke: #000080"/>
     <use xlink:href="#m2e6d1f82d8" x="189.831299" y="160.05874" style="fill: #000080; stroke: #000080"/>
     <use xlink:href="#m2e6d1f82d8" x="188.920224" y="158.000329" style="fill: #000080; stroke: #000080"/>
     <use xlink:href="#m2e6d1f82d8" x="188.010428" y="155.941918" style="fill: #000080; stroke: #000080"/>
     <use xlink:href="#m2e6d1f82d8" x="187.101452" y="153.883508" style="fill: #000080; stroke: #000080"/>
     <use xlink:href="#m2e6d1f82d8" x="186.192837" y="151.825097" style="fill: #000080; stroke: #000080"/>
     <use xlink:href="#m2e6d1f82d8" x="185.284121" y="149.766686" style="fill: #000080; stroke: #000080"/>
     <use xlink:href="#m2e6d1f82d8" x="184.374835" y="147.708275" style="fill: #000080; stroke: #000080"/>
     <use xlink:href="#m2e6d1f82d8" x="183.464508" y="145.649864" style="fill: #000080; stroke: #000080"/>
     <use xlink:href="#m2e6d1f82d8" x="182.552658" y="143.591453" style="fill: #000080; stroke: #000080"/>
     <use xlink:href="#m2e6d1f82d8" x="181.638796" y="141.533042" style="fill: #000080; stroke: #000080"/>
     <use xlink:href="#m2e6d1f82d8" x="180.722421" y="139.474631" style="fill: #000080; stroke: #000080"/>
     <use xlink:href="#m2e6d1f82d8" x="179.803018" y="137.41622" style="fill: #000080; stroke: #000080"/>
     <use xlink:href="#m2e6d1f82d8" x="178.880061" y="135.35781" style="fill: #000080; stroke: #000080"/>
     <use xlink:href="#m2e6d1f82d8" x="177.953003" y="133.299399" style="fill: #000080; stroke: #000080"/>
     <use xlink:href="#m2e6d1f82d8" x="177.02128" y="131.240988" style="fill: #000080; stroke: #000080"/>
     <use xlink:href="#m2e6d1f82d8" x="176.084306" y="129.182577" style="fill: #000080; stroke: #000080"/>
     <use xlink:href="#m2e6d1f82d8" x="175.141471" y="127.124166" style="fill: #000080; stroke: #000080"/>
     <use xlink:href="#m2e6d1f82d8" x="174.192137" y="125.065755" style="fill: #000080; stroke: #000080"/>
     <use xlink:href="#m2e6d1f82d8" x="173.235634" y="123.007344" style="fill: #000080; stroke: #000080"/>
     <use xlink:href="#m2e6d1f82d8" x="172.271261" y="120.948933" style="fill: #000080; stroke: #000080"/>
     <use xlink:href="#m2e6d1f82d8" x="171.298276" y="118.890523" style="fill: #000080; stroke: #000080"/>
     <use xlink:href="#m2e6d1f82d8" x="170.315894" y="116.832112" style="fill: #000080; stroke: #000080"/>
     <use xlink:href="#m2e6d1f82d8" x="169.323283" y="114.773701" style="fill: #000080; stroke: #000080"/>
     <use xlink:href="#m2e6d1f82d8" x="168.319557" y="112.71529" style="fill: #000080; stroke: #000080"/>
     <use xlink:href="#m2e6d1f82d8" x="167.303769" y="110.656879" style="fill: #000080; stroke: #000080"/>
     <use xlink:href="#m2e6d1f82d8" x="166.274903" y="108.598468" style="fill: #000080; stroke: #000080"/>
     <use xlink:href="#m2e6d1f82d8" x="165.231869" y="106.540057" style="fill: #000080; stroke: #000080"/>
     <use xlink:href="#m2e6d1f82d8" x="164.17349" y="104.481646" style="fill: #000080; stroke: #000080"/>
     <use xlink:href="#m2e6d1f82d8" x="163.098491" y="102.423236" style="fill: #000080; stroke: #000080"/>
     <use xlink:href="#m2e6d1f82d8" x="162.005486" y="100.364825" style="fill: #000080; stroke: #000080"/>
     <use xlink:href="#m2e6d1f82d8" x="160.892965" y="98.306414" style="fill: #000080; stroke: #000080"/>
     <use xlink:href="#m2e6d1f82d8" x="159.759274" y="96.248003" style="fill: #000080; stroke: #000080"/>
     <use xlink:href="#m2e6d1f82d8" x="158.602593" y="94.189592" style="fill: #000080; stroke: #000080"/>
     <use xlink:href="#m2e6d1f82d8" x="157.420913" y="92.131181" style="fill: #000080; stroke: #000080"/>
     <use xlink:href="#m2e6d1f82d8" x="156.212008" y="90.07277" style="fill: #000080; stroke: #000080"/>
     <use xlink:href="#m2e6d1f82d8" x="154.973396" y="88.014359" style="fill: #000080; stroke: #000080"/>
     <use xlink:href="#m2e6d1f82d8" x="153.702296" y="85.955948" style="fill: #000080; stroke: #000080"/>
     <use xlink:href="#m2e6d1f82d8" x="152.395577" y="83.897538" style="fill: #000080; stroke: #000080"/>
     <use xlink:href="#m2e6d1f82d8" x="151.049695" y="81.839127" style="fill: #000080; stroke: #000080"/>
     <use xlink:href="#m2e6d1f82d8" x="149.660609" y="79.780716" style="fill: #000080; stroke: #000080"/>
     <use xlink:href="#m2e6d1f82d8" x="148.223682" y="77.722305" style="fill: #000080; stroke: #000080"/>
     <use xlink:href="#m2e6d1f82d8" x="146.733553" y="75.663894" style="fill: #000080; stroke: #000080"/>
     <use xlink:href="#m2e6d1f82d8" x="145.183977" y="73.605483" style="fill: #000080; stroke: #000080"/>
     <use xlink:href="#m2e6d1f82d8" x="143.567605" y="71.547072" style="fill: #000080; stroke: #000080"/>
     <use xlink:href="#m2e6d1f82d8" x="141.875709" y="69.488661" style="fill: #000080; stroke: #000080"/>
     <use xlink:href="#m2e6d1f82d8" x="140.097802" y="67.430251" style="fill: #000080; stroke: #000080"/>
     <use xlink:href="#m2e6d1f82d8" x="138.221121" y="65.37184" style="fill: #000080; stroke: #000080"/>
     <use xlink:href="#m2e6d1f82d8" x="136.229902" y="63.313429" style="fill: #000080; stroke: #000080"/>
     <use xlink:href="#m2e6d1f82d8" x="134.104343" y="61.255018" style="fill: #000080; stroke: #000080"/>
     <use xlink:href="#m2e6d1f82d8" x="131.81907" y="59.196607" style="fill: #000080; stroke: #000080"/>
     <use xlink:href="#m2e6d1f82d8" x="129.340788" y="57.138196" style="fill: #000080; stroke: #000080"/>
     <use xlink:href="#m2e6d1f82d8" x="126.624543" y="55.079785" style="fill: #000080; stroke: #000080"/>
     <use xlink:href="#m2e6d1f82d8" x="123.607447" y="53.021374" style="fill: #000080; stroke: #000080"/>
     <use xlink:href="#m2e6d1f82d8" x="120.197481" y="50.962963" style="fill: #000080; stroke: #000080"/>
     <use xlink:href="#m2e6d1f82d8" x="116.251796" y="48.904553" style="fill: #000080; stroke: #000080"/>
     <use xlink:href="#m2e6d1f82d8" x="111.529773" y="46.846142" style="fill: #000080; stroke: #000080"/>
     <use xlink:href="#m2e6d1f82d8" x="105.574125" y="44.787731" style="fill: #000080; stroke: #000080"/>
     <use xlink:href="#m2e6d1f82d8" x="97.323132" y="42.72932" style="fill: #000080; stroke: #000080"/>
     <use xlink:href="#m2e6d1f82d8" x="83.011364" y="40.670909" style="fill: #000080; stroke: #000080"/>
    </g>
   </g>
   <g id="patch_3">
    <path d="M 60.05 315.16 
L 60.05 27.6 
" style="fill: none; stroke: #000000; stroke-width: 0.8; stroke-linejoin: miter; stroke-linecap: square"/>
   </g>
   <g id="patch_4">
    <path d="M 565.2 315.16 
L 565.2 27.6 
" style="fill: none; stroke: #000000; stroke-width: 0.8; stroke-linejoin: miter; stroke-linecap: square"/>
   </g>
   <g id="patch_5">
    <path d="M 60.05 315.16 
L 565.2 315.16 
" style="fill: none; stroke: #000000; stroke-width: 0.8; stroke-linejoin: miter; stroke-linecap: square"/>
   </g>
   <g id="patch_6">
    <path d="M 60.05 27.6 
L 565.2 27.6 
" style="fill: none; stroke: #000000; stroke-width: 0.8; stroke-linejoin: miter; stroke-linecap: square"/>
   </g>
   <g id="text_17">
    <!-- Voltage Divider Output vs. Temperature -->
    <g transform="translate(173.749375 21.6) scale(0.14 -0.14)">
     <defs>
      <path id="DejaVuSans-6f" d="M 1959 3097 
Q 1497 3097 1228 2736 
Q 959 2375 959 1747 
Q 959 1119 1226 758 
Q 1494 397 1959 397 
Q 2419 397 2687 759 
Q 2956 1122 2956 1747 
Q 2956 2369 2687 2733 
Q 2419 3097 1959 3097 
z
M 1959 3584 
Q 2709 3584 3137 3096 
Q 3566 2609 3566 1747 
Q 3566 888 3137 398 
Q 2709 -91 1959 -91 
Q 1206 -91 779 398 
Q 353 888 353 1747 
Q 353 2609 779 3096 
Q 1206 3584 1959 3584 
z
" transform="scale(0.015625)"/>
      <path id="DejaVuSans-67" d="M 2906 1791 
Q 2906 2416 2648 2759 
Q 2391 3103 1925 3103 
Q 1463 3103 1205 2759 
Q 947 2416 947 1791 
Q 947 1169 1205 825 
Q 1463 481 1925 481 
Q 2391 481 2648 825 
Q 2906 1169 2906 1791 
z
M 3481 434 
Q 3481 -459 3084 -895 
Q 2688 -1331 1869 -1331 
Q 1566 -1331 1297 -1286 
Q 1028 -1241 775 -1147 
L 775 -588 
Q 1028 -725 1275 -790 
Q 1522 -856 1778 -856 
Q 2344 -856 2625 -561 
Q 2906 -266 2906 331 
L 2906 616 
Q 2728 306 2450 153 
Q 2172 0 1784 0 
Q 1141 0 747 490 
Q 353 981 353 1791 
Q 353 2603 747 3093 
Q 1141 3584 1784 3584 
Q 2172 3584 2450 3431 
Q 2728 3278 2906 2969 
L 2906 3500 
L 3481 3500 
L 3481 434 
z
" transform="scale(0.015625)"/>
      <path id="DejaVuSans-76" d="M 191 3500 
L 800 3500 
L 1894 563 
L 2988 3500 
L 3597 3500 
L 2284 0 
L 1503 0 
L 191 3500 
z
" transform="scale(0.015625)"/>
      <path id="DejaVuSans-64" d="M 2906 2969 
L 2906 4863 
L 3481 4863 
L 3481 0 
L 2906 0 
L 2906 525 
Q 2725 213 2448 61 
Q 2172 -91 1784 -91 
Q 1150 -91 751 415 
Q 353 922 353 1747 
Q 353 2572 751 3078 
Q 1150 3584 1784 3584 
Q 2172 3584 2448 3432 
Q 2725 3281 2906 2969 
z
M 947 1747 
Q 947 1113 1208 752 
Q 1469 391 1925 391 
Q 2381 391 2643 752 
Q 2906 1113 2906 1747 
Q 2906 2381 2643 2742 
Q 2381 3103 1925 3103 
Q 1469 3103 1208 2742 
Q 947 2381 947 1747 
z
" transform="scale(0.015625)"/>
      <path id="DejaVuSans-4f" d="M 2522 4238 
Q 1834 4238 1429 3725 
Q 1025 3213 1025 2328 
Q 1025 1447 1429 934 
Q 1834 422 2522 422 
Q 3209 422 3611 934 
Q 4013 1447 4013 2328 
Q 4013 3213 3611 3725 
Q 3209 4238 2522 4238 
z
M 2522 4750 
Q 3503 4750 4090 4092 
Q 4678 3434 4678 2328 
Q 4678 1225 4090 567 
Q 3503 -91 2522 -91 
Q 1538 -91 948 565 
Q 359 1222 359 2328 
Q 359 3434 948 4092 
Q 1538 4750 2522 4750 
z
" transform="scale(0.015625)"/>
      <path id="DejaVuSans-73" d="M 2834 3397 
L 2834 2853 
Q 2591 2978 2328 3040 
Q 2066 3103 1784 3103 
Q 1356 3103 1142 2972 
Q 928 2841 928 2578 
Q 928 2378 1081 2264 
Q 1234 2150 1697 2047 
L 1894 2003 
Q 2506 1872 2764 1633 
Q 3022 1394 3022 966 
Q 3022 478 2636 193 
Q 2250 -91 1575 -91 
Q 1294 -91 989 -36 
Q 684 19 347 128 
L 347 722 
Q 666 556 975 473 
Q 1284 391 1588 391 
Q 1994 391 2212 530 
Q 2431 669 2431 922 
Q 2431 1156 2273 1281 
Q 2116 1406 1581 1522 
L 1381 1569 
Q 847 1681 609 1914 
Q 372 2147 372 2553 
Q 372 3047 722 3315 
Q 1072 3584 1716 3584 
Q 2034 3584 2315 3537 
Q 2597 3491 2834 3397 
z
" transform="scale(0.015625)"/>
      <path id="DejaVuSans-2e" d="M 684 794 
L 1344 794 
L 1344 0 
L 684 0 
L 684 794 
z
" transform="scale(0.015625)"/>
     </defs>
     <use xlink:href="#DejaVuSans-56"/>
     <use xlink:href="#DejaVuSans-6f" transform="translate(60.658203 0)"/>
     <use xlink:href="#DejaVuSans-6c" transform="translate(121.839844 0)"/>
     <use xlink:href="#DejaVuSans-74" transform="translate(149.623047 0)"/>
     <use xlink:href="#DejaVuSans-61" transform="translate(188.832031 0)"/>
     <use xlink:href="#DejaVuSans-67" transform="translate(250.111328 0)"/>
     <use xlink:href="#DejaVuSans-65" transform="translate(313.587891 0)"/>
     <use xlink:href="#DejaVuSans-20" transform="translate(375.111328 0)"/>
     <use xlink:href="#DejaVuSans-44" transform="translate(406.898438 0)"/>
     <use xlink:href="#DejaVuSans-69" transform="translate(483.900391 0)"/>
     <use xlink:href="#DejaVuSans-76" transform="translate(511.683594 0)"/>
     <use xlink:href="#DejaVuSans-69" transform="translate(570.863281 0)"/>
     <use xlink:href="#DejaVuSans-64" transform="translate(598.646484 0)"/>
     <use xlink:href="#DejaVuSans-65" transform="translate(662.123047 0)"/>
     <use xlink:href="#DejaVuSans-72" transform="translate(723.646484 0)"/>
     <use xlink:href="#DejaVuSans-20" transform="translate(764.759766 0)"/>
     <use xlink:href="#DejaVuSans-4f" transform="translate(796.546875 0)"/>
     <use xlink:href="#DejaVuSans-75" transform="translate(875.257812 0)"/>
     <use xlink:href="#DejaVuSans-74" transform="translate(938.636719 0)"/>
     <use xlink:href="#DejaVuSans-70" transform="translate(977.845703 0)"/>
     <use xlink:href="#DejaVuSans-75" transform="translate(1041.322266 0)"/>
     <use xlink:href="#DejaVuSans-74" transform="translate(1104.701172 0)"/>
     <use xlink:href="#DejaVuSans-20" transform="translate(1143.910156 0)"/>
     <use xlink:href="#DejaVuSans-76" transform="translate(1175.697266 0)"/>
     <use xlink:href="#DejaVuSans-73" transform="translate(1234.876953 0)"/>
     <use xlink:href="#DejaVuSans-2e" transform="translate(1286.976562 0)"/>
     <use xlink:href="#DejaVuSans-20" transform="translate(1318.763672 0)"/>
     <use xlink:href="#DejaVuSans-54" transform="translate(1350.550781 0)"/>
     <use xlink:href="#DejaVuSans-65" transform="translate(1394.634766 0)"/>
     <use xlink:href="#DejaVuSans-6d" transform="translate(1456.158203 0)"/>
     <use xlink:href="#DejaVuSans-70" transform="translate(1553.570312 0)"/>
     <use xlink:href="#DejaVuSans-65" transform="translate(1617.046875 0)"/>
     <use xlink:href="#DejaVuSans-72" transform="translate(1678.570312 0)"/>
     <use xlink:href="#DejaVuSans-61" transform="translate(1719.683594 0)"/>
     <use xlink:href="#DejaVuSans-74" transform="translate(1780.962891 0)"/>
     <use xlink:href="#DejaVuSans-75" transform="translate(1820.171875 0)"/>
     <use xlink:href="#DejaVuSans-72" transform="translate(1883.550781 0)"/>
     <use xlink:href="#DejaVuSans-65" transform="translate(1922.414062 0)"/>
    </g>
   </g>
   <g id="legend_1">
    <g id="patch_7">
     <path d="M 411.807812 50.278125 
L 558.2 50.278125 
Q 560.2 50.278125 560.2 48.278125 
L 560.2 34.6 
Q 560.2 32.6 558.2 32.6 
L 411.807812 32.6 
Q 409.807812 32.6 409.807812 34.6 
L 409.807812 48.278125 
Q 409.807812 50.278125 411.807812 50.278125 
z
" style="fill: #ffffff; opacity: 0.8; stroke: #cccccc; stroke-linejoin: miter"/>
    </g>
    <g id="line2d_30">
     <path d="M 413.807812 40.698438 
L 423.807812 40.698438 
L 433.807812 40.698438 
" style="fill: none; stroke: #000080; stroke-width: 1.5; stroke-linecap: square"/>
     <g>
      <use xlink:href="#m2e6d1f82d8" x="423.807812" y="40.698438" style="fill: #000080; stroke: #000080"/>
     </g>
    </g>
    <g id="text_18">
     <!-- Voltage Divider Output -->
     <g transform="translate(441.807812 44.198438) scale(0.1 -0.1)">
      <use xlink:href="#DejaVuSans-56"/>
      <use xlink:href="#DejaVuSans-6f" transform="translate(60.658203 0)"/>
      <use xlink:href="#DejaVuSans-6c" transform="translate(121.839844 0)"/>
      <use xlink:href="#DejaVuSans-74" transform="translate(149.623047 0)"/>
      <use xlink:href="#DejaVuSans-61" transform="translate(188.832031 0)"/>
      <use xlink:href="#DejaVuSans-67" transform="translate(250.111328 0)"/>
      <use xlink:href="#DejaVuSans-65" transform="translate(313.587891 0)"/>
      <use xlink:href="#DejaVuSans-20" transform="translate(375.111328 0)"/>
      <use xlink:href="#DejaVuSans-44" transform="translate(406.898438 0)"/>
      <use xlink:href="#DejaVuSans-69" transform="translate(483.900391 0)"/>
      <use xlink:href="#DejaVuSans-76" transform="translate(511.683594 0)"/>
      <use xlink:href="#DejaVuSans-69" transform="translate(570.863281 0)"/>
      <use xlink:href="#DejaVuSans-64" transform="translate(598.646484 0)"/>
      <use xlink:href="#DejaVuSans-65" transform="translate(662.123047 0)"/>
      <use xlink:href="#DejaVuSans-72" transform="translate(723.646484 0)"/>
      <use xlink:href="#DejaVuSans-20" transform="translate(764.759766 0)"/>
      <use xlink:href="#DejaVuSans-4f" transform="translate(796.546875 0)"/>
      <use xlink:href="#DejaVuSans-75" transform="translate(875.257812 0)"/>
      <use xlink:href="#DejaVuSans-74" transform="translate(938.636719 0)"/>
      <use xlink:href="#DejaVuSans-70" transform="translate(977.845703 0)"/>
      <use xlink:href="#DejaVuSans-75" transform="translate(1041.322266 0)"/>
      <use xlink:href="#DejaVuSans-74" transform="translate(1104.701172 0)"/>
     </g>
    </g>
   </g>
  </g>
 </g>
 <defs>
  <clipPath id="p24d00131a4">
   <rect x="60.05" y="27.6" width="505.15" height="287.56"/>
  </clipPath>
 </defs>
</svg>
