<?xml version="1.0" encoding="utf-8" standalone="no"?>
<!DOCTYPE svg PUBLIC "-//W3C//DTD SVG 1.1//EN"
  "http://www.w3.org/Graphics/SVG/1.1/DTD/svg11.dtd">
<svg xmlns:xlink="http://www.w3.org/1999/xlink" width="648pt" height="432pt" viewBox="0 0 648 432" xmlns="http://www.w3.org/2000/svg" version="1.1">
 <metadata>
  <rdf:RDF xmlns:dc="http://purl.org/dc/elements/1.1/" xmlns:cc="http://creativecommons.org/ns#" xmlns:rdf="http://www.w3.org/1999/02/22-rdf-syntax-ns#">
   <cc:Work>
    <dc:type rdf:resource="http://purl.org/dc/dcmitype/StillImage"/>
    <dc:date>2025-08-06T14:54:59.142384</dc:date>
    <dc:format>image/svg+xml</dc:format>
    <dc:creator>
     <cc:Agent>
      <dc:title>Matplotlib v3.10.1, https://matplotlib.org/</dc:title>
     </cc:Agent>
    </dc:creator>
   </cc:Work>
  </rdf:RDF>
 </metadata>
 <defs>
  <style type="text/css">*{stroke-linejoin: round; stroke-linecap: butt}</style>
 </defs>
 <g id="figure_1">
  <g id="patch_1">
   <path d="M 0 432 
L 648 432 
L 648 0 
L 0 0 
z
" style="fill: #ffffff"/>
  </g>
  <g id="axes_1">
   <g id="patch_2">
    <path d="M 81 384.48 
L 583.2 384.48 
L 583.2 51.84 
L 81 51.84 
z
" style="fill: #ffffff"/>
   </g>
   <g id="matplotlib.axis_1">
    <g id="xtick_1">
     <g id="line2d_1">
      <path d="M 145.331405 384.48 
L 145.331405 51.84 
" clip-path="url(#p638675c3dd)" style="fill: none; stroke-dasharray: 0.8,1.32; stroke-dashoffset: 0; stroke: #b0b0b0; stroke-opacity: 0.7; stroke-width: 0.8"/>
     </g>
     <g id="line2d_2">
      <defs>
       <path id="m6dd11d55e6" d="M 0 0 
L 0 3.5 
" style="stroke: #000000; stroke-width: 0.8"/>
      </defs>
      <g>
       <use xlink:href="#m6dd11d55e6" x="145.331405" y="384.48" style="stroke: #000000; stroke-width: 0.8"/>
      </g>
     </g>
     <g id="text_1">
      <!-- −25 -->
      <g transform="translate(134.779061 399.078438) scale(0.1 -0.1)">
       <defs>
        <path id="DejaVuSans-2212" d="M 678 2272 
L 4684 2272 
L 4684 1741 
L 678 1741 
L 678 2272 
z
" transform="scale(0.015625)"/>
        <path id="DejaVuSans-32" d="M 1228 531 
L 3431 531 
L 3431 0 
L 469 0 
L 469 531 
Q 828 903 1448 1529 
Q 2069 2156 2228 2338 
Q 2531 2678 2651 2914 
Q 2772 3150 2772 3378 
Q 2772 3750 2511 3984 
Q 2250 4219 1831 4219 
Q 1534 4219 1204 4116 
Q 875 4013 500 3803 
L 500 4441 
Q 881 4594 1212 4672 
Q 1544 4750 1819 4750 
Q 2544 4750 2975 4387 
Q 3406 4025 3406 3419 
Q 3406 3131 3298 2873 
Q 3191 2616 2906 2266 
Q 2828 2175 2409 1742 
Q 1991 1309 1228 531 
z
" transform="scale(0.015625)"/>
        <path id="DejaVuSans-35" d="M 691 4666 
L 3169 4666 
L 3169 4134 
L 1269 4134 
L 1269 2991 
Q 1406 3038 1543 3061 
Q 1681 3084 1819 3084 
Q 2600 3084 3056 2656 
Q 3513 2228 3513 1497 
Q 3513 744 3044 326 
Q 2575 -91 1722 -91 
Q 1428 -91 1123 -41 
Q 819 9 494 109 
L 494 744 
Q 775 591 1075 516 
Q 1375 441 1709 441 
Q 2250 441 2565 725 
Q 2881 1009 2881 1497 
Q 2881 1984 2565 2268 
Q 2250 2553 1709 2553 
Q 1456 2553 1204 2497 
Q 953 2441 691 2322 
L 691 4666 
z
" transform="scale(0.015625)"/>
       </defs>
       <use xlink:href="#DejaVuSans-2212"/>
       <use xlink:href="#DejaVuSans-32" transform="translate(83.789062 0)"/>
       <use xlink:href="#DejaVuSans-35" transform="translate(147.412109 0)"/>
      </g>
     </g>
    </g>
    <g id="xtick_2">
     <g id="line2d_3">
      <path d="M 214.504959 384.48 
L 214.504959 51.84 
" clip-path="url(#p638675c3dd)" style="fill: none; stroke-dasharray: 0.8,1.32; stroke-dashoffset: 0; stroke: #b0b0b0; stroke-opacity: 0.7; stroke-width: 0.8"/>
     </g>
     <g id="line2d_4">
      <g>
       <use xlink:href="#m6dd11d55e6" x="214.504959" y="384.48" style="stroke: #000000; stroke-width: 0.8"/>
      </g>
     </g>
     <g id="text_2">
      <!-- 0 -->
      <g transform="translate(211.323709 399.078438) scale(0.1 -0.1)">
       <defs>
        <path id="DejaVuSans-30" d="M 2034 4250 
Q 1547 4250 1301 3770 
Q 1056 3291 1056 2328 
Q 1056 1369 1301 889 
Q 1547 409 2034 409 
Q 2525 409 2770 889 
Q 3016 1369 3016 2328 
Q 3016 3291 2770 3770 
Q 2525 4250 2034 4250 
z
M 2034 4750 
Q 2819 4750 3233 4129 
Q 3647 3509 3647 2328 
Q 3647 1150 3233 529 
Q 2819 -91 2034 -91 
Q 1250 -91 836 529 
Q 422 1150 422 2328 
Q 422 3509 836 4129 
Q 1250 4750 2034 4750 
z
" transform="scale(0.015625)"/>
       </defs>
       <use xlink:href="#DejaVuSans-30"/>
      </g>
     </g>
    </g>
    <g id="xtick_3">
     <g id="line2d_5">
      <path d="M 283.678512 384.48 
L 283.678512 51.84 
" clip-path="url(#p638675c3dd)" style="fill: none; stroke-dasharray: 0.8,1.32; stroke-dashoffset: 0; stroke: #b0b0b0; stroke-opacity: 0.7; stroke-width: 0.8"/>
     </g>
     <g id="line2d_6">
      <g>
       <use xlink:href="#m6dd11d55e6" x="283.678512" y="384.48" style="stroke: #000000; stroke-width: 0.8"/>
      </g>
     </g>
     <g id="text_3">
      <!-- 25 -->
      <g transform="translate(277.316012 399.078438) scale(0.1 -0.1)">
       <use xlink:href="#DejaVuSans-32"/>
       <use xlink:href="#DejaVuSans-35" transform="translate(63.623047 0)"/>
      </g>
     </g>
    </g>
    <g id="xtick_4">
     <g id="line2d_7">
      <path d="M 352.852066 384.48 
L 352.852066 51.84 
" clip-path="url(#p638675c3dd)" style="fill: none; stroke-dasharray: 0.8,1.32; stroke-dashoffset: 0; stroke: #b0b0b0; stroke-opacity: 0.7; stroke-width: 0.8"/>
     </g>
     <g id="line2d_8">
      <g>
       <use xlink:href="#m6dd11d55e6" x="352.852066" y="384.48" style="stroke: #000000; stroke-width: 0.8"/>
      </g>
     </g>
     <g id="text_4">
      <!-- 50 -->
      <g transform="translate(346.489566 399.078438) scale(0.1 -0.1)">
       <use xlink:href="#DejaVuSans-35"/>
       <use xlink:href="#DejaVuSans-30" transform="translate(63.623047 0)"/>
      </g>
     </g>
    </g>
    <g id="xtick_5">
     <g id="line2d_9">
      <path d="M 422.02562 384.48 
L 422.02562 51.84 
" clip-path="url(#p638675c3dd)" style="fill: none; stroke-dasharray: 0.8,1.32; stroke-dashoffset: 0; stroke: #b0b0b0; stroke-opacity: 0.7; stroke-width: 0.8"/>
     </g>
     <g id="line2d_10">
      <g>
       <use xlink:href="#m6dd11d55e6" x="422.02562" y="384.48" style="stroke: #000000; stroke-width: 0.8"/>
      </g>
     </g>
     <g id="text_5">
      <!-- 75 -->
      <g transform="translate(415.66312 399.078438) scale(0.1 -0.1)">
       <defs>
        <path id="DejaVuSans-37" d="M 525 4666 
L 3525 4666 
L 3525 4397 
L 1831 0 
L 1172 0 
L 2766 4134 
L 525 4134 
L 525 4666 
z
" transform="scale(0.015625)"/>
       </defs>
       <use xlink:href="#DejaVuSans-37"/>
       <use xlink:href="#DejaVuSans-35" transform="translate(63.623047 0)"/>
      </g>
     </g>
    </g>
    <g id="xtick_6">
     <g id="line2d_11">
      <path d="M 491.199174 384.48 
L 491.199174 51.84 
" clip-path="url(#p638675c3dd)" style="fill: none; stroke-dasharray: 0.8,1.32; stroke-dashoffset: 0; stroke: #b0b0b0; stroke-opacity: 0.7; stroke-width: 0.8"/>
     </g>
     <g id="line2d_12">
      <g>
       <use xlink:href="#m6dd11d55e6" x="491.199174" y="384.48" style="stroke: #000000; stroke-width: 0.8"/>
      </g>
     </g>
     <g id="text_6">
      <!-- 100 -->
      <g transform="translate(481.655424 399.078438) scale(0.1 -0.1)">
       <defs>
        <path id="DejaVuSans-31" d="M 794 531 
L 1825 531 
L 1825 4091 
L 703 3866 
L 703 4441 
L 1819 4666 
L 2450 4666 
L 2450 531 
L 3481 531 
L 3481 0 
L 794 0 
L 794 531 
z
" transform="scale(0.015625)"/>
       </defs>
       <use xlink:href="#DejaVuSans-31"/>
       <use xlink:href="#DejaVuSans-30" transform="translate(63.623047 0)"/>
       <use xlink:href="#DejaVuSans-30" transform="translate(127.246094 0)"/>
      </g>
     </g>
    </g>
    <g id="xtick_7">
     <g id="line2d_13">
      <path d="M 560.372727 384.48 
L 560.372727 51.84 
" clip-path="url(#p638675c3dd)" style="fill: none; stroke-dasharray: 0.8,1.32; stroke-dashoffset: 0; stroke: #b0b0b0; stroke-opacity: 0.7; stroke-width: 0.8"/>
     </g>
     <g id="line2d_14">
      <g>
       <use xlink:href="#m6dd11d55e6" x="560.372727" y="384.48" style="stroke: #000000; stroke-width: 0.8"/>
      </g>
     </g>
     <g id="text_7">
      <!-- 125 -->
      <g transform="translate(550.828977 399.078438) scale(0.1 -0.1)">
       <use xlink:href="#DejaVuSans-31"/>
       <use xlink:href="#DejaVuSans-32" transform="translate(63.623047 0)"/>
       <use xlink:href="#DejaVuSans-35" transform="translate(127.246094 0)"/>
      </g>
     </g>
    </g>
    <g id="text_8">
     <!-- Temperature (°C) -->
     <g transform="translate(280.318125 414.27625) scale(0.12 -0.12)">
      <defs>
       <path id="DejaVuSans-54" d="M -19 4666 
L 3928 4666 
L 3928 4134 
L 2272 4134 
L 2272 0 
L 1638 0 
L 1638 4134 
L -19 4134 
L -19 4666 
z
" transform="scale(0.015625)"/>
       <path id="DejaVuSans-65" d="M 3597 1894 
L 3597 1613 
L 953 1613 
Q 991 1019 1311 708 
Q 1631 397 2203 397 
Q 2534 397 2845 478 
Q 3156 559 3463 722 
L 3463 178 
Q 3153 47 2828 -22 
Q 2503 -91 2169 -91 
Q 1331 -91 842 396 
Q 353 884 353 1716 
Q 353 2575 817 3079 
Q 1281 3584 2069 3584 
Q 2775 3584 3186 3129 
Q 3597 2675 3597 1894 
z
M 3022 2063 
Q 3016 2534 2758 2815 
Q 2500 3097 2075 3097 
Q 1594 3097 1305 2825 
Q 1016 2553 972 2059 
L 3022 2063 
z
" transform="scale(0.015625)"/>
       <path id="DejaVuSans-6d" d="M 3328 2828 
Q 3544 3216 3844 3400 
Q 4144 3584 4550 3584 
Q 5097 3584 5394 3201 
Q 5691 2819 5691 2113 
L 5691 0 
L 5113 0 
L 5113 2094 
Q 5113 2597 4934 2840 
Q 4756 3084 4391 3084 
Q 3944 3084 3684 2787 
Q 3425 2491 3425 1978 
L 3425 0 
L 2847 0 
L 2847 2094 
Q 2847 2600 2669 2842 
Q 2491 3084 2119 3084 
Q 1678 3084 1418 2786 
Q 1159 2488 1159 1978 
L 1159 0 
L 581 0 
L 581 3500 
L 1159 3500 
L 1159 2956 
Q 1356 3278 1631 3431 
Q 1906 3584 2284 3584 
Q 2666 3584 2933 3390 
Q 3200 3197 3328 2828 
z
" transform="scale(0.015625)"/>
       <path id="DejaVuSans-70" d="M 1159 525 
L 1159 -1331 
L 581 -1331 
L 581 3500 
L 1159 3500 
L 1159 2969 
Q 1341 3281 1617 3432 
Q 1894 3584 2278 3584 
Q 2916 3584 3314 3078 
Q 3713 2572 3713 1747 
Q 3713 922 3314 415 
Q 2916 -91 2278 -91 
Q 1894 -91 1617 61 
Q 1341 213 1159 525 
z
M 3116 1747 
Q 3116 2381 2855 2742 
Q 2594 3103 2138 3103 
Q 1681 3103 1420 2742 
Q 1159 2381 1159 1747 
Q 1159 1113 1420 752 
Q 1681 391 2138 391 
Q 2594 391 2855 752 
Q 3116 1113 3116 1747 
z
" transform="scale(0.015625)"/>
       <path id="DejaVuSans-72" d="M 2631 2963 
Q 2534 3019 2420 3045 
Q 2306 3072 2169 3072 
Q 1681 3072 1420 2755 
Q 1159 2438 1159 1844 
L 1159 0 
L 581 0 
L 581 3500 
L 1159 3500 
L 1159 2956 
Q 1341 3275 1631 3429 
Q 1922 3584 2338 3584 
Q 2397 3584 2469 3576 
Q 2541 3569 2628 3553 
L 2631 2963 
z
" transform="scale(0.015625)"/>
       <path id="DejaVuSans-61" d="M 2194 1759 
Q 1497 1759 1228 1600 
Q 959 1441 959 1056 
Q 959 750 1161 570 
Q 1363 391 1709 391 
Q 2188 391 2477 730 
Q 2766 1069 2766 1631 
L 2766 1759 
L 2194 1759 
z
M 3341 1997 
L 3341 0 
L 2766 0 
L 2766 531 
Q 2569 213 2275 61 
Q 1981 -91 1556 -91 
Q 1019 -91 701 211 
Q 384 513 384 1019 
Q 384 1609 779 1909 
Q 1175 2209 1959 2209 
L 2766 2209 
L 2766 2266 
Q 2766 2663 2505 2880 
Q 2244 3097 1772 3097 
Q 1472 3097 1187 3025 
Q 903 2953 641 2809 
L 641 3341 
Q 956 3463 1253 3523 
Q 1550 3584 1831 3584 
Q 2591 3584 2966 3190 
Q 3341 2797 3341 1997 
z
" transform="scale(0.015625)"/>
       <path id="DejaVuSans-74" d="M 1172 4494 
L 1172 3500 
L 2356 3500 
L 2356 3053 
L 1172 3053 
L 1172 1153 
Q 1172 725 1289 603 
Q 1406 481 1766 481 
L 2356 481 
L 2356 0 
L 1766 0 
Q 1100 0 847 248 
Q 594 497 594 1153 
L 594 3053 
L 172 3053 
L 172 3500 
L 594 3500 
L 594 4494 
L 1172 4494 
z
" transform="scale(0.015625)"/>
       <path id="DejaVuSans-75" d="M 544 1381 
L 544 3500 
L 1119 3500 
L 1119 1403 
Q 1119 906 1312 657 
Q 1506 409 1894 409 
Q 2359 409 2629 706 
Q 2900 1003 2900 1516 
L 2900 3500 
L 3475 3500 
L 3475 0 
L 2900 0 
L 2900 538 
Q 2691 219 2414 64 
Q 2138 -91 1772 -91 
Q 1169 -91 856 284 
Q 544 659 544 1381 
z
M 1991 3584 
L 1991 3584 
z
" transform="scale(0.015625)"/>
       <path id="DejaVuSans-20" transform="scale(0.015625)"/>
       <path id="DejaVuSans-28" d="M 1984 4856 
Q 1566 4138 1362 3434 
Q 1159 2731 1159 2009 
Q 1159 1288 1364 580 
Q 1569 -128 1984 -844 
L 1484 -844 
Q 1016 -109 783 600 
Q 550 1309 550 2009 
Q 550 2706 781 3412 
Q 1013 4119 1484 4856 
L 1984 4856 
z
" transform="scale(0.015625)"/>
       <path id="DejaVuSans-b0" d="M 1600 4347 
Q 1350 4347 1178 4173 
Q 1006 4000 1006 3750 
Q 1006 3503 1178 3333 
Q 1350 3163 1600 3163 
Q 1850 3163 2022 3333 
Q 2194 3503 2194 3750 
Q 2194 3997 2020 4172 
Q 1847 4347 1600 4347 
z
M 1600 4750 
Q 1800 4750 1984 4673 
Q 2169 4597 2303 4453 
Q 2447 4313 2519 4134 
Q 2591 3956 2591 3750 
Q 2591 3338 2302 3052 
Q 2013 2766 1594 2766 
Q 1172 2766 890 3047 
Q 609 3328 609 3750 
Q 609 4169 896 4459 
Q 1184 4750 1600 4750 
z
" transform="scale(0.015625)"/>
       <path id="DejaVuSans-43" d="M 4122 4306 
L 4122 3641 
Q 3803 3938 3442 4084 
Q 3081 4231 2675 4231 
Q 1875 4231 1450 3742 
Q 1025 3253 1025 2328 
Q 1025 1406 1450 917 
Q 1875 428 2675 428 
Q 3081 428 3442 575 
Q 3803 722 4122 1019 
L 4122 359 
Q 3791 134 3420 21 
Q 3050 -91 2638 -91 
Q 1578 -91 968 557 
Q 359 1206 359 2328 
Q 359 3453 968 4101 
Q 1578 4750 2638 4750 
Q 3056 4750 3426 4639 
Q 3797 4528 4122 4306 
z
" transform="scale(0.015625)"/>
       <path id="DejaVuSans-29" d="M 513 4856 
L 1013 4856 
Q 1481 4119 1714 3412 
Q 1947 2706 1947 2009 
Q 1947 1309 1714 600 
Q 1481 -109 1013 -844 
L 513 -844 
Q 928 -128 1133 580 
Q 1338 1288 1338 2009 
Q 1338 2731 1133 3434 
Q 928 4138 513 4856 
z
" transform="scale(0.015625)"/>
      </defs>
      <use xlink:href="#DejaVuSans-54"/>
      <use xlink:href="#DejaVuSans-65" transform="translate(44.083984 0)"/>
      <use xlink:href="#DejaVuSans-6d" transform="translate(105.607422 0)"/>
      <use xlink:href="#DejaVuSans-70" transform="translate(203.019531 0)"/>
      <use xlink:href="#DejaVuSans-65" transform="translate(266.496094 0)"/>
      <use xlink:href="#DejaVuSans-72" transform="translate(328.019531 0)"/>
      <use xlink:href="#DejaVuSans-61" transform="translate(369.132812 0)"/>
      <use xlink:href="#DejaVuSans-74" transform="translate(430.412109 0)"/>
      <use xlink:href="#DejaVuSans-75" transform="translate(469.621094 0)"/>
      <use xlink:href="#DejaVuSans-72" transform="translate(533 0)"/>
      <use xlink:href="#DejaVuSans-65" transform="translate(571.863281 0)"/>
      <use xlink:href="#DejaVuSans-20" transform="translate(633.386719 0)"/>
      <use xlink:href="#DejaVuSans-28" transform="translate(665.173828 0)"/>
      <use xlink:href="#DejaVuSans-b0" transform="translate(704.1875 0)"/>
      <use xlink:href="#DejaVuSans-43" transform="translate(754.1875 0)"/>
      <use xlink:href="#DejaVuSans-29" transform="translate(824.011719 0)"/>
     </g>
    </g>
   </g>
   <g id="matplotlib.axis_2">
    <g id="ytick_1">
     <g id="line2d_15">
      <path d="M 81 337.560474 
L 583.2 337.560474 
" clip-path="url(#p638675c3dd)" style="fill: none; stroke-dasharray: 0.8,1.32; stroke-dashoffset: 0; stroke: #b0b0b0; stroke-opacity: 0.7; stroke-width: 0.8"/>
     </g>
     <g id="line2d_16">
      <defs>
       <path id="m8653894df5" d="M 0 0 
L -3.5 0 
" style="stroke: #000000; stroke-width: 0.8"/>
      </defs>
      <g>
       <use xlink:href="#m8653894df5" x="81" y="337.560474" style="stroke: #000000; stroke-width: 0.8"/>
      </g>
     </g>
     <g id="text_9">
      <!-- −1.0 -->
      <g transform="translate(49.717187 341.359692) scale(0.1 -0.1)">
       <defs>
        <path id="DejaVuSans-2e" d="M 684 794 
L 1344 794 
L 1344 0 
L 684 0 
L 684 794 
z
" transform="scale(0.015625)"/>
       </defs>
       <use xlink:href="#DejaVuSans-2212"/>
       <use xlink:href="#DejaVuSans-31" transform="translate(83.789062 0)"/>
       <use xlink:href="#DejaVuSans-2e" transform="translate(147.412109 0)"/>
       <use xlink:href="#DejaVuSans-30" transform="translate(179.199219 0)"/>
      </g>
     </g>
    </g>
    <g id="ytick_2">
     <g id="line2d_17">
      <path d="M 81 275.379234 
L 583.2 275.379234 
" clip-path="url(#p638675c3dd)" style="fill: none; stroke-dasharray: 0.8,1.32; stroke-dashoffset: 0; stroke: #b0b0b0; stroke-opacity: 0.7; stroke-width: 0.8"/>
     </g>
     <g id="line2d_18">
      <g>
       <use xlink:href="#m8653894df5" x="81" y="275.379234" style="stroke: #000000; stroke-width: 0.8"/>
      </g>
     </g>
     <g id="text_10">
      <!-- −0.5 -->
      <g transform="translate(49.717187 279.178453) scale(0.1 -0.1)">
       <use xlink:href="#DejaVuSans-2212"/>
       <use xlink:href="#DejaVuSans-30" transform="translate(83.789062 0)"/>
       <use xlink:href="#DejaVuSans-2e" transform="translate(147.412109 0)"/>
       <use xlink:href="#DejaVuSans-35" transform="translate(179.199219 0)"/>
      </g>
     </g>
    </g>
    <g id="ytick_3">
     <g id="line2d_19">
      <path d="M 81 213.197995 
L 583.2 213.197995 
" clip-path="url(#p638675c3dd)" style="fill: none; stroke-dasharray: 0.8,1.32; stroke-dashoffset: 0; stroke: #b0b0b0; stroke-opacity: 0.7; stroke-width: 0.8"/>
     </g>
     <g id="line2d_20">
      <g>
       <use xlink:href="#m8653894df5" x="81" y="213.197995" style="stroke: #000000; stroke-width: 0.8"/>
      </g>
     </g>
     <g id="text_11">
      <!-- 0.0 -->
      <g transform="translate(58.096875 216.997214) scale(0.1 -0.1)">
       <use xlink:href="#DejaVuSans-30"/>
       <use xlink:href="#DejaVuSans-2e" transform="translate(63.623047 0)"/>
       <use xlink:href="#DejaVuSans-30" transform="translate(95.410156 0)"/>
      </g>
     </g>
    </g>
    <g id="ytick_4">
     <g id="line2d_21">
      <path d="M 81 151.016756 
L 583.2 151.016756 
" clip-path="url(#p638675c3dd)" style="fill: none; stroke-dasharray: 0.8,1.32; stroke-dashoffset: 0; stroke: #b0b0b0; stroke-opacity: 0.7; stroke-width: 0.8"/>
     </g>
     <g id="line2d_22">
      <g>
       <use xlink:href="#m8653894df5" x="81" y="151.016756" style="stroke: #000000; stroke-width: 0.8"/>
      </g>
     </g>
     <g id="text_12">
      <!-- 0.5 -->
      <g transform="translate(58.096875 154.815974) scale(0.1 -0.1)">
       <use xlink:href="#DejaVuSans-30"/>
       <use xlink:href="#DejaVuSans-2e" transform="translate(63.623047 0)"/>
       <use xlink:href="#DejaVuSans-35" transform="translate(95.410156 0)"/>
      </g>
     </g>
    </g>
    <g id="ytick_5">
     <g id="line2d_23">
      <path d="M 81 88.835516 
L 583.2 88.835516 
" clip-path="url(#p638675c3dd)" style="fill: none; stroke-dasharray: 0.8,1.32; stroke-dashoffset: 0; stroke: #b0b0b0; stroke-opacity: 0.7; stroke-width: 0.8"/>
     </g>
     <g id="line2d_24">
      <g>
       <use xlink:href="#m8653894df5" x="81" y="88.835516" style="stroke: #000000; stroke-width: 0.8"/>
      </g>
     </g>
     <g id="text_13">
      <!-- 1.0 -->
      <g transform="translate(58.096875 92.634735) scale(0.1 -0.1)">
       <use xlink:href="#DejaVuSans-31"/>
       <use xlink:href="#DejaVuSans-2e" transform="translate(63.623047 0)"/>
       <use xlink:href="#DejaVuSans-30" transform="translate(95.410156 0)"/>
      </g>
     </g>
    </g>
    <g id="text_14">
     <!-- Difference From Nominal (°C) -->
     <g transform="translate(43.221562 306.452812) rotate(-90) scale(0.12 -0.12)">
      <defs>
       <path id="DejaVuSans-44" d="M 1259 4147 
L 1259 519 
L 2022 519 
Q 2988 519 3436 956 
Q 3884 1394 3884 2338 
Q 3884 3275 3436 3711 
Q 2988 4147 2022 4147 
L 1259 4147 
z
M 628 4666 
L 1925 4666 
Q 3281 4666 3915 4102 
Q 4550 3538 4550 2338 
Q 4550 1131 3912 565 
Q 3275 0 1925 0 
L 628 0 
L 628 4666 
z
" transform="scale(0.015625)"/>
       <path id="DejaVuSans-69" d="M 603 3500 
L 1178 3500 
L 1178 0 
L 603 0 
L 603 3500 
z
M 603 4863 
L 1178 4863 
L 1178 4134 
L 603 4134 
L 603 4863 
z
" transform="scale(0.015625)"/>
       <path id="DejaVuSans-66" d="M 2375 4863 
L 2375 4384 
L 1825 4384 
Q 1516 4384 1395 4259 
Q 1275 4134 1275 3809 
L 1275 3500 
L 2222 3500 
L 2222 3053 
L 1275 3053 
L 1275 0 
L 697 0 
L 697 3053 
L 147 3053 
L 147 3500 
L 697 3500 
L 697 3744 
Q 697 4328 969 4595 
Q 1241 4863 1831 4863 
L 2375 4863 
z
" transform="scale(0.015625)"/>
       <path id="DejaVuSans-6e" d="M 3513 2113 
L 3513 0 
L 2938 0 
L 2938 2094 
Q 2938 2591 2744 2837 
Q 2550 3084 2163 3084 
Q 1697 3084 1428 2787 
Q 1159 2491 1159 1978 
L 1159 0 
L 581 0 
L 581 3500 
L 1159 3500 
L 1159 2956 
Q 1366 3272 1645 3428 
Q 1925 3584 2291 3584 
Q 2894 3584 3203 3211 
Q 3513 2838 3513 2113 
z
" transform="scale(0.015625)"/>
       <path id="DejaVuSans-63" d="M 3122 3366 
L 3122 2828 
Q 2878 2963 2633 3030 
Q 2388 3097 2138 3097 
Q 1578 3097 1268 2742 
Q 959 2388 959 1747 
Q 959 1106 1268 751 
Q 1578 397 2138 397 
Q 2388 397 2633 464 
Q 2878 531 3122 666 
L 3122 134 
Q 2881 22 2623 -34 
Q 2366 -91 2075 -91 
Q 1284 -91 818 406 
Q 353 903 353 1747 
Q 353 2603 823 3093 
Q 1294 3584 2113 3584 
Q 2378 3584 2631 3529 
Q 2884 3475 3122 3366 
z
" transform="scale(0.015625)"/>
       <path id="DejaVuSans-46" d="M 628 4666 
L 3309 4666 
L 3309 4134 
L 1259 4134 
L 1259 2759 
L 3109 2759 
L 3109 2228 
L 1259 2228 
L 1259 0 
L 628 0 
L 628 4666 
z
" transform="scale(0.015625)"/>
       <path id="DejaVuSans-6f" d="M 1959 3097 
Q 1497 3097 1228 2736 
Q 959 2375 959 1747 
Q 959 1119 1226 758 
Q 1494 397 1959 397 
Q 2419 397 2687 759 
Q 2956 1122 2956 1747 
Q 2956 2369 2687 2733 
Q 2419 3097 1959 3097 
z
M 1959 3584 
Q 2709 3584 3137 3096 
Q 3566 2609 3566 1747 
Q 3566 888 3137 398 
Q 2709 -91 1959 -91 
Q 1206 -91 779 398 
Q 353 888 353 1747 
Q 353 2609 779 3096 
Q 1206 3584 1959 3584 
z
" transform="scale(0.015625)"/>
       <path id="DejaVuSans-4e" d="M 628 4666 
L 1478 4666 
L 3547 763 
L 3547 4666 
L 4159 4666 
L 4159 0 
L 3309 0 
L 1241 3903 
L 1241 0 
L 628 0 
L 628 4666 
z
" transform="scale(0.015625)"/>
       <path id="DejaVuSans-6c" d="M 603 4863 
L 1178 4863 
L 1178 0 
L 603 0 
L 603 4863 
z
" transform="scale(0.015625)"/>
      </defs>
      <use xlink:href="#DejaVuSans-44"/>
      <use xlink:href="#DejaVuSans-69" transform="translate(77.001953 0)"/>
      <use xlink:href="#DejaVuSans-66" transform="translate(104.785156 0)"/>
      <use xlink:href="#DejaVuSans-66" transform="translate(139.990234 0)"/>
      <use xlink:href="#DejaVuSans-65" transform="translate(175.195312 0)"/>
      <use xlink:href="#DejaVuSans-72" transform="translate(236.71875 0)"/>
      <use xlink:href="#DejaVuSans-65" transform="translate(275.582031 0)"/>
      <use xlink:href="#DejaVuSans-6e" transform="translate(337.105469 0)"/>
      <use xlink:href="#DejaVuSans-63" transform="translate(400.484375 0)"/>
      <use xlink:href="#DejaVuSans-65" transform="translate(455.464844 0)"/>
      <use xlink:href="#DejaVuSans-20" transform="translate(516.988281 0)"/>
      <use xlink:href="#DejaVuSans-46" transform="translate(548.775391 0)"/>
      <use xlink:href="#DejaVuSans-72" transform="translate(599.044922 0)"/>
      <use xlink:href="#DejaVuSans-6f" transform="translate(637.908203 0)"/>
      <use xlink:href="#DejaVuSans-6d" transform="translate(699.089844 0)"/>
      <use xlink:href="#DejaVuSans-20" transform="translate(796.501953 0)"/>
      <use xlink:href="#DejaVuSans-4e" transform="translate(828.289062 0)"/>
      <use xlink:href="#DejaVuSans-6f" transform="translate(903.09375 0)"/>
      <use xlink:href="#DejaVuSans-6d" transform="translate(964.275391 0)"/>
      <use xlink:href="#DejaVuSans-69" transform="translate(1061.6875 0)"/>
      <use xlink:href="#DejaVuSans-6e" transform="translate(1089.470703 0)"/>
      <use xlink:href="#DejaVuSans-61" transform="translate(1152.849609 0)"/>
      <use xlink:href="#DejaVuSans-6c" transform="translate(1214.128906 0)"/>
      <use xlink:href="#DejaVuSans-20" transform="translate(1241.912109 0)"/>
      <use xlink:href="#DejaVuSans-28" transform="translate(1273.699219 0)"/>
      <use xlink:href="#DejaVuSans-b0" transform="translate(1312.712891 0)"/>
      <use xlink:href="#DejaVuSans-43" transform="translate(1362.712891 0)"/>
      <use xlink:href="#DejaVuSans-29" transform="translate(1432.537109 0)"/>
     </g>
    </g>
   </g>
   <g id="line2d_25">
    <path d="M 103.827273 160.315373 
L 106.594215 160.486849 
L 109.361157 162.149075 
L 112.128099 161.588219 
L 114.895041 162.601003 
L 117.661983 162.456637 
L 120.428926 164.094473 
L 123.195868 162.774436 
L 125.96281 163.260336 
L 128.729752 164.02712 
L 131.496694 165.064834 
L 134.263636 164.311475 
L 139.797521 166.225604 
L 142.564463 166.745244 
L 145.331405 166.968647 
L 148.098347 167.674273 
L 153.632231 168.28116 
L 156.399174 169.054447 
L 159.166116 169.373424 
L 161.933058 169.881406 
L 164.7 170.20623 
L 167.466942 171.134107 
L 170.233884 171.427981 
L 173.000826 172.367669 
L 175.767769 172.571707 
L 178.534711 173.442431 
L 181.301653 173.456734 
L 184.068595 174.171119 
L 186.835537 174.487221 
L 189.602479 174.963933 
L 192.369421 175.610591 
L 195.136364 176.448034 
L 197.903306 177.486417 
L 200.670248 177.182046 
L 203.43719 178.596362 
L 208.971074 178.568229 
L 211.738017 179.670755 
L 214.504959 180.972546 
L 217.271901 180.391832 
L 220.038843 180.958042 
L 222.805785 181.672283 
L 225.572727 182.550658 
L 228.339669 183.5942 
L 231.106612 184.835654 
L 236.640496 184.947288 
L 239.407438 185.132245 
L 242.17438 187.043415 
L 247.708264 188.065491 
L 250.475207 188.731002 
L 253.242149 189.544705 
L 256.009091 188.427452 
L 258.776033 189.422876 
L 261.542975 190.58241 
L 264.309917 191.899417 
L 267.07686 190.900965 
L 269.843802 195.061578 
L 272.610744 194.234995 
L 275.377686 196.199653 
L 278.144628 195.418288 
L 280.91157 197.716351 
L 283.678512 197.02183 
L 289.212397 194.82959 
L 291.979339 194.011092 
L 294.746281 192.773704 
L 303.047107 189.96202 
L 305.81405 189.408389 
L 311.347934 187.309899 
L 316.881818 185.046897 
L 319.64876 184.417807 
L 325.182645 181.944469 
L 327.949587 180.63366 
L 333.483471 179.259576 
L 339.017355 176.410303 
L 341.784298 174.909697 
L 344.55124 174.979946 
L 347.318182 173.435002 
L 350.085124 172.713525 
L 352.852066 171.091419 
L 355.619008 170.368017 
L 358.38595 168.665769 
L 361.152893 167.943237 
L 363.919835 166.15608 
L 366.686777 165.43569 
L 369.453719 163.573575 
L 372.220661 162.855107 
L 374.987603 160.912489 
L 380.521488 159.513137 
L 383.28843 157.477148 
L 388.822314 156.184396 
L 391.589256 155.61036 
L 397.12314 151.240499 
L 402.657025 150.192457 
L 405.423967 147.896033 
L 408.190909 147.429721 
L 410.957851 145.067774 
L 416.491736 144.362952 
L 419.258678 141.912616 
L 422.02562 141.673565 
L 427.559504 136.528468 
L 430.326446 136.363185 
L 433.093388 133.687245 
L 435.860331 133.667025 
L 438.627273 130.91278 
L 441.394215 131.011631 
L 444.161157 128.195119 
L 449.695041 128.794662 
L 455.228926 122.98288 
L 457.995868 123.549973 
L 460.76281 120.593668 
L 463.529752 121.327337 
L 466.296694 118.31005 
L 469.063636 119.240769 
L 471.830579 116.180042 
L 474.597521 117.342252 
L 477.364463 109.705119 
L 480.131405 110.990409 
L 482.898347 107.763096 
L 485.665289 104.343404 
L 491.199174 107.834479 
L 493.966116 99.043133 
L 496.733058 101.07261 
L 499.5 97.543231 
L 502.266942 99.854184 
L 505.033884 96.426974 
L 507.800826 99.057768 
L 510.567769 95.598668 
L 516.101653 88.270687 
L 518.868595 91.645936 
L 521.635537 87.981934 
L 527.169421 80.247193 
L 529.936364 84.344605 
L 532.703306 80.534559 
L 538.23719 72.534994 
L 541.004132 77.529249 
L 543.771074 73.383774 
L 546.538017 79.034483 
L 554.838843 66.96 
L 557.605785 73.517068 
L 560.372727 69.586584 
L 560.372727 69.586584 
" clip-path="url(#p638675c3dd)" style="fill: none; stroke: #1f77b4; stroke-width: 1.5; stroke-linecap: square"/>
   </g>
   <g id="line2d_26">
    <path d="M 103.827273 265.623876 
L 106.594215 264.417537 
L 109.361157 265.244282 
L 112.128099 264.6657 
L 114.895041 263.796466 
L 117.661983 262.59295 
L 120.428926 262.571474 
L 123.195868 262.309588 
L 125.96281 261.857233 
L 128.729752 261.13725 
L 131.496694 262.090348 
L 134.263636 260.883193 
L 137.030579 259.344297 
L 139.797521 259.995488 
L 142.564463 259.561524 
L 145.331405 258.896369 
L 148.098347 258.532619 
L 153.632231 257.451083 
L 156.399174 257.382169 
L 159.166116 256.795769 
L 161.933058 256.353572 
L 164.7 255.70608 
L 167.466942 255.246199 
L 170.233884 255.014375 
L 173.000826 254.613999 
L 175.767769 253.545735 
L 178.534711 253.240129 
L 181.301653 252.756143 
L 184.068595 252.100473 
L 186.835537 251.829964 
L 189.602479 250.784413 
L 192.369421 250.817871 
L 195.136364 250.046551 
L 197.903306 249.80779 
L 200.670248 248.653251 
L 203.43719 248.895702 
L 206.204132 248.198275 
L 208.971074 246.427373 
L 214.504959 245.974433 
L 217.271901 245.555707 
L 220.038843 245.007459 
L 222.805785 244.314539 
L 225.572727 243.460923 
L 228.339669 243.708864 
L 231.106612 242.562001 
L 233.873554 242.613855 
L 236.640496 241.129813 
L 242.17438 240.691318 
L 244.941322 238.636061 
L 247.708264 238.083975 
L 250.475207 239.287449 
L 253.242149 236.635485 
L 256.009091 235.697668 
L 258.776033 234.624751 
L 261.542975 233.386249 
L 264.309917 234.325661 
L 267.07686 232.861254 
L 269.843802 233.775336 
L 272.610744 232.027842 
L 275.377686 232.89498 
L 278.144628 230.862013 
L 280.91157 231.660863 
L 283.678512 229.279484 
L 286.445455 230.334392 
L 291.979339 231.888964 
L 294.746281 233.0939 
L 303.047107 235.813878 
L 305.81405 237.244719 
L 311.347934 239.349591 
L 316.881818 241.616775 
L 319.64876 242.258008 
L 322.415702 243.475096 
L 325.182645 244.129644 
L 330.716529 246.745084 
L 333.483471 248.125904 
L 341.784298 250.253276 
L 344.55124 252.551254 
L 347.318182 253.294759 
L 350.085124 254.897462 
L 355.619008 256.395142 
L 358.38595 258.091685 
L 363.919835 259.56966 
L 366.686777 261.360081 
L 374.987603 263.458454 
L 380.521488 267.350513 
L 383.28843 268.016363 
L 386.055372 270.086295 
L 388.822314 270.740803 
L 391.589256 272.873006 
L 397.12314 274.071512 
L 399.890083 276.306493 
L 405.423967 277.316127 
L 408.190909 279.653675 
L 410.957851 280.054287 
L 413.724793 282.450715 
L 419.258678 283.111933 
L 424.792562 288.138947 
L 427.559504 288.308161 
L 430.326446 290.958189 
L 433.093388 291.050431 
L 435.860331 293.735326 
L 438.627273 293.726782 
L 441.394215 296.482797 
L 444.161157 296.347092 
L 446.928099 299.156574 
L 449.695041 298.933719 
L 452.461983 301.778309 
L 455.228926 301.370239 
L 457.995868 304.303836 
L 460.76281 303.672772 
L 463.529752 306.680162 
L 466.296694 305.873873 
L 469.063636 308.940681 
L 471.830579 307.927928 
L 474.597521 315.236126 
L 477.364463 314.117307 
L 480.131405 317.382172 
L 485.665289 314.489481 
L 488.432231 317.667167 
L 491.199174 321.032971 
L 493.966116 319.096169 
L 499.5 325.77246 
L 502.266942 329.328179 
L 505.033884 326.86022 
L 510.567769 333.947077 
L 513.334711 331.15382 
L 516.101653 334.642014 
L 518.868595 338.32419 
L 521.635537 334.948437 
L 529.936364 346.148797 
L 532.703306 342.051385 
L 535.470248 345.861431 
L 538.23719 341.218175 
L 541.004132 344.940888 
L 543.771074 357.769406 
L 546.538017 352.728662 
L 552.071901 360.772954 
L 554.838843 354.990964 
L 557.605785 369.36 
L 560.372727 363.110982 
L 560.372727 363.110982 
" clip-path="url(#p638675c3dd)" style="fill: none; stroke: #ff7f0e; stroke-width: 1.5; stroke-linecap: square"/>
   </g>
   <g id="patch_3">
    <path d="M 81 384.48 
L 81 51.84 
" style="fill: none; stroke: #000000; stroke-width: 0.8; stroke-linejoin: miter; stroke-linecap: square"/>
   </g>
   <g id="patch_4">
    <path d="M 583.2 384.48 
L 583.2 51.84 
" style="fill: none; stroke: #000000; stroke-width: 0.8; stroke-linejoin: miter; stroke-linecap: square"/>
   </g>
   <g id="patch_5">
    <path d="M 81 384.48 
L 583.2 384.48 
" style="fill: none; stroke: #000000; stroke-width: 0.8; stroke-linejoin: miter; stroke-linecap: square"/>
   </g>
   <g id="patch_6">
    <path d="M 81 51.84 
L 583.2 51.84 
" style="fill: none; stroke: #000000; stroke-width: 0.8; stroke-linejoin: miter; stroke-linecap: square"/>
   </g>
   <g id="text_15">
    <!-- Thermistor Tolerance Range: (Range-Nominal)/Nominal -->
    <g transform="translate(138.97875 45.84) scale(0.14 -0.14)">
     <defs>
      <path id="DejaVuSans-68" d="M 3513 2113 
L 3513 0 
L 2938 0 
L 2938 2094 
Q 2938 2591 2744 2837 
Q 2550 3084 2163 3084 
Q 1697 3084 1428 2787 
Q 1159 2491 1159 1978 
L 1159 0 
L 581 0 
L 581 4863 
L 1159 4863 
L 1159 2956 
Q 1366 3272 1645 3428 
Q 1925 3584 2291 3584 
Q 2894 3584 3203 3211 
Q 3513 2838 3513 2113 
z
" transform="scale(0.015625)"/>
      <path id="DejaVuSans-73" d="M 2834 3397 
L 2834 2853 
Q 2591 2978 2328 3040 
Q 2066 3103 1784 3103 
Q 1356 3103 1142 2972 
Q 928 2841 928 2578 
Q 928 2378 1081 2264 
Q 1234 2150 1697 2047 
L 1894 2003 
Q 2506 1872 2764 1633 
Q 3022 1394 3022 966 
Q 3022 478 2636 193 
Q 2250 -91 1575 -91 
Q 1294 -91 989 -36 
Q 684 19 347 128 
L 347 722 
Q 666 556 975 473 
Q 1284 391 1588 391 
Q 1994 391 2212 530 
Q 2431 669 2431 922 
Q 2431 1156 2273 1281 
Q 2116 1406 1581 1522 
L 1381 1569 
Q 847 1681 609 1914 
Q 372 2147 372 2553 
Q 372 3047 722 3315 
Q 1072 3584 1716 3584 
Q 2034 3584 2315 3537 
Q 2597 3491 2834 3397 
z
" transform="scale(0.015625)"/>
      <path id="DejaVuSans-52" d="M 2841 2188 
Q 3044 2119 3236 1894 
Q 3428 1669 3622 1275 
L 4263 0 
L 3584 0 
L 2988 1197 
Q 2756 1666 2539 1819 
Q 2322 1972 1947 1972 
L 1259 1972 
L 1259 0 
L 628 0 
L 628 4666 
L 2053 4666 
Q 2853 4666 3247 4331 
Q 3641 3997 3641 3322 
Q 3641 2881 3436 2590 
Q 3231 2300 2841 2188 
z
M 1259 4147 
L 1259 2491 
L 2053 2491 
Q 2509 2491 2742 2702 
Q 2975 2913 2975 3322 
Q 2975 3731 2742 3939 
Q 2509 4147 2053 4147 
L 1259 4147 
z
" transform="scale(0.015625)"/>
      <path id="DejaVuSans-67" d="M 2906 1791 
Q 2906 2416 2648 2759 
Q 2391 3103 1925 3103 
Q 1463 3103 1205 2759 
Q 947 2416 947 1791 
Q 947 1169 1205 825 
Q 1463 481 1925 481 
Q 2391 481 2648 825 
Q 2906 1169 2906 1791 
z
M 3481 434 
Q 3481 -459 3084 -895 
Q 2688 -1331 1869 -1331 
Q 1566 -1331 1297 -1286 
Q 1028 -1241 775 -1147 
L 775 -588 
Q 1028 -725 1275 -790 
Q 1522 -856 1778 -856 
Q 2344 -856 2625 -561 
Q 2906 -266 2906 331 
L 2906 616 
Q 2728 306 2450 153 
Q 2172 0 1784 0 
Q 1141 0 747 490 
Q 353 981 353 1791 
Q 353 2603 747 3093 
Q 1141 3584 1784 3584 
Q 2172 3584 2450 3431 
Q 2728 3278 2906 2969 
L 2906 3500 
L 3481 3500 
L 3481 434 
z
" transform="scale(0.015625)"/>
      <path id="DejaVuSans-3a" d="M 750 794 
L 1409 794 
L 1409 0 
L 750 0 
L 750 794 
z
M 750 3309 
L 1409 3309 
L 1409 2516 
L 750 2516 
L 750 3309 
z
" transform="scale(0.015625)"/>
      <path id="DejaVuSans-2d" d="M 313 2009 
L 1997 2009 
L 1997 1497 
L 313 1497 
L 313 2009 
z
" transform="scale(0.015625)"/>
      <path id="DejaVuSans-2f" d="M 1625 4666 
L 2156 4666 
L 531 -594 
L 0 -594 
L 1625 4666 
z
" transform="scale(0.015625)"/>
     </defs>
     <use xlink:href="#DejaVuSans-54"/>
     <use xlink:href="#DejaVuSans-68" transform="translate(61.083984 0)"/>
     <use xlink:href="#DejaVuSans-65" transform="translate(124.462891 0)"/>
     <use xlink:href="#DejaVuSans-72" transform="translate(185.986328 0)"/>
     <use xlink:href="#DejaVuSans-6d" transform="translate(225.349609 0)"/>
     <use xlink:href="#DejaVuSans-69" transform="translate(322.761719 0)"/>
     <use xlink:href="#DejaVuSans-73" transform="translate(350.544922 0)"/>
     <use xlink:href="#DejaVuSans-74" transform="translate(402.644531 0)"/>
     <use xlink:href="#DejaVuSans-6f" transform="translate(441.853516 0)"/>
     <use xlink:href="#DejaVuSans-72" transform="translate(503.035156 0)"/>
     <use xlink:href="#DejaVuSans-20" transform="translate(544.148438 0)"/>
     <use xlink:href="#DejaVuSans-54" transform="translate(575.935547 0)"/>
     <use xlink:href="#DejaVuSans-6f" transform="translate(620.019531 0)"/>
     <use xlink:href="#DejaVuSans-6c" transform="translate(681.201172 0)"/>
     <use xlink:href="#DejaVuSans-65" transform="translate(708.984375 0)"/>
     <use xlink:href="#DejaVuSans-72" transform="translate(770.507812 0)"/>
     <use xlink:href="#DejaVuSans-61" transform="translate(811.621094 0)"/>
     <use xlink:href="#DejaVuSans-6e" transform="translate(872.900391 0)"/>
     <use xlink:href="#DejaVuSans-63" transform="translate(936.279297 0)"/>
     <use xlink:href="#DejaVuSans-65" transform="translate(991.259766 0)"/>
     <use xlink:href="#DejaVuSans-20" transform="translate(1052.783203 0)"/>
     <use xlink:href="#DejaVuSans-52" transform="translate(1084.570312 0)"/>
     <use xlink:href="#DejaVuSans-61" transform="translate(1151.802734 0)"/>
     <use xlink:href="#DejaVuSans-6e" transform="translate(1213.082031 0)"/>
     <use xlink:href="#DejaVuSans-67" transform="translate(1276.460938 0)"/>
     <use xlink:href="#DejaVuSans-65" transform="translate(1339.9375 0)"/>
     <use xlink:href="#DejaVuSans-3a" transform="translate(1401.460938 0)"/>
     <use xlink:href="#DejaVuSans-20" transform="translate(1435.152344 0)"/>
     <use xlink:href="#DejaVuSans-28" transform="translate(1466.939453 0)"/>
     <use xlink:href="#DejaVuSans-52" transform="translate(1505.953125 0)"/>
     <use xlink:href="#DejaVuSans-61" transform="translate(1573.185547 0)"/>
     <use xlink:href="#DejaVuSans-6e" transform="translate(1634.464844 0)"/>
     <use xlink:href="#DejaVuSans-67" transform="translate(1697.84375 0)"/>
     <use xlink:href="#DejaVuSans-65" transform="translate(1761.320312 0)"/>
     <use xlink:href="#DejaVuSans-2d" transform="translate(1822.84375 0)"/>
     <use xlink:href="#DejaVuSans-4e" transform="translate(1858.927734 0)"/>
     <use xlink:href="#DejaVuSans-6f" transform="translate(1933.732422 0)"/>
     <use xlink:href="#DejaVuSans-6d" transform="translate(1994.914062 0)"/>
     <use xlink:href="#DejaVuSans-69" transform="translate(2092.326172 0)"/>
     <use xlink:href="#DejaVuSans-6e" transform="translate(2120.109375 0)"/>
     <use xlink:href="#DejaVuSans-61" transform="translate(2183.488281 0)"/>
     <use xlink:href="#DejaVuSans-6c" transform="translate(2244.767578 0)"/>
     <use xlink:href="#DejaVuSans-29" transform="translate(2272.550781 0)"/>
     <use xlink:href="#DejaVuSans-2f" transform="translate(2311.564453 0)"/>
     <use xlink:href="#DejaVuSans-4e" transform="translate(2345.255859 0)"/>
     <use xlink:href="#DejaVuSans-6f" transform="translate(2420.060547 0)"/>
     <use xlink:href="#DejaVuSans-6d" transform="translate(2481.242188 0)"/>
     <use xlink:href="#DejaVuSans-69" transform="translate(2578.654297 0)"/>
     <use xlink:href="#DejaVuSans-6e" transform="translate(2606.4375 0)"/>
     <use xlink:href="#DejaVuSans-61" transform="translate(2669.816406 0)"/>
     <use xlink:href="#DejaVuSans-6c" transform="translate(2731.095703 0)"/>
    </g>
   </g>
  </g>
 </g>
 <defs>
  <clipPath id="p638675c3dd">
   <rect x="81" y="51.84" width="502.2" height="332.64"/>
  </clipPath>
 </defs>
</svg>
