<?xml version="1.0" encoding="utf-8" standalone="no"?>
<!DOCTYPE svg PUBLIC "-//W3C//DTD SVG 1.1//EN"
  "http://www.w3.org/Graphics/SVG/1.1/DTD/svg11.dtd">
<svg xmlns:xlink="http://www.w3.org/1999/xlink" width="648pt" height="432pt" viewBox="0 0 648 432" xmlns="http://www.w3.org/2000/svg" version="1.1">
 <metadata>
  <rdf:RDF xmlns:dc="http://purl.org/dc/elements/1.1/" xmlns:cc="http://creativecommons.org/ns#" xmlns:rdf="http://www.w3.org/1999/02/22-rdf-syntax-ns#">
   <cc:Work>
    <dc:type rdf:resource="http://purl.org/dc/dcmitype/StillImage"/>
    <dc:date>2025-08-06T14:54:59.528808</dc:date>
    <dc:format>image/svg+xml</dc:format>
    <dc:creator>
     <cc:Agent>
      <dc:title>Matplotlib v3.10.1, https://matplotlib.org/</dc:title>
     </cc:Agent>
    </dc:creator>
   </cc:Work>
  </rdf:RDF>
 </metadata>
 <defs>
  <style type="text/css">*{stroke-linejoin: round; stroke-linecap: butt}</style>
 </defs>
 <g id="figure_1">
  <g id="patch_1">
   <path d="M 0 432 
L 648 432 
L 648 0 
L 0 0 
z
" style="fill: #ffffff"/>
  </g>
  <g id="axes_1">
   <g id="patch_2">
    <path d="M 55.73 387.16 
L 606.85 387.16 
L 606.85 62.16 
L 55.73 62.16 
z
" style="fill: #ffffff"/>
   </g>
   <g id="matplotlib.axis_1">
    <g id="xtick_1">
     <g id="line2d_1">
      <path d="M 79.357547 387.16 
L 79.357547 62.16 
" clip-path="url(#p7c81679780)" style="fill: none; stroke-dasharray: 0.8,1.32; stroke-dashoffset: 0; stroke: #b0b0b0; stroke-opacity: 0.7; stroke-width: 0.8"/>
     </g>
     <g id="line2d_2">
      <defs>
       <path id="m6110d4c2a4" d="M 0 0 
L 0 3.5 
" style="stroke: #000000; stroke-width: 0.8"/>
      </defs>
      <g>
       <use xlink:href="#m6110d4c2a4" x="79.357547" y="387.16" style="stroke: #000000; stroke-width: 0.8"/>
      </g>
     </g>
     <g id="text_1">
      <!-- 0 -->
      <g transform="translate(76.176297 401.758438) scale(0.1 -0.1)">
       <defs>
        <path id="DejaVuSans-30" d="M 2034 4250 
Q 1547 4250 1301 3770 
Q 1056 3291 1056 2328 
Q 1056 1369 1301 889 
Q 1547 409 2034 409 
Q 2525 409 2770 889 
Q 3016 1369 3016 2328 
Q 3016 3291 2770 3770 
Q 2525 4250 2034 4250 
z
M 2034 4750 
Q 2819 4750 3233 4129 
Q 3647 3509 3647 2328 
Q 3647 1150 3233 529 
Q 2819 -91 2034 -91 
Q 1250 -91 836 529 
Q 422 1150 422 2328 
Q 422 3509 836 4129 
Q 1250 4750 2034 4750 
z
" transform="scale(0.015625)"/>
       </defs>
       <use xlink:href="#DejaVuSans-30"/>
      </g>
     </g>
    </g>
    <g id="xtick_2">
     <g id="line2d_3">
      <path d="M 145.994356 387.16 
L 145.994356 62.16 
" clip-path="url(#p7c81679780)" style="fill: none; stroke-dasharray: 0.8,1.32; stroke-dashoffset: 0; stroke: #b0b0b0; stroke-opacity: 0.7; stroke-width: 0.8"/>
     </g>
     <g id="line2d_4">
      <g>
       <use xlink:href="#m6110d4c2a4" x="145.994356" y="387.16" style="stroke: #000000; stroke-width: 0.8"/>
      </g>
     </g>
     <g id="text_2">
      <!-- 25 -->
      <g transform="translate(139.631856 401.758438) scale(0.1 -0.1)">
       <defs>
        <path id="DejaVuSans-32" d="M 1228 531 
L 3431 531 
L 3431 0 
L 469 0 
L 469 531 
Q 828 903 1448 1529 
Q 2069 2156 2228 2338 
Q 2531 2678 2651 2914 
Q 2772 3150 2772 3378 
Q 2772 3750 2511 3984 
Q 2250 4219 1831 4219 
Q 1534 4219 1204 4116 
Q 875 4013 500 3803 
L 500 4441 
Q 881 4594 1212 4672 
Q 1544 4750 1819 4750 
Q 2544 4750 2975 4387 
Q 3406 4025 3406 3419 
Q 3406 3131 3298 2873 
Q 3191 2616 2906 2266 
Q 2828 2175 2409 1742 
Q 1991 1309 1228 531 
z
" transform="scale(0.015625)"/>
        <path id="DejaVuSans-35" d="M 691 4666 
L 3169 4666 
L 3169 4134 
L 1269 4134 
L 1269 2991 
Q 1406 3038 1543 3061 
Q 1681 3084 1819 3084 
Q 2600 3084 3056 2656 
Q 3513 2228 3513 1497 
Q 3513 744 3044 326 
Q 2575 -91 1722 -91 
Q 1428 -91 1123 -41 
Q 819 9 494 109 
L 494 744 
Q 775 591 1075 516 
Q 1375 441 1709 441 
Q 2250 441 2565 725 
Q 2881 1009 2881 1497 
Q 2881 1984 2565 2268 
Q 2250 2553 1709 2553 
Q 1456 2553 1204 2497 
Q 953 2441 691 2322 
L 691 4666 
z
" transform="scale(0.015625)"/>
       </defs>
       <use xlink:href="#DejaVuSans-32"/>
       <use xlink:href="#DejaVuSans-35" transform="translate(63.623047 0)"/>
      </g>
     </g>
    </g>
    <g id="xtick_3">
     <g id="line2d_5">
      <path d="M 212.631166 387.16 
L 212.631166 62.16 
" clip-path="url(#p7c81679780)" style="fill: none; stroke-dasharray: 0.8,1.32; stroke-dashoffset: 0; stroke: #b0b0b0; stroke-opacity: 0.7; stroke-width: 0.8"/>
     </g>
     <g id="line2d_6">
      <g>
       <use xlink:href="#m6110d4c2a4" x="212.631166" y="387.16" style="stroke: #000000; stroke-width: 0.8"/>
      </g>
     </g>
     <g id="text_3">
      <!-- 50 -->
      <g transform="translate(206.268666 401.758438) scale(0.1 -0.1)">
       <use xlink:href="#DejaVuSans-35"/>
       <use xlink:href="#DejaVuSans-30" transform="translate(63.623047 0)"/>
      </g>
     </g>
    </g>
    <g id="xtick_4">
     <g id="line2d_7">
      <path d="M 279.267976 387.16 
L 279.267976 62.16 
" clip-path="url(#p7c81679780)" style="fill: none; stroke-dasharray: 0.8,1.32; stroke-dashoffset: 0; stroke: #b0b0b0; stroke-opacity: 0.7; stroke-width: 0.8"/>
     </g>
     <g id="line2d_8">
      <g>
       <use xlink:href="#m6110d4c2a4" x="279.267976" y="387.16" style="stroke: #000000; stroke-width: 0.8"/>
      </g>
     </g>
     <g id="text_4">
      <!-- 75 -->
      <g transform="translate(272.905476 401.758438) scale(0.1 -0.1)">
       <defs>
        <path id="DejaVuSans-37" d="M 525 4666 
L 3525 4666 
L 3525 4397 
L 1831 0 
L 1172 0 
L 2766 4134 
L 525 4134 
L 525 4666 
z
" transform="scale(0.015625)"/>
       </defs>
       <use xlink:href="#DejaVuSans-37"/>
       <use xlink:href="#DejaVuSans-35" transform="translate(63.623047 0)"/>
      </g>
     </g>
    </g>
    <g id="xtick_5">
     <g id="line2d_9">
      <path d="M 345.904785 387.16 
L 345.904785 62.16 
" clip-path="url(#p7c81679780)" style="fill: none; stroke-dasharray: 0.8,1.32; stroke-dashoffset: 0; stroke: #b0b0b0; stroke-opacity: 0.7; stroke-width: 0.8"/>
     </g>
     <g id="line2d_10">
      <g>
       <use xlink:href="#m6110d4c2a4" x="345.904785" y="387.16" style="stroke: #000000; stroke-width: 0.8"/>
      </g>
     </g>
     <g id="text_5">
      <!-- 100 -->
      <g transform="translate(336.361035 401.758438) scale(0.1 -0.1)">
       <defs>
        <path id="DejaVuSans-31" d="M 794 531 
L 1825 531 
L 1825 4091 
L 703 3866 
L 703 4441 
L 1819 4666 
L 2450 4666 
L 2450 531 
L 3481 531 
L 3481 0 
L 794 0 
L 794 531 
z
" transform="scale(0.015625)"/>
       </defs>
       <use xlink:href="#DejaVuSans-31"/>
       <use xlink:href="#DejaVuSans-30" transform="translate(63.623047 0)"/>
       <use xlink:href="#DejaVuSans-30" transform="translate(127.246094 0)"/>
      </g>
     </g>
    </g>
    <g id="xtick_6">
     <g id="line2d_11">
      <path d="M 412.541595 387.16 
L 412.541595 62.16 
" clip-path="url(#p7c81679780)" style="fill: none; stroke-dasharray: 0.8,1.32; stroke-dashoffset: 0; stroke: #b0b0b0; stroke-opacity: 0.7; stroke-width: 0.8"/>
     </g>
     <g id="line2d_12">
      <g>
       <use xlink:href="#m6110d4c2a4" x="412.541595" y="387.16" style="stroke: #000000; stroke-width: 0.8"/>
      </g>
     </g>
     <g id="text_6">
      <!-- 125 -->
      <g transform="translate(402.997845 401.758438) scale(0.1 -0.1)">
       <use xlink:href="#DejaVuSans-31"/>
       <use xlink:href="#DejaVuSans-32" transform="translate(63.623047 0)"/>
       <use xlink:href="#DejaVuSans-35" transform="translate(127.246094 0)"/>
      </g>
     </g>
    </g>
    <g id="xtick_7">
     <g id="line2d_13">
      <path d="M 479.178404 387.16 
L 479.178404 62.16 
" clip-path="url(#p7c81679780)" style="fill: none; stroke-dasharray: 0.8,1.32; stroke-dashoffset: 0; stroke: #b0b0b0; stroke-opacity: 0.7; stroke-width: 0.8"/>
     </g>
     <g id="line2d_14">
      <g>
       <use xlink:href="#m6110d4c2a4" x="479.178404" y="387.16" style="stroke: #000000; stroke-width: 0.8"/>
      </g>
     </g>
     <g id="text_7">
      <!-- 150 -->
      <g transform="translate(469.634654 401.758438) scale(0.1 -0.1)">
       <use xlink:href="#DejaVuSans-31"/>
       <use xlink:href="#DejaVuSans-35" transform="translate(63.623047 0)"/>
       <use xlink:href="#DejaVuSans-30" transform="translate(127.246094 0)"/>
      </g>
     </g>
    </g>
    <g id="xtick_8">
     <g id="line2d_15">
      <path d="M 545.815214 387.16 
L 545.815214 62.16 
" clip-path="url(#p7c81679780)" style="fill: none; stroke-dasharray: 0.8,1.32; stroke-dashoffset: 0; stroke: #b0b0b0; stroke-opacity: 0.7; stroke-width: 0.8"/>
     </g>
     <g id="line2d_16">
      <g>
       <use xlink:href="#m6110d4c2a4" x="545.815214" y="387.16" style="stroke: #000000; stroke-width: 0.8"/>
      </g>
     </g>
     <g id="text_8">
      <!-- 175 -->
      <g transform="translate(536.271464 401.758438) scale(0.1 -0.1)">
       <use xlink:href="#DejaVuSans-31"/>
       <use xlink:href="#DejaVuSans-37" transform="translate(63.623047 0)"/>
       <use xlink:href="#DejaVuSans-35" transform="translate(127.246094 0)"/>
      </g>
     </g>
    </g>
    <g id="text_9">
     <!-- Resistance (kΩ) -->
     <g transform="translate(284.31 416.95625) scale(0.12 -0.12)">
      <defs>
       <path id="DejaVuSans-52" d="M 2841 2188 
Q 3044 2119 3236 1894 
Q 3428 1669 3622 1275 
L 4263 0 
L 3584 0 
L 2988 1197 
Q 2756 1666 2539 1819 
Q 2322 1972 1947 1972 
L 1259 1972 
L 1259 0 
L 628 0 
L 628 4666 
L 2053 4666 
Q 2853 4666 3247 4331 
Q 3641 3997 3641 3322 
Q 3641 2881 3436 2590 
Q 3231 2300 2841 2188 
z
M 1259 4147 
L 1259 2491 
L 2053 2491 
Q 2509 2491 2742 2702 
Q 2975 2913 2975 3322 
Q 2975 3731 2742 3939 
Q 2509 4147 2053 4147 
L 1259 4147 
z
" transform="scale(0.015625)"/>
       <path id="DejaVuSans-65" d="M 3597 1894 
L 3597 1613 
L 953 1613 
Q 991 1019 1311 708 
Q 1631 397 2203 397 
Q 2534 397 2845 478 
Q 3156 559 3463 722 
L 3463 178 
Q 3153 47 2828 -22 
Q 2503 -91 2169 -91 
Q 1331 -91 842 396 
Q 353 884 353 1716 
Q 353 2575 817 3079 
Q 1281 3584 2069 3584 
Q 2775 3584 3186 3129 
Q 3597 2675 3597 1894 
z
M 3022 2063 
Q 3016 2534 2758 2815 
Q 2500 3097 2075 3097 
Q 1594 3097 1305 2825 
Q 1016 2553 972 2059 
L 3022 2063 
z
" transform="scale(0.015625)"/>
       <path id="DejaVuSans-73" d="M 2834 3397 
L 2834 2853 
Q 2591 2978 2328 3040 
Q 2066 3103 1784 3103 
Q 1356 3103 1142 2972 
Q 928 2841 928 2578 
Q 928 2378 1081 2264 
Q 1234 2150 1697 2047 
L 1894 2003 
Q 2506 1872 2764 1633 
Q 3022 1394 3022 966 
Q 3022 478 2636 193 
Q 2250 -91 1575 -91 
Q 1294 -91 989 -36 
Q 684 19 347 128 
L 347 722 
Q 666 556 975 473 
Q 1284 391 1588 391 
Q 1994 391 2212 530 
Q 2431 669 2431 922 
Q 2431 1156 2273 1281 
Q 2116 1406 1581 1522 
L 1381 1569 
Q 847 1681 609 1914 
Q 372 2147 372 2553 
Q 372 3047 722 3315 
Q 1072 3584 1716 3584 
Q 2034 3584 2315 3537 
Q 2597 3491 2834 3397 
z
" transform="scale(0.015625)"/>
       <path id="DejaVuSans-69" d="M 603 3500 
L 1178 3500 
L 1178 0 
L 603 0 
L 603 3500 
z
M 603 4863 
L 1178 4863 
L 1178 4134 
L 603 4134 
L 603 4863 
z
" transform="scale(0.015625)"/>
       <path id="DejaVuSans-74" d="M 1172 4494 
L 1172 3500 
L 2356 3500 
L 2356 3053 
L 1172 3053 
L 1172 1153 
Q 1172 725 1289 603 
Q 1406 481 1766 481 
L 2356 481 
L 2356 0 
L 1766 0 
Q 1100 0 847 248 
Q 594 497 594 1153 
L 594 3053 
L 172 3053 
L 172 3500 
L 594 3500 
L 594 4494 
L 1172 4494 
z
" transform="scale(0.015625)"/>
       <path id="DejaVuSans-61" d="M 2194 1759 
Q 1497 1759 1228 1600 
Q 959 1441 959 1056 
Q 959 750 1161 570 
Q 1363 391 1709 391 
Q 2188 391 2477 730 
Q 2766 1069 2766 1631 
L 2766 1759 
L 2194 1759 
z
M 3341 1997 
L 3341 0 
L 2766 0 
L 2766 531 
Q 2569 213 2275 61 
Q 1981 -91 1556 -91 
Q 1019 -91 701 211 
Q 384 513 384 1019 
Q 384 1609 779 1909 
Q 1175 2209 1959 2209 
L 2766 2209 
L 2766 2266 
Q 2766 2663 2505 2880 
Q 2244 3097 1772 3097 
Q 1472 3097 1187 3025 
Q 903 2953 641 2809 
L 641 3341 
Q 956 3463 1253 3523 
Q 1550 3584 1831 3584 
Q 2591 3584 2966 3190 
Q 3341 2797 3341 1997 
z
" transform="scale(0.015625)"/>
       <path id="DejaVuSans-6e" d="M 3513 2113 
L 3513 0 
L 2938 0 
L 2938 2094 
Q 2938 2591 2744 2837 
Q 2550 3084 2163 3084 
Q 1697 3084 1428 2787 
Q 1159 2491 1159 1978 
L 1159 0 
L 581 0 
L 581 3500 
L 1159 3500 
L 1159 2956 
Q 1366 3272 1645 3428 
Q 1925 3584 2291 3584 
Q 2894 3584 3203 3211 
Q 3513 2838 3513 2113 
z
" transform="scale(0.015625)"/>
       <path id="DejaVuSans-63" d="M 3122 3366 
L 3122 2828 
Q 2878 2963 2633 3030 
Q 2388 3097 2138 3097 
Q 1578 3097 1268 2742 
Q 959 2388 959 1747 
Q 959 1106 1268 751 
Q 1578 397 2138 397 
Q 2388 397 2633 464 
Q 2878 531 3122 666 
L 3122 134 
Q 2881 22 2623 -34 
Q 2366 -91 2075 -91 
Q 1284 -91 818 406 
Q 353 903 353 1747 
Q 353 2603 823 3093 
Q 1294 3584 2113 3584 
Q 2378 3584 2631 3529 
Q 2884 3475 3122 3366 
z
" transform="scale(0.015625)"/>
       <path id="DejaVuSans-20" transform="scale(0.015625)"/>
       <path id="DejaVuSans-28" d="M 1984 4856 
Q 1566 4138 1362 3434 
Q 1159 2731 1159 2009 
Q 1159 1288 1364 580 
Q 1569 -128 1984 -844 
L 1484 -844 
Q 1016 -109 783 600 
Q 550 1309 550 2009 
Q 550 2706 781 3412 
Q 1013 4119 1484 4856 
L 1984 4856 
z
" transform="scale(0.015625)"/>
       <path id="DejaVuSans-6b" d="M 581 4863 
L 1159 4863 
L 1159 1991 
L 2875 3500 
L 3609 3500 
L 1753 1863 
L 3688 0 
L 2938 0 
L 1159 1709 
L 1159 0 
L 581 0 
L 581 4863 
z
" transform="scale(0.015625)"/>
       <path id="DejaVuSans-3a9" d="M 4647 556 
L 4647 0 
L 2772 0 
L 2772 556 
Q 3325 859 3634 1378 
Q 3944 1897 3944 2528 
Q 3944 3278 3531 3731 
Q 3119 4184 2444 4184 
Q 1769 4184 1355 3729 
Q 941 3275 941 2528 
Q 941 1897 1250 1378 
Q 1563 859 2119 556 
L 2119 0 
L 244 0 
L 244 556 
L 1241 556 
Q 747 991 519 1456 
Q 294 1922 294 2497 
Q 294 3491 894 4106 
Q 1491 4722 2444 4722 
Q 3391 4722 3994 4106 
Q 4594 3494 4594 2528 
Q 4594 1922 4372 1459 
Q 4150 997 3647 556 
L 4647 556 
z
" transform="scale(0.015625)"/>
       <path id="DejaVuSans-29" d="M 513 4856 
L 1013 4856 
Q 1481 4119 1714 3412 
Q 1947 2706 1947 2009 
Q 1947 1309 1714 600 
Q 1481 -109 1013 -844 
L 513 -844 
Q 928 -128 1133 580 
Q 1338 1288 1338 2009 
Q 1338 2731 1133 3434 
Q 928 4138 513 4856 
z
" transform="scale(0.015625)"/>
      </defs>
      <use xlink:href="#DejaVuSans-52"/>
      <use xlink:href="#DejaVuSans-65" transform="translate(64.982422 0)"/>
      <use xlink:href="#DejaVuSans-73" transform="translate(126.505859 0)"/>
      <use xlink:href="#DejaVuSans-69" transform="translate(178.605469 0)"/>
      <use xlink:href="#DejaVuSans-73" transform="translate(206.388672 0)"/>
      <use xlink:href="#DejaVuSans-74" transform="translate(258.488281 0)"/>
      <use xlink:href="#DejaVuSans-61" transform="translate(297.697266 0)"/>
      <use xlink:href="#DejaVuSans-6e" transform="translate(358.976562 0)"/>
      <use xlink:href="#DejaVuSans-63" transform="translate(422.355469 0)"/>
      <use xlink:href="#DejaVuSans-65" transform="translate(477.335938 0)"/>
      <use xlink:href="#DejaVuSans-20" transform="translate(538.859375 0)"/>
      <use xlink:href="#DejaVuSans-28" transform="translate(570.646484 0)"/>
      <use xlink:href="#DejaVuSans-6b" transform="translate(609.660156 0)"/>
      <use xlink:href="#DejaVuSans-3a9" transform="translate(667.570312 0)"/>
      <use xlink:href="#DejaVuSans-29" transform="translate(743.986328 0)"/>
     </g>
    </g>
   </g>
   <g id="matplotlib.axis_2">
    <g id="ytick_1">
     <g id="line2d_17">
      <path d="M 55.73 345.848737 
L 606.85 345.848737 
" clip-path="url(#p7c81679780)" style="fill: none; stroke-dasharray: 0.8,1.32; stroke-dashoffset: 0; stroke: #b0b0b0; stroke-opacity: 0.7; stroke-width: 0.8"/>
     </g>
     <g id="line2d_18">
      <defs>
       <path id="m9c2d4d8142" d="M 0 0 
L -3.5 0 
" style="stroke: #000000; stroke-width: 0.8"/>
      </defs>
      <g>
       <use xlink:href="#m9c2d4d8142" x="55.73" y="345.848737" style="stroke: #000000; stroke-width: 0.8"/>
      </g>
     </g>
     <g id="text_10">
      <!-- −25 -->
      <g transform="translate(27.625313 349.647956) scale(0.1 -0.1)">
       <defs>
        <path id="DejaVuSans-2212" d="M 678 2272 
L 4684 2272 
L 4684 1741 
L 678 1741 
L 678 2272 
z
" transform="scale(0.015625)"/>
       </defs>
       <use xlink:href="#DejaVuSans-2212"/>
       <use xlink:href="#DejaVuSans-32" transform="translate(83.789062 0)"/>
       <use xlink:href="#DejaVuSans-35" transform="translate(147.412109 0)"/>
      </g>
     </g>
    </g>
    <g id="ytick_2">
     <g id="line2d_19">
      <path d="M 55.73 301.617845 
L 606.85 301.617845 
" clip-path="url(#p7c81679780)" style="fill: none; stroke-dasharray: 0.8,1.32; stroke-dashoffset: 0; stroke: #b0b0b0; stroke-opacity: 0.7; stroke-width: 0.8"/>
     </g>
     <g id="line2d_20">
      <g>
       <use xlink:href="#m9c2d4d8142" x="55.73" y="301.617845" style="stroke: #000000; stroke-width: 0.8"/>
      </g>
     </g>
     <g id="text_11">
      <!-- 0 -->
      <g transform="translate(42.3675 305.417064) scale(0.1 -0.1)">
       <use xlink:href="#DejaVuSans-30"/>
      </g>
     </g>
    </g>
    <g id="ytick_3">
     <g id="line2d_21">
      <path d="M 55.73 257.386953 
L 606.85 257.386953 
" clip-path="url(#p7c81679780)" style="fill: none; stroke-dasharray: 0.8,1.32; stroke-dashoffset: 0; stroke: #b0b0b0; stroke-opacity: 0.7; stroke-width: 0.8"/>
     </g>
     <g id="line2d_22">
      <g>
       <use xlink:href="#m9c2d4d8142" x="55.73" y="257.386953" style="stroke: #000000; stroke-width: 0.8"/>
      </g>
     </g>
     <g id="text_12">
      <!-- 25 -->
      <g transform="translate(36.005 261.186172) scale(0.1 -0.1)">
       <use xlink:href="#DejaVuSans-32"/>
       <use xlink:href="#DejaVuSans-35" transform="translate(63.623047 0)"/>
      </g>
     </g>
    </g>
    <g id="ytick_4">
     <g id="line2d_23">
      <path d="M 55.73 213.156061 
L 606.85 213.156061 
" clip-path="url(#p7c81679780)" style="fill: none; stroke-dasharray: 0.8,1.32; stroke-dashoffset: 0; stroke: #b0b0b0; stroke-opacity: 0.7; stroke-width: 0.8"/>
     </g>
     <g id="line2d_24">
      <g>
       <use xlink:href="#m9c2d4d8142" x="55.73" y="213.156061" style="stroke: #000000; stroke-width: 0.8"/>
      </g>
     </g>
     <g id="text_13">
      <!-- 50 -->
      <g transform="translate(36.005 216.95528) scale(0.1 -0.1)">
       <use xlink:href="#DejaVuSans-35"/>
       <use xlink:href="#DejaVuSans-30" transform="translate(63.623047 0)"/>
      </g>
     </g>
    </g>
    <g id="ytick_5">
     <g id="line2d_25">
      <path d="M 55.73 168.925169 
L 606.85 168.925169 
" clip-path="url(#p7c81679780)" style="fill: none; stroke-dasharray: 0.8,1.32; stroke-dashoffset: 0; stroke: #b0b0b0; stroke-opacity: 0.7; stroke-width: 0.8"/>
     </g>
     <g id="line2d_26">
      <g>
       <use xlink:href="#m9c2d4d8142" x="55.73" y="168.925169" style="stroke: #000000; stroke-width: 0.8"/>
      </g>
     </g>
     <g id="text_14">
      <!-- 75 -->
      <g transform="translate(36.005 172.724388) scale(0.1 -0.1)">
       <use xlink:href="#DejaVuSans-37"/>
       <use xlink:href="#DejaVuSans-35" transform="translate(63.623047 0)"/>
      </g>
     </g>
    </g>
    <g id="ytick_6">
     <g id="line2d_27">
      <path d="M 55.73 124.694277 
L 606.85 124.694277 
" clip-path="url(#p7c81679780)" style="fill: none; stroke-dasharray: 0.8,1.32; stroke-dashoffset: 0; stroke: #b0b0b0; stroke-opacity: 0.7; stroke-width: 0.8"/>
     </g>
     <g id="line2d_28">
      <g>
       <use xlink:href="#m9c2d4d8142" x="55.73" y="124.694277" style="stroke: #000000; stroke-width: 0.8"/>
      </g>
     </g>
     <g id="text_15">
      <!-- 100 -->
      <g transform="translate(29.6425 128.493495) scale(0.1 -0.1)">
       <use xlink:href="#DejaVuSans-31"/>
       <use xlink:href="#DejaVuSans-30" transform="translate(63.623047 0)"/>
       <use xlink:href="#DejaVuSans-30" transform="translate(127.246094 0)"/>
      </g>
     </g>
    </g>
    <g id="ytick_7">
     <g id="line2d_29">
      <path d="M 55.73 80.463385 
L 606.85 80.463385 
" clip-path="url(#p7c81679780)" style="fill: none; stroke-dasharray: 0.8,1.32; stroke-dashoffset: 0; stroke: #b0b0b0; stroke-opacity: 0.7; stroke-width: 0.8"/>
     </g>
     <g id="line2d_30">
      <g>
       <use xlink:href="#m9c2d4d8142" x="55.73" y="80.463385" style="stroke: #000000; stroke-width: 0.8"/>
      </g>
     </g>
     <g id="text_16">
      <!-- 125 -->
      <g transform="translate(29.6425 84.262603) scale(0.1 -0.1)">
       <use xlink:href="#DejaVuSans-31"/>
       <use xlink:href="#DejaVuSans-32" transform="translate(63.623047 0)"/>
       <use xlink:href="#DejaVuSans-35" transform="translate(127.246094 0)"/>
      </g>
     </g>
    </g>
    <g id="text_17">
     <!-- Temperature (°C) -->
     <g transform="translate(21.129688 276.441875) rotate(-90) scale(0.12 -0.12)">
      <defs>
       <path id="DejaVuSans-54" d="M -19 4666 
L 3928 4666 
L 3928 4134 
L 2272 4134 
L 2272 0 
L 1638 0 
L 1638 4134 
L -19 4134 
L -19 4666 
z
" transform="scale(0.015625)"/>
       <path id="DejaVuSans-6d" d="M 3328 2828 
Q 3544 3216 3844 3400 
Q 4144 3584 4550 3584 
Q 5097 3584 5394 3201 
Q 5691 2819 5691 2113 
L 5691 0 
L 5113 0 
L 5113 2094 
Q 5113 2597 4934 2840 
Q 4756 3084 4391 3084 
Q 3944 3084 3684 2787 
Q 3425 2491 3425 1978 
L 3425 0 
L 2847 0 
L 2847 2094 
Q 2847 2600 2669 2842 
Q 2491 3084 2119 3084 
Q 1678 3084 1418 2786 
Q 1159 2488 1159 1978 
L 1159 0 
L 581 0 
L 581 3500 
L 1159 3500 
L 1159 2956 
Q 1356 3278 1631 3431 
Q 1906 3584 2284 3584 
Q 2666 3584 2933 3390 
Q 3200 3197 3328 2828 
z
" transform="scale(0.015625)"/>
       <path id="DejaVuSans-70" d="M 1159 525 
L 1159 -1331 
L 581 -1331 
L 581 3500 
L 1159 3500 
L 1159 2969 
Q 1341 3281 1617 3432 
Q 1894 3584 2278 3584 
Q 2916 3584 3314 3078 
Q 3713 2572 3713 1747 
Q 3713 922 3314 415 
Q 2916 -91 2278 -91 
Q 1894 -91 1617 61 
Q 1341 213 1159 525 
z
M 3116 1747 
Q 3116 2381 2855 2742 
Q 2594 3103 2138 3103 
Q 1681 3103 1420 2742 
Q 1159 2381 1159 1747 
Q 1159 1113 1420 752 
Q 1681 391 2138 391 
Q 2594 391 2855 752 
Q 3116 1113 3116 1747 
z
" transform="scale(0.015625)"/>
       <path id="DejaVuSans-72" d="M 2631 2963 
Q 2534 3019 2420 3045 
Q 2306 3072 2169 3072 
Q 1681 3072 1420 2755 
Q 1159 2438 1159 1844 
L 1159 0 
L 581 0 
L 581 3500 
L 1159 3500 
L 1159 2956 
Q 1341 3275 1631 3429 
Q 1922 3584 2338 3584 
Q 2397 3584 2469 3576 
Q 2541 3569 2628 3553 
L 2631 2963 
z
" transform="scale(0.015625)"/>
       <path id="DejaVuSans-75" d="M 544 1381 
L 544 3500 
L 1119 3500 
L 1119 1403 
Q 1119 906 1312 657 
Q 1506 409 1894 409 
Q 2359 409 2629 706 
Q 2900 1003 2900 1516 
L 2900 3500 
L 3475 3500 
L 3475 0 
L 2900 0 
L 2900 538 
Q 2691 219 2414 64 
Q 2138 -91 1772 -91 
Q 1169 -91 856 284 
Q 544 659 544 1381 
z
M 1991 3584 
L 1991 3584 
z
" transform="scale(0.015625)"/>
       <path id="DejaVuSans-b0" d="M 1600 4347 
Q 1350 4347 1178 4173 
Q 1006 4000 1006 3750 
Q 1006 3503 1178 3333 
Q 1350 3163 1600 3163 
Q 1850 3163 2022 3333 
Q 2194 3503 2194 3750 
Q 2194 3997 2020 4172 
Q 1847 4347 1600 4347 
z
M 1600 4750 
Q 1800 4750 1984 4673 
Q 2169 4597 2303 4453 
Q 2447 4313 2519 4134 
Q 2591 3956 2591 3750 
Q 2591 3338 2302 3052 
Q 2013 2766 1594 2766 
Q 1172 2766 890 3047 
Q 609 3328 609 3750 
Q 609 4169 896 4459 
Q 1184 4750 1600 4750 
z
" transform="scale(0.015625)"/>
       <path id="DejaVuSans-43" d="M 4122 4306 
L 4122 3641 
Q 3803 3938 3442 4084 
Q 3081 4231 2675 4231 
Q 1875 4231 1450 3742 
Q 1025 3253 1025 2328 
Q 1025 1406 1450 917 
Q 1875 428 2675 428 
Q 3081 428 3442 575 
Q 3803 722 4122 1019 
L 4122 359 
Q 3791 134 3420 21 
Q 3050 -91 2638 -91 
Q 1578 -91 968 557 
Q 359 1206 359 2328 
Q 359 3453 968 4101 
Q 1578 4750 2638 4750 
Q 3056 4750 3426 4639 
Q 3797 4528 4122 4306 
z
" transform="scale(0.015625)"/>
      </defs>
      <use xlink:href="#DejaVuSans-54"/>
      <use xlink:href="#DejaVuSans-65" transform="translate(44.083984 0)"/>
      <use xlink:href="#DejaVuSans-6d" transform="translate(105.607422 0)"/>
      <use xlink:href="#DejaVuSans-70" transform="translate(203.019531 0)"/>
      <use xlink:href="#DejaVuSans-65" transform="translate(266.496094 0)"/>
      <use xlink:href="#DejaVuSans-72" transform="translate(328.019531 0)"/>
      <use xlink:href="#DejaVuSans-61" transform="translate(369.132812 0)"/>
      <use xlink:href="#DejaVuSans-74" transform="translate(430.412109 0)"/>
      <use xlink:href="#DejaVuSans-75" transform="translate(469.621094 0)"/>
      <use xlink:href="#DejaVuSans-72" transform="translate(533 0)"/>
      <use xlink:href="#DejaVuSans-65" transform="translate(571.863281 0)"/>
      <use xlink:href="#DejaVuSans-20" transform="translate(633.386719 0)"/>
      <use xlink:href="#DejaVuSans-28" transform="translate(665.173828 0)"/>
      <use xlink:href="#DejaVuSans-b0" transform="translate(704.1875 0)"/>
      <use xlink:href="#DejaVuSans-43" transform="translate(754.1875 0)"/>
      <use xlink:href="#DejaVuSans-29" transform="translate(824.011719 0)"/>
     </g>
    </g>
   </g>
   <g id="line2d_31">
    <defs>
     <path id="m488a1348f1" d="M 0 2 
C 0.530406 2 1.03916 1.789267 1.414214 1.414214 
C 1.789267 1.03916 2 0.530406 2 0 
C 2 -0.530406 1.789267 -1.03916 1.414214 -1.414214 
C 1.03916 -1.789267 0.530406 -2 0 -2 
C -0.530406 -2 -1.03916 -1.789267 -1.414214 -1.414214 
C -1.789267 -1.03916 -2 -0.530406 -2 0 
C -2 0.530406 -1.789267 1.03916 -1.414214 1.414214 
C -1.03916 1.789267 -0.530406 2 0 2 
z
" style="stroke: #1f77b4"/>
    </defs>
    <g clip-path="url(#p7c81679780)">
     <use xlink:href="#m488a1348f1" x="581.799091" y="372.387273" style="fill: #1f77b4; stroke: #1f77b4"/>
     <use xlink:href="#m488a1348f1" x="555.410914" y="370.618037" style="fill: #1f77b4; stroke: #1f77b4"/>
     <use xlink:href="#m488a1348f1" x="530.355474" y="368.848801" style="fill: #1f77b4; stroke: #1f77b4"/>
     <use xlink:href="#m488a1348f1" x="506.899317" y="367.079566" style="fill: #1f77b4; stroke: #1f77b4"/>
     <use xlink:href="#m488a1348f1" x="484.775896" y="365.31033" style="fill: #1f77b4; stroke: #1f77b4"/>
     <use xlink:href="#m488a1348f1" x="463.985212" y="363.541094" style="fill: #1f77b4; stroke: #1f77b4"/>
     <use xlink:href="#m488a1348f1" x="444.260716" y="361.771859" style="fill: #1f77b4; stroke: #1f77b4"/>
     <use xlink:href="#m488a1348f1" x="425.868957" y="360.002623" style="fill: #1f77b4; stroke: #1f77b4"/>
     <use xlink:href="#m488a1348f1" x="408.276839" y="358.233387" style="fill: #1f77b4; stroke: #1f77b4"/>
     <use xlink:href="#m488a1348f1" x="391.75091" y="356.464152" style="fill: #1f77b4; stroke: #1f77b4"/>
     <use xlink:href="#m488a1348f1" x="376.024623" y="354.694916" style="fill: #1f77b4; stroke: #1f77b4"/>
     <use xlink:href="#m488a1348f1" x="361.364525" y="352.92568" style="fill: #1f77b4; stroke: #1f77b4"/>
     <use xlink:href="#m488a1348f1" x="347.504069" y="351.156444" style="fill: #1f77b4; stroke: #1f77b4"/>
     <use xlink:href="#m488a1348f1" x="334.283325" y="349.387209" style="fill: #1f77b4; stroke: #1f77b4"/>
     <use xlink:href="#m488a1348f1" x="321.835569" y="347.617973" style="fill: #1f77b4; stroke: #1f77b4"/>
     <use xlink:href="#m488a1348f1" x="310.080836" y="345.848737" style="fill: #1f77b4; stroke: #1f77b4"/>
     <use xlink:href="#m488a1348f1" x="298.939162" y="344.079502" style="fill: #1f77b4; stroke: #1f77b4"/>
     <use xlink:href="#m488a1348f1" x="288.410546" y="342.310266" style="fill: #1f77b4; stroke: #1f77b4"/>
     <use xlink:href="#m488a1348f1" x="278.441679" y="340.54103" style="fill: #1f77b4; stroke: #1f77b4"/>
     <use xlink:href="#m488a1348f1" x="268.979252" y="338.771795" style="fill: #1f77b4; stroke: #1f77b4"/>
     <use xlink:href="#m488a1348f1" x="260.04992" y="337.002559" style="fill: #1f77b4; stroke: #1f77b4"/>
     <use xlink:href="#m488a1348f1" x="251.573717" y="335.233323" style="fill: #1f77b4; stroke: #1f77b4"/>
     <use xlink:href="#m488a1348f1" x="243.550646" y="333.464088" style="fill: #1f77b4; stroke: #1f77b4"/>
     <use xlink:href="#m488a1348f1" x="235.927395" y="331.694852" style="fill: #1f77b4; stroke: #1f77b4"/>
     <use xlink:href="#m488a1348f1" x="228.703964" y="329.925616" style="fill: #1f77b4; stroke: #1f77b4"/>
     <use xlink:href="#m488a1348f1" x="221.8537" y="328.156381" style="fill: #1f77b4; stroke: #1f77b4"/>
     <use xlink:href="#m488a1348f1" x="215.376603" y="326.387145" style="fill: #1f77b4; stroke: #1f77b4"/>
     <use xlink:href="#m488a1348f1" x="209.192707" y="324.617909" style="fill: #1f77b4; stroke: #1f77b4"/>
     <use xlink:href="#m488a1348f1" x="203.355322" y="322.848674" style="fill: #1f77b4; stroke: #1f77b4"/>
     <use xlink:href="#m488a1348f1" x="197.784485" y="321.079438" style="fill: #1f77b4; stroke: #1f77b4"/>
     <use xlink:href="#m488a1348f1" x="192.506849" y="319.310202" style="fill: #1f77b4; stroke: #1f77b4"/>
     <use xlink:href="#m488a1348f1" x="187.495761" y="317.540966" style="fill: #1f77b4; stroke: #1f77b4"/>
     <use xlink:href="#m488a1348f1" x="182.724566" y="315.771731" style="fill: #1f77b4; stroke: #1f77b4"/>
     <use xlink:href="#m488a1348f1" x="178.193263" y="314.002495" style="fill: #1f77b4; stroke: #1f77b4"/>
     <use xlink:href="#m488a1348f1" x="173.875198" y="312.233259" style="fill: #1f77b4; stroke: #1f77b4"/>
     <use xlink:href="#m488a1348f1" x="169.797025" y="310.464024" style="fill: #1f77b4; stroke: #1f77b4"/>
     <use xlink:href="#m488a1348f1" x="165.87878" y="308.694788" style="fill: #1f77b4; stroke: #1f77b4"/>
     <use xlink:href="#m488a1348f1" x="162.173774" y="306.925552" style="fill: #1f77b4; stroke: #1f77b4"/>
     <use xlink:href="#m488a1348f1" x="158.65535" y="305.156317" style="fill: #1f77b4; stroke: #1f77b4"/>
     <use xlink:href="#m488a1348f1" x="155.296855" y="303.387081" style="fill: #1f77b4; stroke: #1f77b4"/>
     <use xlink:href="#m488a1348f1" x="152.071633" y="301.617845" style="fill: #1f77b4; stroke: #1f77b4"/>
     <use xlink:href="#m488a1348f1" x="149.032995" y="299.84861" style="fill: #1f77b4; stroke: #1f77b4"/>
     <use xlink:href="#m488a1348f1" x="146.12763" y="298.079374" style="fill: #1f77b4; stroke: #1f77b4"/>
     <use xlink:href="#m488a1348f1" x="143.355539" y="296.310138" style="fill: #1f77b4; stroke: #1f77b4"/>
     <use xlink:href="#m488a1348f1" x="140.716721" y="294.540903" style="fill: #1f77b4; stroke: #1f77b4"/>
     <use xlink:href="#m488a1348f1" x="138.184522" y="292.771667" style="fill: #1f77b4; stroke: #1f77b4"/>
     <use xlink:href="#m488a1348f1" x="135.785597" y="291.002431" style="fill: #1f77b4; stroke: #1f77b4"/>
     <use xlink:href="#m488a1348f1" x="133.493291" y="289.233195" style="fill: #1f77b4; stroke: #1f77b4"/>
     <use xlink:href="#m488a1348f1" x="131.307604" y="287.46396" style="fill: #1f77b4; stroke: #1f77b4"/>
     <use xlink:href="#m488a1348f1" x="129.228535" y="285.694724" style="fill: #1f77b4; stroke: #1f77b4"/>
     <use xlink:href="#m488a1348f1" x="127.229431" y="283.925488" style="fill: #1f77b4; stroke: #1f77b4"/>
     <use xlink:href="#m488a1348f1" x="125.336945" y="282.156253" style="fill: #1f77b4; stroke: #1f77b4"/>
     <use xlink:href="#m488a1348f1" x="123.524424" y="280.387017" style="fill: #1f77b4; stroke: #1f77b4"/>
     <use xlink:href="#m488a1348f1" x="121.765212" y="278.617781" style="fill: #1f77b4; stroke: #1f77b4"/>
     <use xlink:href="#m488a1348f1" x="120.11262" y="276.848546" style="fill: #1f77b4; stroke: #1f77b4"/>
     <use xlink:href="#m488a1348f1" x="118.539991" y="275.07931" style="fill: #1f77b4; stroke: #1f77b4"/>
     <use xlink:href="#m488a1348f1" x="117.020672" y="273.310074" style="fill: #1f77b4; stroke: #1f77b4"/>
     <use xlink:href="#m488a1348f1" x="115.581317" y="271.540839" style="fill: #1f77b4; stroke: #1f77b4"/>
     <use xlink:href="#m488a1348f1" x="114.195271" y="269.771603" style="fill: #1f77b4; stroke: #1f77b4"/>
     <use xlink:href="#m488a1348f1" x="112.862535" y="268.002367" style="fill: #1f77b4; stroke: #1f77b4"/>
     <use xlink:href="#m488a1348f1" x="111.583108" y="266.233132" style="fill: #1f77b4; stroke: #1f77b4"/>
     <use xlink:href="#m488a1348f1" x="110.383645" y="264.463896" style="fill: #1f77b4; stroke: #1f77b4"/>
     <use xlink:href="#m488a1348f1" x="109.210838" y="262.69466" style="fill: #1f77b4; stroke: #1f77b4"/>
     <use xlink:href="#m488a1348f1" x="108.091339" y="260.925425" style="fill: #1f77b4; stroke: #1f77b4"/>
     <use xlink:href="#m488a1348f1" x="107.02515" y="259.156189" style="fill: #1f77b4; stroke: #1f77b4"/>
     <use xlink:href="#m488a1348f1" x="106.012271" y="257.386953" style="fill: #1f77b4; stroke: #1f77b4"/>
     <use xlink:href="#m488a1348f1" x="105.034042" y="255.617717" style="fill: #1f77b4; stroke: #1f77b4"/>
     <use xlink:href="#m488a1348f1" x="104.098461" y="253.848482" style="fill: #1f77b4; stroke: #1f77b4"/>
     <use xlink:href="#m488a1348f1" x="103.200197" y="252.079246" style="fill: #1f77b4; stroke: #1f77b4"/>
     <use xlink:href="#m488a1348f1" x="102.33925" y="250.31001" style="fill: #1f77b4; stroke: #1f77b4"/>
     <use xlink:href="#m488a1348f1" x="101.512953" y="248.540775" style="fill: #1f77b4; stroke: #1f77b4"/>
     <use xlink:href="#m488a1348f1" x="100.721308" y="246.771539" style="fill: #1f77b4; stroke: #1f77b4"/>
     <use xlink:href="#m488a1348f1" x="99.961648" y="245.002303" style="fill: #1f77b4; stroke: #1f77b4"/>
     <use xlink:href="#m488a1348f1" x="99.231309" y="243.233068" style="fill: #1f77b4; stroke: #1f77b4"/>
     <use xlink:href="#m488a1348f1" x="98.532955" y="241.463832" style="fill: #1f77b4; stroke: #1f77b4"/>
     <use xlink:href="#m488a1348f1" x="97.861256" y="239.694596" style="fill: #1f77b4; stroke: #1f77b4"/>
     <use xlink:href="#m488a1348f1" x="97.216212" y="237.925361" style="fill: #1f77b4; stroke: #1f77b4"/>
     <use xlink:href="#m488a1348f1" x="96.597822" y="236.156125" style="fill: #1f77b4; stroke: #1f77b4"/>
     <use xlink:href="#m488a1348f1" x="96.003422" y="234.386889" style="fill: #1f77b4; stroke: #1f77b4"/>
     <use xlink:href="#m488a1348f1" x="95.433011" y="232.617654" style="fill: #1f77b4; stroke: #1f77b4"/>
     <use xlink:href="#m488a1348f1" x="94.886589" y="230.848418" style="fill: #1f77b4; stroke: #1f77b4"/>
     <use xlink:href="#m488a1348f1" x="94.358825" y="229.079182" style="fill: #1f77b4; stroke: #1f77b4"/>
     <use xlink:href="#m488a1348f1" x="93.852386" y="227.309946" style="fill: #1f77b4; stroke: #1f77b4"/>
     <use xlink:href="#m488a1348f1" x="93.364604" y="225.540711" style="fill: #1f77b4; stroke: #1f77b4"/>
     <use xlink:href="#m488a1348f1" x="92.898147" y="223.771475" style="fill: #1f77b4; stroke: #1f77b4"/>
     <use xlink:href="#m488a1348f1" x="92.447682" y="222.002239" style="fill: #1f77b4; stroke: #1f77b4"/>
     <use xlink:href="#m488a1348f1" x="92.015875" y="220.233004" style="fill: #1f77b4; stroke: #1f77b4"/>
     <use xlink:href="#m488a1348f1" x="91.597396" y="218.463768" style="fill: #1f77b4; stroke: #1f77b4"/>
     <use xlink:href="#m488a1348f1" x="91.197575" y="216.694532" style="fill: #1f77b4; stroke: #1f77b4"/>
     <use xlink:href="#m488a1348f1" x="90.811082" y="214.925297" style="fill: #1f77b4; stroke: #1f77b4"/>
     <use xlink:href="#m488a1348f1" x="90.440581" y="213.156061" style="fill: #1f77b4; stroke: #1f77b4"/>
     <use xlink:href="#m488a1348f1" x="90.083408" y="211.386825" style="fill: #1f77b4; stroke: #1f77b4"/>
     <use xlink:href="#m488a1348f1" x="89.739562" y="209.61759" style="fill: #1f77b4; stroke: #1f77b4"/>
     <use xlink:href="#m488a1348f1" x="89.409043" y="207.848354" style="fill: #1f77b4; stroke: #1f77b4"/>
     <use xlink:href="#m488a1348f1" x="89.089187" y="206.079118" style="fill: #1f77b4; stroke: #1f77b4"/>
     <use xlink:href="#m488a1348f1" x="88.782657" y="204.309883" style="fill: #1f77b4; stroke: #1f77b4"/>
     <use xlink:href="#m488a1348f1" x="88.48679" y="202.540647" style="fill: #1f77b4; stroke: #1f77b4"/>
     <use xlink:href="#m488a1348f1" x="88.201584" y="200.771411" style="fill: #1f77b4; stroke: #1f77b4"/>
     <use xlink:href="#m488a1348f1" x="87.927041" y="199.002176" style="fill: #1f77b4; stroke: #1f77b4"/>
     <use xlink:href="#m488a1348f1" x="87.660493" y="197.23294" style="fill: #1f77b4; stroke: #1f77b4"/>
     <use xlink:href="#m488a1348f1" x="87.404608" y="195.463704" style="fill: #1f77b4; stroke: #1f77b4"/>
     <use xlink:href="#m488a1348f1" x="87.159385" y="193.694468" style="fill: #1f77b4; stroke: #1f77b4"/>
     <use xlink:href="#m488a1348f1" x="86.919492" y="191.925233" style="fill: #1f77b4; stroke: #1f77b4"/>
     <use xlink:href="#m488a1348f1" x="86.690261" y="190.155997" style="fill: #1f77b4; stroke: #1f77b4"/>
     <use xlink:href="#m488a1348f1" x="86.469027" y="188.386761" style="fill: #1f77b4; stroke: #1f77b4"/>
     <use xlink:href="#m488a1348f1" x="86.255789" y="186.617526" style="fill: #1f77b4; stroke: #1f77b4"/>
     <use xlink:href="#m488a1348f1" x="86.050548" y="184.84829" style="fill: #1f77b4; stroke: #1f77b4"/>
     <use xlink:href="#m488a1348f1" x="85.850638" y="183.079054" style="fill: #1f77b4; stroke: #1f77b4"/>
     <use xlink:href="#m488a1348f1" x="85.658724" y="181.309819" style="fill: #1f77b4; stroke: #1f77b4"/>
     <use xlink:href="#m488a1348f1" x="85.474806" y="179.540583" style="fill: #1f77b4; stroke: #1f77b4"/>
     <use xlink:href="#m488a1348f1" x="85.293554" y="177.771347" style="fill: #1f77b4; stroke: #1f77b4"/>
     <use xlink:href="#m488a1348f1" x="85.122964" y="176.002112" style="fill: #1f77b4; stroke: #1f77b4"/>
     <use xlink:href="#m488a1348f1" x="84.955039" y="174.232876" style="fill: #1f77b4; stroke: #1f77b4"/>
     <use xlink:href="#m488a1348f1" x="84.792445" y="172.46364" style="fill: #1f77b4; stroke: #1f77b4"/>
     <use xlink:href="#m488a1348f1" x="84.637848" y="170.694405" style="fill: #1f77b4; stroke: #1f77b4"/>
     <use xlink:href="#m488a1348f1" x="84.485916" y="168.925169" style="fill: #1f77b4; stroke: #1f77b4"/>
     <use xlink:href="#m488a1348f1" x="84.339315" y="167.155933" style="fill: #1f77b4; stroke: #1f77b4"/>
     <use xlink:href="#m488a1348f1" x="84.20071" y="165.386697" style="fill: #1f77b4; stroke: #1f77b4"/>
     <use xlink:href="#m488a1348f1" x="84.062106" y="163.617462" style="fill: #1f77b4; stroke: #1f77b4"/>
     <use xlink:href="#m488a1348f1" x="83.931497" y="161.848226" style="fill: #1f77b4; stroke: #1f77b4"/>
     <use xlink:href="#m488a1348f1" x="83.803555" y="160.07899" style="fill: #1f77b4; stroke: #1f77b4"/>
     <use xlink:href="#m488a1348f1" x="83.680943" y="158.309755" style="fill: #1f77b4; stroke: #1f77b4"/>
     <use xlink:href="#m488a1348f1" x="83.560997" y="156.540519" style="fill: #1f77b4; stroke: #1f77b4"/>
     <use xlink:href="#m488a1348f1" x="83.446381" y="154.771283" style="fill: #1f77b4; stroke: #1f77b4"/>
     <use xlink:href="#m488a1348f1" x="83.334432" y="153.002048" style="fill: #1f77b4; stroke: #1f77b4"/>
     <use xlink:href="#m488a1348f1" x="83.225147" y="151.232812" style="fill: #1f77b4; stroke: #1f77b4"/>
     <use xlink:href="#m488a1348f1" x="83.121194" y="149.463576" style="fill: #1f77b4; stroke: #1f77b4"/>
     <use xlink:href="#m488a1348f1" x="83.019906" y="147.694341" style="fill: #1f77b4; stroke: #1f77b4"/>
     <use xlink:href="#m488a1348f1" x="82.921283" y="145.925105" style="fill: #1f77b4; stroke: #1f77b4"/>
     <use xlink:href="#m488a1348f1" x="82.827992" y="144.155869" style="fill: #1f77b4; stroke: #1f77b4"/>
     <use xlink:href="#m488a1348f1" x="82.7347" y="142.386634" style="fill: #1f77b4; stroke: #1f77b4"/>
     <use xlink:href="#m488a1348f1" x="82.64674" y="140.617398" style="fill: #1f77b4; stroke: #1f77b4"/>
     <use xlink:href="#m488a1348f1" x="82.558779" y="138.848162" style="fill: #1f77b4; stroke: #1f77b4"/>
     <use xlink:href="#m488a1348f1" x="82.47615" y="137.078926" style="fill: #1f77b4; stroke: #1f77b4"/>
     <use xlink:href="#m488a1348f1" x="82.39352" y="135.309691" style="fill: #1f77b4; stroke: #1f77b4"/>
     <use xlink:href="#m488a1348f1" x="82.316221" y="133.540455" style="fill: #1f77b4; stroke: #1f77b4"/>
     <use xlink:href="#m488a1348f1" x="82.238922" y="131.771219" style="fill: #1f77b4; stroke: #1f77b4"/>
     <use xlink:href="#m488a1348f1" x="82.166955" y="130.001984" style="fill: #1f77b4; stroke: #1f77b4"/>
     <use xlink:href="#m488a1348f1" x="82.094987" y="128.232748" style="fill: #1f77b4; stroke: #1f77b4"/>
     <use xlink:href="#m488a1348f1" x="82.025685" y="126.463512" style="fill: #1f77b4; stroke: #1f77b4"/>
     <use xlink:href="#m488a1348f1" x="81.956382" y="124.694277" style="fill: #1f77b4; stroke: #1f77b4"/>
     <use xlink:href="#m488a1348f1" x="81.892411" y="122.925041" style="fill: #1f77b4; stroke: #1f77b4"/>
     <use xlink:href="#m488a1348f1" x="81.82844" y="121.155805" style="fill: #1f77b4; stroke: #1f77b4"/>
     <use xlink:href="#m488a1348f1" x="81.767134" y="119.38657" style="fill: #1f77b4; stroke: #1f77b4"/>
     <use xlink:href="#m488a1348f1" x="81.705828" y="117.617334" style="fill: #1f77b4; stroke: #1f77b4"/>
     <use xlink:href="#m488a1348f1" x="81.649853" y="115.848098" style="fill: #1f77b4; stroke: #1f77b4"/>
     <use xlink:href="#m488a1348f1" x="81.591213" y="114.078863" style="fill: #1f77b4; stroke: #1f77b4"/>
     <use xlink:href="#m488a1348f1" x="81.537903" y="112.309627" style="fill: #1f77b4; stroke: #1f77b4"/>
     <use xlink:href="#m488a1348f1" x="81.484594" y="110.540391" style="fill: #1f77b4; stroke: #1f77b4"/>
     <use xlink:href="#m488a1348f1" x="81.43395" y="108.771156" style="fill: #1f77b4; stroke: #1f77b4"/>
     <use xlink:href="#m488a1348f1" x="81.383306" y="107.00192" style="fill: #1f77b4; stroke: #1f77b4"/>
     <use xlink:href="#m488a1348f1" x="81.335327" y="105.232684" style="fill: #1f77b4; stroke: #1f77b4"/>
     <use xlink:href="#m488a1348f1" x="81.287349" y="103.463448" style="fill: #1f77b4; stroke: #1f77b4"/>
     <use xlink:href="#m488a1348f1" x="81.242036" y="101.694213" style="fill: #1f77b4; stroke: #1f77b4"/>
     <use xlink:href="#m488a1348f1" x="81.196723" y="99.924977" style="fill: #1f77b4; stroke: #1f77b4"/>
     <use xlink:href="#m488a1348f1" x="81.154075" y="98.155741" style="fill: #1f77b4; stroke: #1f77b4"/>
     <use xlink:href="#m488a1348f1" x="81.111428" y="96.386506" style="fill: #1f77b4; stroke: #1f77b4"/>
     <use xlink:href="#m488a1348f1" x="81.071446" y="94.61727" style="fill: #1f77b4; stroke: #1f77b4"/>
     <use xlink:href="#m488a1348f1" x="81.031463" y="92.848034" style="fill: #1f77b4; stroke: #1f77b4"/>
     <use xlink:href="#m488a1348f1" x="80.991481" y="91.078799" style="fill: #1f77b4; stroke: #1f77b4"/>
     <use xlink:href="#m488a1348f1" x="80.954165" y="89.309563" style="fill: #1f77b4; stroke: #1f77b4"/>
     <use xlink:href="#m488a1348f1" x="80.916848" y="87.540327" style="fill: #1f77b4; stroke: #1f77b4"/>
     <use xlink:href="#m488a1348f1" x="80.882197" y="85.771092" style="fill: #1f77b4; stroke: #1f77b4"/>
     <use xlink:href="#m488a1348f1" x="80.847546" y="84.001856" style="fill: #1f77b4; stroke: #1f77b4"/>
     <use xlink:href="#m488a1348f1" x="80.812895" y="82.23262" style="fill: #1f77b4; stroke: #1f77b4"/>
     <use xlink:href="#m488a1348f1" x="80.780909" y="80.463385" style="fill: #1f77b4; stroke: #1f77b4"/>
    </g>
   </g>
   <g id="line2d_32">
    <path d="M 581.799091 372.256513 
L 530.355474 368.735797 
L 484.775896 365.219339 
L 444.260716 361.700788 
L 408.276839 358.188076 
L 376.024623 354.652904 
L 347.504069 351.147795 
L 321.835569 347.615637 
L 298.939162 344.091252 
L 278.441679 340.566822 
L 260.04992 337.038487 
L 243.550646 333.511055 
L 228.703964 329.97777 
L 215.376603 326.451392 
L 203.355322 322.919105 
L 192.506849 319.382716 
L 182.724566 315.848958 
L 173.875198 312.31026 
L 165.87878 308.774365 
L 158.65535 305.24672 
L 152.071633 301.698926 
L 146.12763 298.16806 
L 140.716721 294.629017 
L 135.785597 291.080572 
L 131.307604 287.538678 
L 127.229431 283.99699 
L 123.524424 280.468139 
L 120.11262 276.906736 
L 117.020672 273.372561 
L 114.195271 269.840833 
L 111.583108 266.271804 
L 109.210838 262.731701 
L 107.02515 259.17296 
L 104.098461 253.868543 
L 101.512953 248.546507 
L 99.231309 243.221239 
L 97.216212 237.898267 
L 95.433011 232.576957 
L 93.852386 227.258083 
L 92.015875 220.167746 
L 90.440581 213.066654 
L 89.089187 205.974459 
L 87.660493 197.114345 
L 86.469027 188.249741 
L 85.293554 177.622973 
L 84.339315 167.00614 
L 83.446381 154.656869 
L 82.64674 140.555442 
L 81.892411 122.947221 
L 81.242036 101.868043 
L 80.780909 80.810062 
L 80.780909 80.810062 
" clip-path="url(#p7c81679780)" style="fill: none; stroke: #ff7f0e; stroke-width: 2; stroke-linecap: square"/>
   </g>
   <g id="line2d_33">
    <path d="M 581.799091 364.724297 
L 530.355474 361.555703 
L 484.775896 358.383158 
L 444.260716 355.200944 
L 408.276839 352.016252 
L 376.024623 348.803375 
L 347.504069 345.610079 
L 321.835569 342.38435 
L 298.939162 339.157931 
L 278.441679 335.923701 
L 260.04992 332.67811 
L 243.550646 329.425582 
L 228.703964 326.159878 
L 215.376603 322.892807 
L 203.355322 319.612506 
L 192.506849 316.320631 
L 182.724566 313.023457 
L 173.875198 309.713921 
L 165.87878 306.39927 
L 158.65535 303.084657 
L 152.071633 299.743371 
L 146.12763 296.410331 
L 140.716721 293.06188 
L 135.785597 289.696815 
L 131.307604 286.330265 
L 127.229431 282.956234 
L 123.524424 279.586812 
L 120.11262 276.178607 
L 117.020672 272.788824 
L 114.195271 269.393803 
L 111.583108 265.955233 
L 109.210838 262.536908 
L 107.02515 259.092947 
L 105.034042 255.665483 
L 102.33925 250.493922 
L 99.961648 245.300462 
L 97.861256 240.087769 
L 96.003422 234.85872 
L 94.358825 229.618935 
L 92.898147 224.360454 
L 91.197575 217.318916 
L 89.739562 210.250489 
L 88.48679 203.161145 
L 87.159385 194.25778 
L 86.050548 185.304604 
L 84.955039 174.516296 
L 83.931497 161.851097 
L 83.019906 147.289114 
L 82.238922 130.792745 
L 81.591213 112.31897 
L 81.031463 90.086416 
L 80.780909 76.932727 
L 80.780909 76.932727 
" clip-path="url(#p7c81679780)" style="fill: none; stroke-dasharray: 7.4,3.2; stroke-dashoffset: 0; stroke: #2ca02c; stroke-width: 2"/>
   </g>
   <g id="patch_3">
    <path d="M 55.73 387.16 
L 55.73 62.16 
" style="fill: none; stroke: #000000; stroke-width: 0.8; stroke-linejoin: miter; stroke-linecap: square"/>
   </g>
   <g id="patch_4">
    <path d="M 606.85 387.16 
L 606.85 62.16 
" style="fill: none; stroke: #000000; stroke-width: 0.8; stroke-linejoin: miter; stroke-linecap: square"/>
   </g>
   <g id="patch_5">
    <path d="M 55.73 387.16 
L 606.85 387.16 
" style="fill: none; stroke: #000000; stroke-width: 0.8; stroke-linejoin: miter; stroke-linecap: square"/>
   </g>
   <g id="patch_6">
    <path d="M 55.73 62.16 
L 606.85 62.16 
" style="fill: none; stroke: #000000; stroke-width: 0.8; stroke-linejoin: miter; stroke-linecap: square"/>
   </g>
   <g id="text_18">
    <!-- Thermistor Model Fit vs. Measured Data -->
    <g transform="translate(191.933125 56.16) scale(0.14 -0.14)">
     <defs>
      <path id="DejaVuSans-68" d="M 3513 2113 
L 3513 0 
L 2938 0 
L 2938 2094 
Q 2938 2591 2744 2837 
Q 2550 3084 2163 3084 
Q 1697 3084 1428 2787 
Q 1159 2491 1159 1978 
L 1159 0 
L 581 0 
L 581 4863 
L 1159 4863 
L 1159 2956 
Q 1366 3272 1645 3428 
Q 1925 3584 2291 3584 
Q 2894 3584 3203 3211 
Q 3513 2838 3513 2113 
z
" transform="scale(0.015625)"/>
      <path id="DejaVuSans-6f" d="M 1959 3097 
Q 1497 3097 1228 2736 
Q 959 2375 959 1747 
Q 959 1119 1226 758 
Q 1494 397 1959 397 
Q 2419 397 2687 759 
Q 2956 1122 2956 1747 
Q 2956 2369 2687 2733 
Q 2419 3097 1959 3097 
z
M 1959 3584 
Q 2709 3584 3137 3096 
Q 3566 2609 3566 1747 
Q 3566 888 3137 398 
Q 2709 -91 1959 -91 
Q 1206 -91 779 398 
Q 353 888 353 1747 
Q 353 2609 779 3096 
Q 1206 3584 1959 3584 
z
" transform="scale(0.015625)"/>
      <path id="DejaVuSans-4d" d="M 628 4666 
L 1569 4666 
L 2759 1491 
L 3956 4666 
L 4897 4666 
L 4897 0 
L 4281 0 
L 4281 4097 
L 3078 897 
L 2444 897 
L 1241 4097 
L 1241 0 
L 628 0 
L 628 4666 
z
" transform="scale(0.015625)"/>
      <path id="DejaVuSans-64" d="M 2906 2969 
L 2906 4863 
L 3481 4863 
L 3481 0 
L 2906 0 
L 2906 525 
Q 2725 213 2448 61 
Q 2172 -91 1784 -91 
Q 1150 -91 751 415 
Q 353 922 353 1747 
Q 353 2572 751 3078 
Q 1150 3584 1784 3584 
Q 2172 3584 2448 3432 
Q 2725 3281 2906 2969 
z
M 947 1747 
Q 947 1113 1208 752 
Q 1469 391 1925 391 
Q 2381 391 2643 752 
Q 2906 1113 2906 1747 
Q 2906 2381 2643 2742 
Q 2381 3103 1925 3103 
Q 1469 3103 1208 2742 
Q 947 2381 947 1747 
z
" transform="scale(0.015625)"/>
      <path id="DejaVuSans-6c" d="M 603 4863 
L 1178 4863 
L 1178 0 
L 603 0 
L 603 4863 
z
" transform="scale(0.015625)"/>
      <path id="DejaVuSans-46" d="M 628 4666 
L 3309 4666 
L 3309 4134 
L 1259 4134 
L 1259 2759 
L 3109 2759 
L 3109 2228 
L 1259 2228 
L 1259 0 
L 628 0 
L 628 4666 
z
" transform="scale(0.015625)"/>
      <path id="DejaVuSans-76" d="M 191 3500 
L 800 3500 
L 1894 563 
L 2988 3500 
L 3597 3500 
L 2284 0 
L 1503 0 
L 191 3500 
z
" transform="scale(0.015625)"/>
      <path id="DejaVuSans-2e" d="M 684 794 
L 1344 794 
L 1344 0 
L 684 0 
L 684 794 
z
" transform="scale(0.015625)"/>
      <path id="DejaVuSans-44" d="M 1259 4147 
L 1259 519 
L 2022 519 
Q 2988 519 3436 956 
Q 3884 1394 3884 2338 
Q 3884 3275 3436 3711 
Q 2988 4147 2022 4147 
L 1259 4147 
z
M 628 4666 
L 1925 4666 
Q 3281 4666 3915 4102 
Q 4550 3538 4550 2338 
Q 4550 1131 3912 565 
Q 3275 0 1925 0 
L 628 0 
L 628 4666 
z
" transform="scale(0.015625)"/>
     </defs>
     <use xlink:href="#DejaVuSans-54"/>
     <use xlink:href="#DejaVuSans-68" transform="translate(61.083984 0)"/>
     <use xlink:href="#DejaVuSans-65" transform="translate(124.462891 0)"/>
     <use xlink:href="#DejaVuSans-72" transform="translate(185.986328 0)"/>
     <use xlink:href="#DejaVuSans-6d" transform="translate(225.349609 0)"/>
     <use xlink:href="#DejaVuSans-69" transform="translate(322.761719 0)"/>
     <use xlink:href="#DejaVuSans-73" transform="translate(350.544922 0)"/>
     <use xlink:href="#DejaVuSans-74" transform="translate(402.644531 0)"/>
     <use xlink:href="#DejaVuSans-6f" transform="translate(441.853516 0)"/>
     <use xlink:href="#DejaVuSans-72" transform="translate(503.035156 0)"/>
     <use xlink:href="#DejaVuSans-20" transform="translate(544.148438 0)"/>
     <use xlink:href="#DejaVuSans-4d" transform="translate(575.935547 0)"/>
     <use xlink:href="#DejaVuSans-6f" transform="translate(662.214844 0)"/>
     <use xlink:href="#DejaVuSans-64" transform="translate(723.396484 0)"/>
     <use xlink:href="#DejaVuSans-65" transform="translate(786.873047 0)"/>
     <use xlink:href="#DejaVuSans-6c" transform="translate(848.396484 0)"/>
     <use xlink:href="#DejaVuSans-20" transform="translate(876.179688 0)"/>
     <use xlink:href="#DejaVuSans-46" transform="translate(907.966797 0)"/>
     <use xlink:href="#DejaVuSans-69" transform="translate(958.236328 0)"/>
     <use xlink:href="#DejaVuSans-74" transform="translate(986.019531 0)"/>
     <use xlink:href="#DejaVuSans-20" transform="translate(1025.228516 0)"/>
     <use xlink:href="#DejaVuSans-76" transform="translate(1057.015625 0)"/>
     <use xlink:href="#DejaVuSans-73" transform="translate(1116.195312 0)"/>
     <use xlink:href="#DejaVuSans-2e" transform="translate(1168.294922 0)"/>
     <use xlink:href="#DejaVuSans-20" transform="translate(1200.082031 0)"/>
     <use xlink:href="#DejaVuSans-4d" transform="translate(1231.869141 0)"/>
     <use xlink:href="#DejaVuSans-65" transform="translate(1318.148438 0)"/>
     <use xlink:href="#DejaVuSans-61" transform="translate(1379.671875 0)"/>
     <use xlink:href="#DejaVuSans-73" transform="translate(1440.951172 0)"/>
     <use xlink:href="#DejaVuSans-75" transform="translate(1493.050781 0)"/>
     <use xlink:href="#DejaVuSans-72" transform="translate(1556.429688 0)"/>
     <use xlink:href="#DejaVuSans-65" transform="translate(1595.292969 0)"/>
     <use xlink:href="#DejaVuSans-64" transform="translate(1656.816406 0)"/>
     <use xlink:href="#DejaVuSans-20" transform="translate(1720.292969 0)"/>
     <use xlink:href="#DejaVuSans-44" transform="translate(1752.080078 0)"/>
     <use xlink:href="#DejaVuSans-61" transform="translate(1829.082031 0)"/>
     <use xlink:href="#DejaVuSans-74" transform="translate(1890.361328 0)"/>
     <use xlink:href="#DejaVuSans-61" transform="translate(1929.570312 0)"/>
    </g>
   </g>
  </g>
  <g id="axes_2">
   <g id="matplotlib.axis_3">
    <g id="ytick_8">
     <g id="line2d_34">
      <defs>
       <path id="m8508fe258b" d="M 0 0 
L 3.5 0 
" style="stroke: #000000; stroke-width: 0.8"/>
      </defs>
      <g>
       <use xlink:href="#m8508fe258b" x="606.85" y="349.784517" style="stroke: #000000; stroke-width: 0.8"/>
      </g>
     </g>
     <g id="text_19">
      <!-- 0 -->
      <g transform="translate(613.85 353.583736) scale(0.1 -0.1)">
       <use xlink:href="#DejaVuSans-30"/>
      </g>
     </g>
    </g>
    <g id="ytick_9">
     <g id="line2d_35">
      <g>
       <use xlink:href="#m8508fe258b" x="606.85" y="286.788216" style="stroke: #000000; stroke-width: 0.8"/>
      </g>
     </g>
     <g id="text_20">
      <!-- 1 -->
      <g transform="translate(613.85 290.587434) scale(0.1 -0.1)">
       <use xlink:href="#DejaVuSans-31"/>
      </g>
     </g>
    </g>
    <g id="ytick_10">
     <g id="line2d_36">
      <g>
       <use xlink:href="#m8508fe258b" x="606.85" y="223.791915" style="stroke: #000000; stroke-width: 0.8"/>
      </g>
     </g>
     <g id="text_21">
      <!-- 2 -->
      <g transform="translate(613.85 227.591133) scale(0.1 -0.1)">
       <use xlink:href="#DejaVuSans-32"/>
      </g>
     </g>
    </g>
    <g id="ytick_11">
     <g id="line2d_37">
      <g>
       <use xlink:href="#m8508fe258b" x="606.85" y="160.795614" style="stroke: #000000; stroke-width: 0.8"/>
      </g>
     </g>
     <g id="text_22">
      <!-- 3 -->
      <g transform="translate(613.85 164.594832) scale(0.1 -0.1)">
       <defs>
        <path id="DejaVuSans-33" d="M 2597 2516 
Q 3050 2419 3304 2112 
Q 3559 1806 3559 1356 
Q 3559 666 3084 287 
Q 2609 -91 1734 -91 
Q 1441 -91 1130 -33 
Q 819 25 488 141 
L 488 750 
Q 750 597 1062 519 
Q 1375 441 1716 441 
Q 2309 441 2620 675 
Q 2931 909 2931 1356 
Q 2931 1769 2642 2001 
Q 2353 2234 1838 2234 
L 1294 2234 
L 1294 2753 
L 1863 2753 
Q 2328 2753 2575 2939 
Q 2822 3125 2822 3475 
Q 2822 3834 2567 4026 
Q 2313 4219 1838 4219 
Q 1578 4219 1281 4162 
Q 984 4106 628 3988 
L 628 4550 
Q 988 4650 1302 4700 
Q 1616 4750 1894 4750 
Q 2613 4750 3031 4423 
Q 3450 4097 3450 3541 
Q 3450 3153 3228 2886 
Q 3006 2619 2597 2516 
z
" transform="scale(0.015625)"/>
       </defs>
       <use xlink:href="#DejaVuSans-33"/>
      </g>
     </g>
    </g>
    <g id="ytick_12">
     <g id="line2d_38">
      <g>
       <use xlink:href="#m8508fe258b" x="606.85" y="97.799312" style="stroke: #000000; stroke-width: 0.8"/>
      </g>
     </g>
     <g id="text_23">
      <!-- 4 -->
      <g transform="translate(613.85 101.598531) scale(0.1 -0.1)">
       <defs>
        <path id="DejaVuSans-34" d="M 2419 4116 
L 825 1625 
L 2419 1625 
L 2419 4116 
z
M 2253 4666 
L 3047 4666 
L 3047 1625 
L 3713 1625 
L 3713 1100 
L 3047 1100 
L 3047 0 
L 2419 0 
L 2419 1100 
L 313 1100 
L 313 1709 
L 2253 4666 
z
" transform="scale(0.015625)"/>
       </defs>
       <use xlink:href="#DejaVuSans-34"/>
      </g>
     </g>
    </g>
    <g id="text_24">
     <!-- Error (°C) -->
     <g transform="translate(633.330625 253.060625) rotate(-90) scale(0.12 -0.12)">
      <defs>
       <path id="DejaVuSans-45" d="M 628 4666 
L 3578 4666 
L 3578 4134 
L 1259 4134 
L 1259 2753 
L 3481 2753 
L 3481 2222 
L 1259 2222 
L 1259 531 
L 3634 531 
L 3634 0 
L 628 0 
L 628 4666 
z
" transform="scale(0.015625)"/>
      </defs>
      <use xlink:href="#DejaVuSans-45"/>
      <use xlink:href="#DejaVuSans-72" transform="translate(63.183594 0)"/>
      <use xlink:href="#DejaVuSans-72" transform="translate(102.546875 0)"/>
      <use xlink:href="#DejaVuSans-6f" transform="translate(141.410156 0)"/>
      <use xlink:href="#DejaVuSans-72" transform="translate(202.591797 0)"/>
      <use xlink:href="#DejaVuSans-20" transform="translate(243.705078 0)"/>
      <use xlink:href="#DejaVuSans-28" transform="translate(275.492188 0)"/>
      <use xlink:href="#DejaVuSans-b0" transform="translate(314.505859 0)"/>
      <use xlink:href="#DejaVuSans-43" transform="translate(364.505859 0)"/>
      <use xlink:href="#DejaVuSans-29" transform="translate(434.330078 0)"/>
     </g>
    </g>
   </g>
   <g id="line2d_39">
    <path d="M 581.799091 345.128617 
L 555.410914 345.710011 
L 530.355474 345.760811 
L 484.775896 346.54464 
L 463.985212 347.093818 
L 444.260716 347.253936 
L 425.868957 348.138538 
L 408.276839 348.171143 
L 391.75091 348.487225 
L 376.024623 348.288623 
L 347.504069 349.476542 
L 334.283325 349.468561 
L 298.939162 350.202886 
L 278.441679 350.702856 
L 268.979252 350.772931 
L 260.04992 351.063771 
L 221.8537 351.751233 
L 215.376603 352.072141 
L 209.192707 352.009158 
L 203.355322 352.292353 
L 197.784485 352.253328 
L 178.193263 352.604821 
L 173.875198 352.526241 
L 169.797025 352.88616 
L 165.87878 352.617962 
L 162.173774 352.737353 
L 158.65535 353.003468 
L 155.296855 353.108973 
L 152.071633 352.671531 
L 149.032995 352.916486 
L 140.716721 352.921961 
L 138.184522 352.538927 
L 133.493291 352.485396 
L 131.307604 352.444986 
L 129.228535 352.616735 
L 127.229431 352.330432 
L 125.336945 352.585492 
L 123.524424 352.672978 
L 121.765212 351.734306 
L 120.11262 351.856472 
L 118.539991 352.262751 
L 117.020672 352.009442 
L 115.581317 352.341457 
L 114.195271 352.249574 
L 112.862535 351.822265 
L 111.583108 351.161522 
L 110.383645 351.800938 
L 109.210838 351.103411 
L 108.091339 350.574272 
L 107.02515 350.381689 
L 106.012271 350.71307 
L 105.034042 350.545433 
L 104.098461 350.498829 
L 99.961648 349.670043 
L 99.231309 349.363324 
L 98.532955 349.279257 
L 95.433011 348.335467 
L 94.886589 348.384092 
L 93.364604 347.638289 
L 92.898147 347.682046 
L 92.447682 347.463374 
L 92.015875 347.460903 
L 91.597396 346.989455 
L 91.197575 346.961869 
L 90.811082 346.652763 
L 90.083408 346.466195 
L 89.739562 346.346037 
L 89.409043 346.349128 
L 89.089187 346.057964 
L 88.48679 346.042005 
L 87.927041 345.989863 
L 87.660493 345.561761 
L 87.404608 345.406893 
L 87.159385 345.655992 
L 86.919492 345.011889 
L 86.255789 344.927943 
L 86.050548 345.134865 
L 85.850638 344.779773 
L 85.658724 344.784483 
L 85.474806 345.280314 
L 85.293554 344.501444 
L 85.122964 345.364836 
L 84.792445 344.633224 
L 84.637848 345.228596 
L 84.339315 344.450908 
L 84.20071 345.534587 
L 84.062106 344.510781 
L 83.931497 345.128097 
L 83.803555 344.96347 
L 83.680943 345.400949 
L 83.560997 345.154271 
L 83.334432 345.705887 
L 83.225147 345.162046 
L 83.019906 345.924044 
L 82.921283 345.777846 
L 82.827992 347.126148 
L 82.7347 346.495387 
L 82.64674 347.578502 
L 82.558779 346.682845 
L 82.47615 347.748893 
L 82.39352 346.852504 
L 82.166955 349.579574 
L 82.094987 349.674814 
L 82.025685 350.228158 
L 81.956382 348.837484 
L 81.767134 351.131458 
L 81.705828 349.902469 
L 81.649853 352.502218 
L 81.591213 350.325303 
L 81.43395 354.026143 
L 81.383306 353.786311 
L 81.242036 355.973989 
L 81.196723 355.505522 
L 81.031463 359.235934 
L 80.991481 357.772072 
L 80.916848 358.259854 
L 80.780909 362.128484 
L 80.780909 362.128484 
" clip-path="url(#p7c81679780)" style="fill: none; stroke-dasharray: 1.5,2.475; stroke-dashoffset: 0; stroke: #d62728; stroke-width: 1.5"/>
   </g>
   <g id="line2d_40">
    <path d="M 581.799091 76.932727 
L 555.410914 83.791214 
L 530.355474 90.102753 
L 506.899317 96.680784 
L 484.775896 103.132128 
L 444.260716 115.817205 
L 425.868957 122.536334 
L 408.276839 128.414039 
L 391.75091 134.47947 
L 376.024623 140.007318 
L 361.364525 146.202206 
L 347.504069 152.297819 
L 334.283325 157.790505 
L 321.835569 163.433472 
L 298.939162 174.544589 
L 288.410546 180.007108 
L 268.979252 190.524846 
L 251.573717 200.899721 
L 235.927395 210.862778 
L 228.703964 215.699734 
L 221.8537 220.468159 
L 215.376603 225.363344 
L 209.192707 229.833403 
L 203.355322 234.555906 
L 197.784485 238.909855 
L 192.506849 243.336347 
L 182.724566 251.928105 
L 173.875198 260.079693 
L 169.797025 264.393217 
L 165.87878 268.049133 
L 162.173774 271.999801 
L 155.296855 279.820695 
L 152.071633 283.041038 
L 146.12763 290.355744 
L 138.184522 300.048409 
L 131.307604 309.417607 
L 129.228535 312.597507 
L 127.229431 315.272765 
L 123.524424 321.291999 
L 121.765212 323.13797 
L 120.11262 325.930342 
L 118.539991 328.927613 
L 117.020672 331.224597 
L 115.581317 334.015948 
L 114.195271 336.332366 
L 112.862535 338.257781 
L 111.583108 339.889534 
L 110.383645 342.707769 
L 108.091339 345.721318 
L 107.02515 347.532681 
L 106.012271 349.784517 
L 97.861256 363.784033 
L 95.433011 367.438975 
L 94.886589 368.412403 
L 92.015875 371.657095 
L 91.597396 371.64972 
L 91.197575 372.016644 
L 90.811082 372.037335 
L 90.440581 372.247924 
L 89.409043 372.387273 
L 89.089187 372.094578 
L 88.782657 372.070366 
L 88.201584 371.609025 
L 87.927041 371.36336 
L 87.404608 370.051943 
L 87.159385 369.842082 
L 86.690261 368.027026 
L 86.050548 366.032255 
L 85.658724 363.906935 
L 85.474806 363.428083 
L 85.293554 361.588773 
L 85.122964 361.355084 
L 84.20071 353.497707 
L 83.803555 348.02356 
L 83.446381 343.324367 
L 82.64674 327.859158 
L 82.238922 314.944475 
L 82.166955 314.21782 
L 81.649853 292.764193 
L 81.383306 276.740213 
L 81.154075 261.249231 
L 80.780909 224.070147 
L 80.780909 224.070147 
" clip-path="url(#p7c81679780)" style="fill: none; stroke-dasharray: 9.6,2.4,1.5,2.4; stroke-dashoffset: 0; stroke: #9467bd; stroke-width: 1.5"/>
   </g>
   <g id="patch_7">
    <path d="M 55.73 387.16 
L 55.73 62.16 
" style="fill: none; stroke: #000000; stroke-width: 0.8; stroke-linejoin: miter; stroke-linecap: square"/>
   </g>
   <g id="patch_8">
    <path d="M 606.85 387.16 
L 606.85 62.16 
" style="fill: none; stroke: #000000; stroke-width: 0.8; stroke-linejoin: miter; stroke-linecap: square"/>
   </g>
   <g id="patch_9">
    <path d="M 55.73 387.16 
L 606.85 387.16 
" style="fill: none; stroke: #000000; stroke-width: 0.8; stroke-linejoin: miter; stroke-linecap: square"/>
   </g>
   <g id="patch_10">
    <path d="M 55.73 62.16 
L 606.85 62.16 
" style="fill: none; stroke: #000000; stroke-width: 0.8; stroke-linejoin: miter; stroke-linecap: square"/>
   </g>
  </g>
  <g id="legend_1">
   <g id="line2d_41">
    <g>
     <use xlink:href="#m488a1348f1" x="385.120313" y="13.098437" style="fill: #1f77b4; stroke: #1f77b4"/>
    </g>
   </g>
   <g id="text_25">
    <!-- Measured -->
    <g transform="translate(403.120313 16.598437) scale(0.1 -0.1)">
     <use xlink:href="#DejaVuSans-4d"/>
     <use xlink:href="#DejaVuSans-65" transform="translate(86.279297 0)"/>
     <use xlink:href="#DejaVuSans-61" transform="translate(147.802734 0)"/>
     <use xlink:href="#DejaVuSans-73" transform="translate(209.082031 0)"/>
     <use xlink:href="#DejaVuSans-75" transform="translate(261.181641 0)"/>
     <use xlink:href="#DejaVuSans-72" transform="translate(324.560547 0)"/>
     <use xlink:href="#DejaVuSans-65" transform="translate(363.423828 0)"/>
     <use xlink:href="#DejaVuSans-64" transform="translate(424.947266 0)"/>
    </g>
   </g>
   <g id="line2d_42">
    <path d="M 375.120313 27.776563 
L 385.120313 27.776563 
L 395.120313 27.776563 
" style="fill: none; stroke: #ff7f0e; stroke-width: 2; stroke-linecap: square"/>
   </g>
   <g id="text_26">
    <!-- Steinhart–Hart Fit -->
    <g transform="translate(403.120313 31.276563) scale(0.1 -0.1)">
     <defs>
      <path id="DejaVuSans-53" d="M 3425 4513 
L 3425 3897 
Q 3066 4069 2747 4153 
Q 2428 4238 2131 4238 
Q 1616 4238 1336 4038 
Q 1056 3838 1056 3469 
Q 1056 3159 1242 3001 
Q 1428 2844 1947 2747 
L 2328 2669 
Q 3034 2534 3370 2195 
Q 3706 1856 3706 1288 
Q 3706 609 3251 259 
Q 2797 -91 1919 -91 
Q 1588 -91 1214 -16 
Q 841 59 441 206 
L 441 856 
Q 825 641 1194 531 
Q 1563 422 1919 422 
Q 2459 422 2753 634 
Q 3047 847 3047 1241 
Q 3047 1584 2836 1778 
Q 2625 1972 2144 2069 
L 1759 2144 
Q 1053 2284 737 2584 
Q 422 2884 422 3419 
Q 422 4038 858 4394 
Q 1294 4750 2059 4750 
Q 2388 4750 2728 4690 
Q 3069 4631 3425 4513 
z
" transform="scale(0.015625)"/>
      <path id="DejaVuSans-2013" d="M 313 1978 
L 2888 1978 
L 2888 1528 
L 313 1528 
L 313 1978 
z
" transform="scale(0.015625)"/>
      <path id="DejaVuSans-48" d="M 628 4666 
L 1259 4666 
L 1259 2753 
L 3553 2753 
L 3553 4666 
L 4184 4666 
L 4184 0 
L 3553 0 
L 3553 2222 
L 1259 2222 
L 1259 0 
L 628 0 
L 628 4666 
z
" transform="scale(0.015625)"/>
     </defs>
     <use xlink:href="#DejaVuSans-53"/>
     <use xlink:href="#DejaVuSans-74" transform="translate(63.476562 0)"/>
     <use xlink:href="#DejaVuSans-65" transform="translate(102.685547 0)"/>
     <use xlink:href="#DejaVuSans-69" transform="translate(164.208984 0)"/>
     <use xlink:href="#DejaVuSans-6e" transform="translate(191.992188 0)"/>
     <use xlink:href="#DejaVuSans-68" transform="translate(255.371094 0)"/>
     <use xlink:href="#DejaVuSans-61" transform="translate(318.75 0)"/>
     <use xlink:href="#DejaVuSans-72" transform="translate(380.029297 0)"/>
     <use xlink:href="#DejaVuSans-74" transform="translate(421.142578 0)"/>
     <use xlink:href="#DejaVuSans-2013" transform="translate(460.351562 0)"/>
     <use xlink:href="#DejaVuSans-48" transform="translate(510.351562 0)"/>
     <use xlink:href="#DejaVuSans-61" transform="translate(585.546875 0)"/>
     <use xlink:href="#DejaVuSans-72" transform="translate(646.826172 0)"/>
     <use xlink:href="#DejaVuSans-74" transform="translate(687.939453 0)"/>
     <use xlink:href="#DejaVuSans-20" transform="translate(727.148438 0)"/>
     <use xlink:href="#DejaVuSans-46" transform="translate(758.935547 0)"/>
     <use xlink:href="#DejaVuSans-69" transform="translate(809.205078 0)"/>
     <use xlink:href="#DejaVuSans-74" transform="translate(836.988281 0)"/>
    </g>
   </g>
   <g id="line2d_43">
    <path d="M 375.120313 42.454687 
L 385.120313 42.454687 
L 395.120313 42.454687 
" style="fill: none; stroke-dasharray: 7.4,3.2; stroke-dashoffset: 0; stroke: #2ca02c; stroke-width: 2"/>
   </g>
   <g id="text_27">
    <!-- Beta Model Fit -->
    <g transform="translate(403.120313 45.954687) scale(0.1 -0.1)">
     <defs>
      <path id="DejaVuSans-42" d="M 1259 2228 
L 1259 519 
L 2272 519 
Q 2781 519 3026 730 
Q 3272 941 3272 1375 
Q 3272 1813 3026 2020 
Q 2781 2228 2272 2228 
L 1259 2228 
z
M 1259 4147 
L 1259 2741 
L 2194 2741 
Q 2656 2741 2882 2914 
Q 3109 3088 3109 3444 
Q 3109 3797 2882 3972 
Q 2656 4147 2194 4147 
L 1259 4147 
z
M 628 4666 
L 2241 4666 
Q 2963 4666 3353 4366 
Q 3744 4066 3744 3513 
Q 3744 3084 3544 2831 
Q 3344 2578 2956 2516 
Q 3422 2416 3680 2098 
Q 3938 1781 3938 1306 
Q 3938 681 3513 340 
Q 3088 0 2303 0 
L 628 0 
L 628 4666 
z
" transform="scale(0.015625)"/>
     </defs>
     <use xlink:href="#DejaVuSans-42"/>
     <use xlink:href="#DejaVuSans-65" transform="translate(68.603516 0)"/>
     <use xlink:href="#DejaVuSans-74" transform="translate(130.126953 0)"/>
     <use xlink:href="#DejaVuSans-61" transform="translate(169.335938 0)"/>
     <use xlink:href="#DejaVuSans-20" transform="translate(230.615234 0)"/>
     <use xlink:href="#DejaVuSans-4d" transform="translate(262.402344 0)"/>
     <use xlink:href="#DejaVuSans-6f" transform="translate(348.681641 0)"/>
     <use xlink:href="#DejaVuSans-64" transform="translate(409.863281 0)"/>
     <use xlink:href="#DejaVuSans-65" transform="translate(473.339844 0)"/>
     <use xlink:href="#DejaVuSans-6c" transform="translate(534.863281 0)"/>
     <use xlink:href="#DejaVuSans-20" transform="translate(562.646484 0)"/>
     <use xlink:href="#DejaVuSans-46" transform="translate(594.433594 0)"/>
     <use xlink:href="#DejaVuSans-69" transform="translate(644.703125 0)"/>
     <use xlink:href="#DejaVuSans-74" transform="translate(672.486328 0)"/>
    </g>
   </g>
   <g id="line2d_44">
    <path d="M 510.7375 13.098437 
L 520.7375 13.098437 
L 530.7375 13.098437 
" style="fill: none; stroke-dasharray: 1.5,2.475; stroke-dashoffset: 0; stroke: #d62728; stroke-width: 1.5"/>
   </g>
   <g id="text_28">
    <!-- Steinhart–Hart Error -->
    <g transform="translate(538.7375 16.598437) scale(0.1 -0.1)">
     <use xlink:href="#DejaVuSans-53"/>
     <use xlink:href="#DejaVuSans-74" transform="translate(63.476562 0)"/>
     <use xlink:href="#DejaVuSans-65" transform="translate(102.685547 0)"/>
     <use xlink:href="#DejaVuSans-69" transform="translate(164.208984 0)"/>
     <use xlink:href="#DejaVuSans-6e" transform="translate(191.992188 0)"/>
     <use xlink:href="#DejaVuSans-68" transform="translate(255.371094 0)"/>
     <use xlink:href="#DejaVuSans-61" transform="translate(318.75 0)"/>
     <use xlink:href="#DejaVuSans-72" transform="translate(380.029297 0)"/>
     <use xlink:href="#DejaVuSans-74" transform="translate(421.142578 0)"/>
     <use xlink:href="#DejaVuSans-2013" transform="translate(460.351562 0)"/>
     <use xlink:href="#DejaVuSans-48" transform="translate(510.351562 0)"/>
     <use xlink:href="#DejaVuSans-61" transform="translate(585.546875 0)"/>
     <use xlink:href="#DejaVuSans-72" transform="translate(646.826172 0)"/>
     <use xlink:href="#DejaVuSans-74" transform="translate(687.939453 0)"/>
     <use xlink:href="#DejaVuSans-20" transform="translate(727.148438 0)"/>
     <use xlink:href="#DejaVuSans-45" transform="translate(758.935547 0)"/>
     <use xlink:href="#DejaVuSans-72" transform="translate(822.119141 0)"/>
     <use xlink:href="#DejaVuSans-72" transform="translate(861.482422 0)"/>
     <use xlink:href="#DejaVuSans-6f" transform="translate(900.345703 0)"/>
     <use xlink:href="#DejaVuSans-72" transform="translate(961.527344 0)"/>
    </g>
   </g>
   <g id="line2d_45">
    <path d="M 510.7375 27.776563 
L 520.7375 27.776563 
L 530.7375 27.776563 
" style="fill: none; stroke-dasharray: 9.6,2.4,1.5,2.4; stroke-dashoffset: 0; stroke: #9467bd; stroke-width: 1.5"/>
   </g>
   <g id="text_29">
    <!-- Beta Model Error -->
    <g transform="translate(538.7375 31.276563) scale(0.1 -0.1)">
     <use xlink:href="#DejaVuSans-42"/>
     <use xlink:href="#DejaVuSans-65" transform="translate(68.603516 0)"/>
     <use xlink:href="#DejaVuSans-74" transform="translate(130.126953 0)"/>
     <use xlink:href="#DejaVuSans-61" transform="translate(169.335938 0)"/>
     <use xlink:href="#DejaVuSans-20" transform="translate(230.615234 0)"/>
     <use xlink:href="#DejaVuSans-4d" transform="translate(262.402344 0)"/>
     <use xlink:href="#DejaVuSans-6f" transform="translate(348.681641 0)"/>
     <use xlink:href="#DejaVuSans-64" transform="translate(409.863281 0)"/>
     <use xlink:href="#DejaVuSans-65" transform="translate(473.339844 0)"/>
     <use xlink:href="#DejaVuSans-6c" transform="translate(534.863281 0)"/>
     <use xlink:href="#DejaVuSans-20" transform="translate(562.646484 0)"/>
     <use xlink:href="#DejaVuSans-45" transform="translate(594.433594 0)"/>
     <use xlink:href="#DejaVuSans-72" transform="translate(657.617188 0)"/>
     <use xlink:href="#DejaVuSans-72" transform="translate(696.980469 0)"/>
     <use xlink:href="#DejaVuSans-6f" transform="translate(735.84375 0)"/>
     <use xlink:href="#DejaVuSans-72" transform="translate(797.025391 0)"/>
    </g>
   </g>
  </g>
 </g>
 <defs>
  <clipPath id="p7c81679780">
   <rect x="55.73" y="62.16" width="551.12" height="325"/>
  </clipPath>
 </defs>
</svg>
