<?xml version="1.0" encoding="utf-8" standalone="no"?>
<!DOCTYPE svg PUBLIC "-//W3C//DTD SVG 1.1//EN"
  "http://www.w3.org/Graphics/SVG/1.1/DTD/svg11.dtd">
<svg xmlns:xlink="http://www.w3.org/1999/xlink" width="648pt" height="432pt" viewBox="0 0 648 432" xmlns="http://www.w3.org/2000/svg" version="1.1">
 <metadata>
  <rdf:RDF xmlns:dc="http://purl.org/dc/elements/1.1/" xmlns:cc="http://creativecommons.org/ns#" xmlns:rdf="http://www.w3.org/1999/02/22-rdf-syntax-ns#">
   <cc:Work>
    <dc:type rdf:resource="http://purl.org/dc/dcmitype/StillImage"/>
    <dc:date>2025-08-06T08:26:12.938265</dc:date>
    <dc:format>image/svg+xml</dc:format>
    <dc:creator>
     <cc:Agent>
      <dc:title>Matplotlib v3.10.1, https://matplotlib.org/</dc:title>
     </cc:Agent>
    </dc:creator>
   </cc:Work>
  </rdf:RDF>
 </metadata>
 <defs>
  <style type="text/css">*{stroke-linejoin: round; stroke-linecap: butt}</style>
 </defs>
 <g id="figure_1">
  <g id="patch_1">
   <path d="M 0 432 
L 648 432 
L 648 0 
L 0 0 
z
" style="fill: #ffffff"/>
  </g>
  <g id="axes_1">
   <g id="patch_2">
    <path d="M 55.73 387.16 
L 579.58 387.16 
L 579.58 62.16 
L 55.73 62.16 
z
" style="fill: #ffffff"/>
   </g>
   <g id="matplotlib.axis_1">
    <g id="xtick_1">
     <g id="line2d_1">
      <path d="M 78.188431 387.16 
L 78.188431 62.16 
" clip-path="url(#pe65e4875a6)" style="fill: none; stroke-dasharray: 0.8,1.32; stroke-dashoffset: 0; stroke: #b0b0b0; stroke-opacity: 0.7; stroke-width: 0.8"/>
     </g>
     <g id="line2d_2">
      <defs>
       <path id="ma93706fbc3" d="M 0 0 
L 0 3.5 
" style="stroke: #000000; stroke-width: 0.8"/>
      </defs>
      <g>
       <use xlink:href="#ma93706fbc3" x="78.188431" y="387.16" style="stroke: #000000; stroke-width: 0.8"/>
      </g>
     </g>
     <g id="text_1">
      <!-- 0 -->
      <g transform="translate(75.007181 401.758438) scale(0.1 -0.1)">
       <defs>
        <path id="DejaVuSans-30" d="M 2034 4250 
Q 1547 4250 1301 3770 
Q 1056 3291 1056 2328 
Q 1056 1369 1301 889 
Q 1547 409 2034 409 
Q 2525 409 2770 889 
Q 3016 1369 3016 2328 
Q 3016 3291 2770 3770 
Q 2525 4250 2034 4250 
z
M 2034 4750 
Q 2819 4750 3233 4129 
Q 3647 3509 3647 2328 
Q 3647 1150 3233 529 
Q 2819 -91 2034 -91 
Q 1250 -91 836 529 
Q 422 1150 422 2328 
Q 422 3509 836 4129 
Q 1250 4750 2034 4750 
z
" transform="scale(0.015625)"/>
       </defs>
       <use xlink:href="#DejaVuSans-30"/>
      </g>
     </g>
    </g>
    <g id="xtick_2">
     <g id="line2d_3">
      <path d="M 141.527981 387.16 
L 141.527981 62.16 
" clip-path="url(#pe65e4875a6)" style="fill: none; stroke-dasharray: 0.8,1.32; stroke-dashoffset: 0; stroke: #b0b0b0; stroke-opacity: 0.7; stroke-width: 0.8"/>
     </g>
     <g id="line2d_4">
      <g>
       <use xlink:href="#ma93706fbc3" x="141.527981" y="387.16" style="stroke: #000000; stroke-width: 0.8"/>
      </g>
     </g>
     <g id="text_2">
      <!-- 25 -->
      <g transform="translate(135.165481 401.758438) scale(0.1 -0.1)">
       <defs>
        <path id="DejaVuSans-32" d="M 1228 531 
L 3431 531 
L 3431 0 
L 469 0 
L 469 531 
Q 828 903 1448 1529 
Q 2069 2156 2228 2338 
Q 2531 2678 2651 2914 
Q 2772 3150 2772 3378 
Q 2772 3750 2511 3984 
Q 2250 4219 1831 4219 
Q 1534 4219 1204 4116 
Q 875 4013 500 3803 
L 500 4441 
Q 881 4594 1212 4672 
Q 1544 4750 1819 4750 
Q 2544 4750 2975 4387 
Q 3406 4025 3406 3419 
Q 3406 3131 3298 2873 
Q 3191 2616 2906 2266 
Q 2828 2175 2409 1742 
Q 1991 1309 1228 531 
z
" transform="scale(0.015625)"/>
        <path id="DejaVuSans-35" d="M 691 4666 
L 3169 4666 
L 3169 4134 
L 1269 4134 
L 1269 2991 
Q 1406 3038 1543 3061 
Q 1681 3084 1819 3084 
Q 2600 3084 3056 2656 
Q 3513 2228 3513 1497 
Q 3513 744 3044 326 
Q 2575 -91 1722 -91 
Q 1428 -91 1123 -41 
Q 819 9 494 109 
L 494 744 
Q 775 591 1075 516 
Q 1375 441 1709 441 
Q 2250 441 2565 725 
Q 2881 1009 2881 1497 
Q 2881 1984 2565 2268 
Q 2250 2553 1709 2553 
Q 1456 2553 1204 2497 
Q 953 2441 691 2322 
L 691 4666 
z
" transform="scale(0.015625)"/>
       </defs>
       <use xlink:href="#DejaVuSans-32"/>
       <use xlink:href="#DejaVuSans-35" transform="translate(63.623047 0)"/>
      </g>
     </g>
    </g>
    <g id="xtick_3">
     <g id="line2d_5">
      <path d="M 204.86753 387.16 
L 204.86753 62.16 
" clip-path="url(#pe65e4875a6)" style="fill: none; stroke-dasharray: 0.8,1.32; stroke-dashoffset: 0; stroke: #b0b0b0; stroke-opacity: 0.7; stroke-width: 0.8"/>
     </g>
     <g id="line2d_6">
      <g>
       <use xlink:href="#ma93706fbc3" x="204.86753" y="387.16" style="stroke: #000000; stroke-width: 0.8"/>
      </g>
     </g>
     <g id="text_3">
      <!-- 50 -->
      <g transform="translate(198.50503 401.758438) scale(0.1 -0.1)">
       <use xlink:href="#DejaVuSans-35"/>
       <use xlink:href="#DejaVuSans-30" transform="translate(63.623047 0)"/>
      </g>
     </g>
    </g>
    <g id="xtick_4">
     <g id="line2d_7">
      <path d="M 268.20708 387.16 
L 268.20708 62.16 
" clip-path="url(#pe65e4875a6)" style="fill: none; stroke-dasharray: 0.8,1.32; stroke-dashoffset: 0; stroke: #b0b0b0; stroke-opacity: 0.7; stroke-width: 0.8"/>
     </g>
     <g id="line2d_8">
      <g>
       <use xlink:href="#ma93706fbc3" x="268.20708" y="387.16" style="stroke: #000000; stroke-width: 0.8"/>
      </g>
     </g>
     <g id="text_4">
      <!-- 75 -->
      <g transform="translate(261.84458 401.758438) scale(0.1 -0.1)">
       <defs>
        <path id="DejaVuSans-37" d="M 525 4666 
L 3525 4666 
L 3525 4397 
L 1831 0 
L 1172 0 
L 2766 4134 
L 525 4134 
L 525 4666 
z
" transform="scale(0.015625)"/>
       </defs>
       <use xlink:href="#DejaVuSans-37"/>
       <use xlink:href="#DejaVuSans-35" transform="translate(63.623047 0)"/>
      </g>
     </g>
    </g>
    <g id="xtick_5">
     <g id="line2d_9">
      <path d="M 331.54663 387.16 
L 331.54663 62.16 
" clip-path="url(#pe65e4875a6)" style="fill: none; stroke-dasharray: 0.8,1.32; stroke-dashoffset: 0; stroke: #b0b0b0; stroke-opacity: 0.7; stroke-width: 0.8"/>
     </g>
     <g id="line2d_10">
      <g>
       <use xlink:href="#ma93706fbc3" x="331.54663" y="387.16" style="stroke: #000000; stroke-width: 0.8"/>
      </g>
     </g>
     <g id="text_5">
      <!-- 100 -->
      <g transform="translate(322.00288 401.758438) scale(0.1 -0.1)">
       <defs>
        <path id="DejaVuSans-31" d="M 794 531 
L 1825 531 
L 1825 4091 
L 703 3866 
L 703 4441 
L 1819 4666 
L 2450 4666 
L 2450 531 
L 3481 531 
L 3481 0 
L 794 0 
L 794 531 
z
" transform="scale(0.015625)"/>
       </defs>
       <use xlink:href="#DejaVuSans-31"/>
       <use xlink:href="#DejaVuSans-30" transform="translate(63.623047 0)"/>
       <use xlink:href="#DejaVuSans-30" transform="translate(127.246094 0)"/>
      </g>
     </g>
    </g>
    <g id="xtick_6">
     <g id="line2d_11">
      <path d="M 394.88618 387.16 
L 394.88618 62.16 
" clip-path="url(#pe65e4875a6)" style="fill: none; stroke-dasharray: 0.8,1.32; stroke-dashoffset: 0; stroke: #b0b0b0; stroke-opacity: 0.7; stroke-width: 0.8"/>
     </g>
     <g id="line2d_12">
      <g>
       <use xlink:href="#ma93706fbc3" x="394.88618" y="387.16" style="stroke: #000000; stroke-width: 0.8"/>
      </g>
     </g>
     <g id="text_6">
      <!-- 125 -->
      <g transform="translate(385.34243 401.758438) scale(0.1 -0.1)">
       <use xlink:href="#DejaVuSans-31"/>
       <use xlink:href="#DejaVuSans-32" transform="translate(63.623047 0)"/>
       <use xlink:href="#DejaVuSans-35" transform="translate(127.246094 0)"/>
      </g>
     </g>
    </g>
    <g id="xtick_7">
     <g id="line2d_13">
      <path d="M 458.22573 387.16 
L 458.22573 62.16 
" clip-path="url(#pe65e4875a6)" style="fill: none; stroke-dasharray: 0.8,1.32; stroke-dashoffset: 0; stroke: #b0b0b0; stroke-opacity: 0.7; stroke-width: 0.8"/>
     </g>
     <g id="line2d_14">
      <g>
       <use xlink:href="#ma93706fbc3" x="458.22573" y="387.16" style="stroke: #000000; stroke-width: 0.8"/>
      </g>
     </g>
     <g id="text_7">
      <!-- 150 -->
      <g transform="translate(448.68198 401.758438) scale(0.1 -0.1)">
       <use xlink:href="#DejaVuSans-31"/>
       <use xlink:href="#DejaVuSans-35" transform="translate(63.623047 0)"/>
       <use xlink:href="#DejaVuSans-30" transform="translate(127.246094 0)"/>
      </g>
     </g>
    </g>
    <g id="xtick_8">
     <g id="line2d_15">
      <path d="M 521.565279 387.16 
L 521.565279 62.16 
" clip-path="url(#pe65e4875a6)" style="fill: none; stroke-dasharray: 0.8,1.32; stroke-dashoffset: 0; stroke: #b0b0b0; stroke-opacity: 0.7; stroke-width: 0.8"/>
     </g>
     <g id="line2d_16">
      <g>
       <use xlink:href="#ma93706fbc3" x="521.565279" y="387.16" style="stroke: #000000; stroke-width: 0.8"/>
      </g>
     </g>
     <g id="text_8">
      <!-- 175 -->
      <g transform="translate(512.021529 401.758438) scale(0.1 -0.1)">
       <use xlink:href="#DejaVuSans-31"/>
       <use xlink:href="#DejaVuSans-37" transform="translate(63.623047 0)"/>
       <use xlink:href="#DejaVuSans-35" transform="translate(127.246094 0)"/>
      </g>
     </g>
    </g>
    <g id="text_9">
     <!-- Resistance (kΩ) -->
     <g transform="translate(270.675 416.95625) scale(0.12 -0.12)">
      <defs>
       <path id="DejaVuSans-52" d="M 2841 2188 
Q 3044 2119 3236 1894 
Q 3428 1669 3622 1275 
L 4263 0 
L 3584 0 
L 2988 1197 
Q 2756 1666 2539 1819 
Q 2322 1972 1947 1972 
L 1259 1972 
L 1259 0 
L 628 0 
L 628 4666 
L 2053 4666 
Q 2853 4666 3247 4331 
Q 3641 3997 3641 3322 
Q 3641 2881 3436 2590 
Q 3231 2300 2841 2188 
z
M 1259 4147 
L 1259 2491 
L 2053 2491 
Q 2509 2491 2742 2702 
Q 2975 2913 2975 3322 
Q 2975 3731 2742 3939 
Q 2509 4147 2053 4147 
L 1259 4147 
z
" transform="scale(0.015625)"/>
       <path id="DejaVuSans-65" d="M 3597 1894 
L 3597 1613 
L 953 1613 
Q 991 1019 1311 708 
Q 1631 397 2203 397 
Q 2534 397 2845 478 
Q 3156 559 3463 722 
L 3463 178 
Q 3153 47 2828 -22 
Q 2503 -91 2169 -91 
Q 1331 -91 842 396 
Q 353 884 353 1716 
Q 353 2575 817 3079 
Q 1281 3584 2069 3584 
Q 2775 3584 3186 3129 
Q 3597 2675 3597 1894 
z
M 3022 2063 
Q 3016 2534 2758 2815 
Q 2500 3097 2075 3097 
Q 1594 3097 1305 2825 
Q 1016 2553 972 2059 
L 3022 2063 
z
" transform="scale(0.015625)"/>
       <path id="DejaVuSans-73" d="M 2834 3397 
L 2834 2853 
Q 2591 2978 2328 3040 
Q 2066 3103 1784 3103 
Q 1356 3103 1142 2972 
Q 928 2841 928 2578 
Q 928 2378 1081 2264 
Q 1234 2150 1697 2047 
L 1894 2003 
Q 2506 1872 2764 1633 
Q 3022 1394 3022 966 
Q 3022 478 2636 193 
Q 2250 -91 1575 -91 
Q 1294 -91 989 -36 
Q 684 19 347 128 
L 347 722 
Q 666 556 975 473 
Q 1284 391 1588 391 
Q 1994 391 2212 530 
Q 2431 669 2431 922 
Q 2431 1156 2273 1281 
Q 2116 1406 1581 1522 
L 1381 1569 
Q 847 1681 609 1914 
Q 372 2147 372 2553 
Q 372 3047 722 3315 
Q 1072 3584 1716 3584 
Q 2034 3584 2315 3537 
Q 2597 3491 2834 3397 
z
" transform="scale(0.015625)"/>
       <path id="DejaVuSans-69" d="M 603 3500 
L 1178 3500 
L 1178 0 
L 603 0 
L 603 3500 
z
M 603 4863 
L 1178 4863 
L 1178 4134 
L 603 4134 
L 603 4863 
z
" transform="scale(0.015625)"/>
       <path id="DejaVuSans-74" d="M 1172 4494 
L 1172 3500 
L 2356 3500 
L 2356 3053 
L 1172 3053 
L 1172 1153 
Q 1172 725 1289 603 
Q 1406 481 1766 481 
L 2356 481 
L 2356 0 
L 1766 0 
Q 1100 0 847 248 
Q 594 497 594 1153 
L 594 3053 
L 172 3053 
L 172 3500 
L 594 3500 
L 594 4494 
L 1172 4494 
z
" transform="scale(0.015625)"/>
       <path id="DejaVuSans-61" d="M 2194 1759 
Q 1497 1759 1228 1600 
Q 959 1441 959 1056 
Q 959 750 1161 570 
Q 1363 391 1709 391 
Q 2188 391 2477 730 
Q 2766 1069 2766 1631 
L 2766 1759 
L 2194 1759 
z
M 3341 1997 
L 3341 0 
L 2766 0 
L 2766 531 
Q 2569 213 2275 61 
Q 1981 -91 1556 -91 
Q 1019 -91 701 211 
Q 384 513 384 1019 
Q 384 1609 779 1909 
Q 1175 2209 1959 2209 
L 2766 2209 
L 2766 2266 
Q 2766 2663 2505 2880 
Q 2244 3097 1772 3097 
Q 1472 3097 1187 3025 
Q 903 2953 641 2809 
L 641 3341 
Q 956 3463 1253 3523 
Q 1550 3584 1831 3584 
Q 2591 3584 2966 3190 
Q 3341 2797 3341 1997 
z
" transform="scale(0.015625)"/>
       <path id="DejaVuSans-6e" d="M 3513 2113 
L 3513 0 
L 2938 0 
L 2938 2094 
Q 2938 2591 2744 2837 
Q 2550 3084 2163 3084 
Q 1697 3084 1428 2787 
Q 1159 2491 1159 1978 
L 1159 0 
L 581 0 
L 581 3500 
L 1159 3500 
L 1159 2956 
Q 1366 3272 1645 3428 
Q 1925 3584 2291 3584 
Q 2894 3584 3203 3211 
Q 3513 2838 3513 2113 
z
" transform="scale(0.015625)"/>
       <path id="DejaVuSans-63" d="M 3122 3366 
L 3122 2828 
Q 2878 2963 2633 3030 
Q 2388 3097 2138 3097 
Q 1578 3097 1268 2742 
Q 959 2388 959 1747 
Q 959 1106 1268 751 
Q 1578 397 2138 397 
Q 2388 397 2633 464 
Q 2878 531 3122 666 
L 3122 134 
Q 2881 22 2623 -34 
Q 2366 -91 2075 -91 
Q 1284 -91 818 406 
Q 353 903 353 1747 
Q 353 2603 823 3093 
Q 1294 3584 2113 3584 
Q 2378 3584 2631 3529 
Q 2884 3475 3122 3366 
z
" transform="scale(0.015625)"/>
       <path id="DejaVuSans-20" transform="scale(0.015625)"/>
       <path id="DejaVuSans-28" d="M 1984 4856 
Q 1566 4138 1362 3434 
Q 1159 2731 1159 2009 
Q 1159 1288 1364 580 
Q 1569 -128 1984 -844 
L 1484 -844 
Q 1016 -109 783 600 
Q 550 1309 550 2009 
Q 550 2706 781 3412 
Q 1013 4119 1484 4856 
L 1984 4856 
z
" transform="scale(0.015625)"/>
       <path id="DejaVuSans-6b" d="M 581 4863 
L 1159 4863 
L 1159 1991 
L 2875 3500 
L 3609 3500 
L 1753 1863 
L 3688 0 
L 2938 0 
L 1159 1709 
L 1159 0 
L 581 0 
L 581 4863 
z
" transform="scale(0.015625)"/>
       <path id="DejaVuSans-3a9" d="M 4647 556 
L 4647 0 
L 2772 0 
L 2772 556 
Q 3325 859 3634 1378 
Q 3944 1897 3944 2528 
Q 3944 3278 3531 3731 
Q 3119 4184 2444 4184 
Q 1769 4184 1355 3729 
Q 941 3275 941 2528 
Q 941 1897 1250 1378 
Q 1563 859 2119 556 
L 2119 0 
L 244 0 
L 244 556 
L 1241 556 
Q 747 991 519 1456 
Q 294 1922 294 2497 
Q 294 3491 894 4106 
Q 1491 4722 2444 4722 
Q 3391 4722 3994 4106 
Q 4594 3494 4594 2528 
Q 4594 1922 4372 1459 
Q 4150 997 3647 556 
L 4647 556 
z
" transform="scale(0.015625)"/>
       <path id="DejaVuSans-29" d="M 513 4856 
L 1013 4856 
Q 1481 4119 1714 3412 
Q 1947 2706 1947 2009 
Q 1947 1309 1714 600 
Q 1481 -109 1013 -844 
L 513 -844 
Q 928 -128 1133 580 
Q 1338 1288 1338 2009 
Q 1338 2731 1133 3434 
Q 928 4138 513 4856 
z
" transform="scale(0.015625)"/>
      </defs>
      <use xlink:href="#DejaVuSans-52"/>
      <use xlink:href="#DejaVuSans-65" transform="translate(64.982422 0)"/>
      <use xlink:href="#DejaVuSans-73" transform="translate(126.505859 0)"/>
      <use xlink:href="#DejaVuSans-69" transform="translate(178.605469 0)"/>
      <use xlink:href="#DejaVuSans-73" transform="translate(206.388672 0)"/>
      <use xlink:href="#DejaVuSans-74" transform="translate(258.488281 0)"/>
      <use xlink:href="#DejaVuSans-61" transform="translate(297.697266 0)"/>
      <use xlink:href="#DejaVuSans-6e" transform="translate(358.976562 0)"/>
      <use xlink:href="#DejaVuSans-63" transform="translate(422.355469 0)"/>
      <use xlink:href="#DejaVuSans-65" transform="translate(477.335938 0)"/>
      <use xlink:href="#DejaVuSans-20" transform="translate(538.859375 0)"/>
      <use xlink:href="#DejaVuSans-28" transform="translate(570.646484 0)"/>
      <use xlink:href="#DejaVuSans-6b" transform="translate(609.660156 0)"/>
      <use xlink:href="#DejaVuSans-3a9" transform="translate(667.570312 0)"/>
      <use xlink:href="#DejaVuSans-29" transform="translate(743.986328 0)"/>
     </g>
    </g>
   </g>
   <g id="matplotlib.axis_2">
    <g id="ytick_1">
     <g id="line2d_17">
      <path d="M 55.73 345.848737 
L 579.58 345.848737 
" clip-path="url(#pe65e4875a6)" style="fill: none; stroke-dasharray: 0.8,1.32; stroke-dashoffset: 0; stroke: #b0b0b0; stroke-opacity: 0.7; stroke-width: 0.8"/>
     </g>
     <g id="line2d_18">
      <defs>
       <path id="m3b8ee5f449" d="M 0 0 
L -3.5 0 
" style="stroke: #000000; stroke-width: 0.8"/>
      </defs>
      <g>
       <use xlink:href="#m3b8ee5f449" x="55.73" y="345.848737" style="stroke: #000000; stroke-width: 0.8"/>
      </g>
     </g>
     <g id="text_10">
      <!-- −25 -->
      <g transform="translate(27.625313 349.647956) scale(0.1 -0.1)">
       <defs>
        <path id="DejaVuSans-2212" d="M 678 2272 
L 4684 2272 
L 4684 1741 
L 678 1741 
L 678 2272 
z
" transform="scale(0.015625)"/>
       </defs>
       <use xlink:href="#DejaVuSans-2212"/>
       <use xlink:href="#DejaVuSans-32" transform="translate(83.789062 0)"/>
       <use xlink:href="#DejaVuSans-35" transform="translate(147.412109 0)"/>
      </g>
     </g>
    </g>
    <g id="ytick_2">
     <g id="line2d_19">
      <path d="M 55.73 301.617845 
L 579.58 301.617845 
" clip-path="url(#pe65e4875a6)" style="fill: none; stroke-dasharray: 0.8,1.32; stroke-dashoffset: 0; stroke: #b0b0b0; stroke-opacity: 0.7; stroke-width: 0.8"/>
     </g>
     <g id="line2d_20">
      <g>
       <use xlink:href="#m3b8ee5f449" x="55.73" y="301.617845" style="stroke: #000000; stroke-width: 0.8"/>
      </g>
     </g>
     <g id="text_11">
      <!-- 0 -->
      <g transform="translate(42.3675 305.417064) scale(0.1 -0.1)">
       <use xlink:href="#DejaVuSans-30"/>
      </g>
     </g>
    </g>
    <g id="ytick_3">
     <g id="line2d_21">
      <path d="M 55.73 257.386953 
L 579.58 257.386953 
" clip-path="url(#pe65e4875a6)" style="fill: none; stroke-dasharray: 0.8,1.32; stroke-dashoffset: 0; stroke: #b0b0b0; stroke-opacity: 0.7; stroke-width: 0.8"/>
     </g>
     <g id="line2d_22">
      <g>
       <use xlink:href="#m3b8ee5f449" x="55.73" y="257.386953" style="stroke: #000000; stroke-width: 0.8"/>
      </g>
     </g>
     <g id="text_12">
      <!-- 25 -->
      <g transform="translate(36.005 261.186172) scale(0.1 -0.1)">
       <use xlink:href="#DejaVuSans-32"/>
       <use xlink:href="#DejaVuSans-35" transform="translate(63.623047 0)"/>
      </g>
     </g>
    </g>
    <g id="ytick_4">
     <g id="line2d_23">
      <path d="M 55.73 213.156061 
L 579.58 213.156061 
" clip-path="url(#pe65e4875a6)" style="fill: none; stroke-dasharray: 0.8,1.32; stroke-dashoffset: 0; stroke: #b0b0b0; stroke-opacity: 0.7; stroke-width: 0.8"/>
     </g>
     <g id="line2d_24">
      <g>
       <use xlink:href="#m3b8ee5f449" x="55.73" y="213.156061" style="stroke: #000000; stroke-width: 0.8"/>
      </g>
     </g>
     <g id="text_13">
      <!-- 50 -->
      <g transform="translate(36.005 216.95528) scale(0.1 -0.1)">
       <use xlink:href="#DejaVuSans-35"/>
       <use xlink:href="#DejaVuSans-30" transform="translate(63.623047 0)"/>
      </g>
     </g>
    </g>
    <g id="ytick_5">
     <g id="line2d_25">
      <path d="M 55.73 168.925169 
L 579.58 168.925169 
" clip-path="url(#pe65e4875a6)" style="fill: none; stroke-dasharray: 0.8,1.32; stroke-dashoffset: 0; stroke: #b0b0b0; stroke-opacity: 0.7; stroke-width: 0.8"/>
     </g>
     <g id="line2d_26">
      <g>
       <use xlink:href="#m3b8ee5f449" x="55.73" y="168.925169" style="stroke: #000000; stroke-width: 0.8"/>
      </g>
     </g>
     <g id="text_14">
      <!-- 75 -->
      <g transform="translate(36.005 172.724388) scale(0.1 -0.1)">
       <use xlink:href="#DejaVuSans-37"/>
       <use xlink:href="#DejaVuSans-35" transform="translate(63.623047 0)"/>
      </g>
     </g>
    </g>
    <g id="ytick_6">
     <g id="line2d_27">
      <path d="M 55.73 124.694277 
L 579.58 124.694277 
" clip-path="url(#pe65e4875a6)" style="fill: none; stroke-dasharray: 0.8,1.32; stroke-dashoffset: 0; stroke: #b0b0b0; stroke-opacity: 0.7; stroke-width: 0.8"/>
     </g>
     <g id="line2d_28">
      <g>
       <use xlink:href="#m3b8ee5f449" x="55.73" y="124.694277" style="stroke: #000000; stroke-width: 0.8"/>
      </g>
     </g>
     <g id="text_15">
      <!-- 100 -->
      <g transform="translate(29.6425 128.493495) scale(0.1 -0.1)">
       <use xlink:href="#DejaVuSans-31"/>
       <use xlink:href="#DejaVuSans-30" transform="translate(63.623047 0)"/>
       <use xlink:href="#DejaVuSans-30" transform="translate(127.246094 0)"/>
      </g>
     </g>
    </g>
    <g id="ytick_7">
     <g id="line2d_29">
      <path d="M 55.73 80.463385 
L 579.58 80.463385 
" clip-path="url(#pe65e4875a6)" style="fill: none; stroke-dasharray: 0.8,1.32; stroke-dashoffset: 0; stroke: #b0b0b0; stroke-opacity: 0.7; stroke-width: 0.8"/>
     </g>
     <g id="line2d_30">
      <g>
       <use xlink:href="#m3b8ee5f449" x="55.73" y="80.463385" style="stroke: #000000; stroke-width: 0.8"/>
      </g>
     </g>
     <g id="text_16">
      <!-- 125 -->
      <g transform="translate(29.6425 84.262603) scale(0.1 -0.1)">
       <use xlink:href="#DejaVuSans-31"/>
       <use xlink:href="#DejaVuSans-32" transform="translate(63.623047 0)"/>
       <use xlink:href="#DejaVuSans-35" transform="translate(127.246094 0)"/>
      </g>
     </g>
    </g>
    <g id="text_17">
     <!-- Temperature (°C) -->
     <g transform="translate(21.129688 276.441875) rotate(-90) scale(0.12 -0.12)">
      <defs>
       <path id="DejaVuSans-54" d="M -19 4666 
L 3928 4666 
L 3928 4134 
L 2272 4134 
L 2272 0 
L 1638 0 
L 1638 4134 
L -19 4134 
L -19 4666 
z
" transform="scale(0.015625)"/>
       <path id="DejaVuSans-6d" d="M 3328 2828 
Q 3544 3216 3844 3400 
Q 4144 3584 4550 3584 
Q 5097 3584 5394 3201 
Q 5691 2819 5691 2113 
L 5691 0 
L 5113 0 
L 5113 2094 
Q 5113 2597 4934 2840 
Q 4756 3084 4391 3084 
Q 3944 3084 3684 2787 
Q 3425 2491 3425 1978 
L 3425 0 
L 2847 0 
L 2847 2094 
Q 2847 2600 2669 2842 
Q 2491 3084 2119 3084 
Q 1678 3084 1418 2786 
Q 1159 2488 1159 1978 
L 1159 0 
L 581 0 
L 581 3500 
L 1159 3500 
L 1159 2956 
Q 1356 3278 1631 3431 
Q 1906 3584 2284 3584 
Q 2666 3584 2933 3390 
Q 3200 3197 3328 2828 
z
" transform="scale(0.015625)"/>
       <path id="DejaVuSans-70" d="M 1159 525 
L 1159 -1331 
L 581 -1331 
L 581 3500 
L 1159 3500 
L 1159 2969 
Q 1341 3281 1617 3432 
Q 1894 3584 2278 3584 
Q 2916 3584 3314 3078 
Q 3713 2572 3713 1747 
Q 3713 922 3314 415 
Q 2916 -91 2278 -91 
Q 1894 -91 1617 61 
Q 1341 213 1159 525 
z
M 3116 1747 
Q 3116 2381 2855 2742 
Q 2594 3103 2138 3103 
Q 1681 3103 1420 2742 
Q 1159 2381 1159 1747 
Q 1159 1113 1420 752 
Q 1681 391 2138 391 
Q 2594 391 2855 752 
Q 3116 1113 3116 1747 
z
" transform="scale(0.015625)"/>
       <path id="DejaVuSans-72" d="M 2631 2963 
Q 2534 3019 2420 3045 
Q 2306 3072 2169 3072 
Q 1681 3072 1420 2755 
Q 1159 2438 1159 1844 
L 1159 0 
L 581 0 
L 581 3500 
L 1159 3500 
L 1159 2956 
Q 1341 3275 1631 3429 
Q 1922 3584 2338 3584 
Q 2397 3584 2469 3576 
Q 2541 3569 2628 3553 
L 2631 2963 
z
" transform="scale(0.015625)"/>
       <path id="DejaVuSans-75" d="M 544 1381 
L 544 3500 
L 1119 3500 
L 1119 1403 
Q 1119 906 1312 657 
Q 1506 409 1894 409 
Q 2359 409 2629 706 
Q 2900 1003 2900 1516 
L 2900 3500 
L 3475 3500 
L 3475 0 
L 2900 0 
L 2900 538 
Q 2691 219 2414 64 
Q 2138 -91 1772 -91 
Q 1169 -91 856 284 
Q 544 659 544 1381 
z
M 1991 3584 
L 1991 3584 
z
" transform="scale(0.015625)"/>
       <path id="DejaVuSans-b0" d="M 1600 4347 
Q 1350 4347 1178 4173 
Q 1006 4000 1006 3750 
Q 1006 3503 1178 3333 
Q 1350 3163 1600 3163 
Q 1850 3163 2022 3333 
Q 2194 3503 2194 3750 
Q 2194 3997 2020 4172 
Q 1847 4347 1600 4347 
z
M 1600 4750 
Q 1800 4750 1984 4673 
Q 2169 4597 2303 4453 
Q 2447 4313 2519 4134 
Q 2591 3956 2591 3750 
Q 2591 3338 2302 3052 
Q 2013 2766 1594 2766 
Q 1172 2766 890 3047 
Q 609 3328 609 3750 
Q 609 4169 896 4459 
Q 1184 4750 1600 4750 
z
" transform="scale(0.015625)"/>
       <path id="DejaVuSans-43" d="M 4122 4306 
L 4122 3641 
Q 3803 3938 3442 4084 
Q 3081 4231 2675 4231 
Q 1875 4231 1450 3742 
Q 1025 3253 1025 2328 
Q 1025 1406 1450 917 
Q 1875 428 2675 428 
Q 3081 428 3442 575 
Q 3803 722 4122 1019 
L 4122 359 
Q 3791 134 3420 21 
Q 3050 -91 2638 -91 
Q 1578 -91 968 557 
Q 359 1206 359 2328 
Q 359 3453 968 4101 
Q 1578 4750 2638 4750 
Q 3056 4750 3426 4639 
Q 3797 4528 4122 4306 
z
" transform="scale(0.015625)"/>
      </defs>
      <use xlink:href="#DejaVuSans-54"/>
      <use xlink:href="#DejaVuSans-65" transform="translate(44.083984 0)"/>
      <use xlink:href="#DejaVuSans-6d" transform="translate(105.607422 0)"/>
      <use xlink:href="#DejaVuSans-70" transform="translate(203.019531 0)"/>
      <use xlink:href="#DejaVuSans-65" transform="translate(266.496094 0)"/>
      <use xlink:href="#DejaVuSans-72" transform="translate(328.019531 0)"/>
      <use xlink:href="#DejaVuSans-61" transform="translate(369.132812 0)"/>
      <use xlink:href="#DejaVuSans-74" transform="translate(430.412109 0)"/>
      <use xlink:href="#DejaVuSans-75" transform="translate(469.621094 0)"/>
      <use xlink:href="#DejaVuSans-72" transform="translate(533 0)"/>
      <use xlink:href="#DejaVuSans-65" transform="translate(571.863281 0)"/>
      <use xlink:href="#DejaVuSans-20" transform="translate(633.386719 0)"/>
      <use xlink:href="#DejaVuSans-28" transform="translate(665.173828 0)"/>
      <use xlink:href="#DejaVuSans-b0" transform="translate(704.1875 0)"/>
      <use xlink:href="#DejaVuSans-43" transform="translate(754.1875 0)"/>
      <use xlink:href="#DejaVuSans-29" transform="translate(824.011719 0)"/>
     </g>
    </g>
   </g>
   <g id="line2d_31">
    <defs>
     <path id="md6e89437a3" d="M 0 2 
C 0.530406 2 1.03916 1.789267 1.414214 1.414214 
C 1.789267 1.03916 2 0.530406 2 0 
C 2 -0.530406 1.789267 -1.03916 1.414214 -1.414214 
C 1.03916 -1.789267 0.530406 -2 0 -2 
C -0.530406 -2 -1.03916 -1.789267 -1.414214 -1.414214 
C -1.789267 -1.03916 -2 -0.530406 -2 0 
C -2 0.530406 -1.789267 1.03916 -1.414214 1.414214 
C -1.03916 1.789267 -0.530406 2 0 2 
z
" style="stroke: #1f77b4"/>
    </defs>
    <g clip-path="url(#pe65e4875a6)">
     <use xlink:href="#md6e89437a3" x="555.768636" y="372.387273" style="fill: #1f77b4; stroke: #1f77b4"/>
     <use xlink:href="#md6e89437a3" x="530.686175" y="370.618037" style="fill: #1f77b4; stroke: #1f77b4"/>
     <use xlink:href="#md6e89437a3" x="506.870504" y="368.848801" style="fill: #1f77b4; stroke: #1f77b4"/>
     <use xlink:href="#md6e89437a3" x="484.574982" y="367.079566" style="fill: #1f77b4; stroke: #1f77b4"/>
     <use xlink:href="#md6e89437a3" x="463.546252" y="365.31033" style="fill: #1f77b4; stroke: #1f77b4"/>
     <use xlink:href="#md6e89437a3" x="443.784312" y="363.541094" style="fill: #1f77b4; stroke: #1f77b4"/>
     <use xlink:href="#md6e89437a3" x="425.035806" y="361.771859" style="fill: #1f77b4; stroke: #1f77b4"/>
     <use xlink:href="#md6e89437a3" x="407.55409" y="360.002623" style="fill: #1f77b4; stroke: #1f77b4"/>
     <use xlink:href="#md6e89437a3" x="390.832449" y="358.233387" style="fill: #1f77b4; stroke: #1f77b4"/>
     <use xlink:href="#md6e89437a3" x="375.12424" y="356.464152" style="fill: #1f77b4; stroke: #1f77b4"/>
     <use xlink:href="#md6e89437a3" x="360.176107" y="354.694916" style="fill: #1f77b4; stroke: #1f77b4"/>
     <use xlink:href="#md6e89437a3" x="346.241406" y="352.92568" style="fill: #1f77b4; stroke: #1f77b4"/>
     <use xlink:href="#md6e89437a3" x="333.066779" y="351.156444" style="fill: #1f77b4; stroke: #1f77b4"/>
     <use xlink:href="#md6e89437a3" x="320.500213" y="349.387209" style="fill: #1f77b4; stroke: #1f77b4"/>
     <use xlink:href="#md6e89437a3" x="308.668385" y="347.617973" style="fill: #1f77b4; stroke: #1f77b4"/>
     <use xlink:href="#md6e89437a3" x="297.495288" y="345.848737" style="fill: #1f77b4; stroke: #1f77b4"/>
     <use xlink:href="#md6e89437a3" x="286.904915" y="344.079502" style="fill: #1f77b4; stroke: #1f77b4"/>
     <use xlink:href="#md6e89437a3" x="276.897266" y="342.310266" style="fill: #1f77b4; stroke: #1f77b4"/>
     <use xlink:href="#md6e89437a3" x="267.42167" y="340.54103" style="fill: #1f77b4; stroke: #1f77b4"/>
     <use xlink:href="#md6e89437a3" x="258.427454" y="338.771795" style="fill: #1f77b4; stroke: #1f77b4"/>
     <use xlink:href="#md6e89437a3" x="249.939954" y="337.002559" style="fill: #1f77b4; stroke: #1f77b4"/>
     <use xlink:href="#md6e89437a3" x="241.883163" y="335.233323" style="fill: #1f77b4; stroke: #1f77b4"/>
     <use xlink:href="#md6e89437a3" x="234.257082" y="333.464088" style="fill: #1f77b4; stroke: #1f77b4"/>
     <use xlink:href="#md6e89437a3" x="227.011037" y="331.694852" style="fill: #1f77b4; stroke: #1f77b4"/>
     <use xlink:href="#md6e89437a3" x="220.14503" y="329.925616" style="fill: #1f77b4; stroke: #1f77b4"/>
     <use xlink:href="#md6e89437a3" x="213.633724" y="328.156381" style="fill: #1f77b4; stroke: #1f77b4"/>
     <use xlink:href="#md6e89437a3" x="207.47712" y="326.387145" style="fill: #1f77b4; stroke: #1f77b4"/>
     <use xlink:href="#md6e89437a3" x="201.59921" y="324.617909" style="fill: #1f77b4; stroke: #1f77b4"/>
     <use xlink:href="#md6e89437a3" x="196.050665" y="322.848674" style="fill: #1f77b4; stroke: #1f77b4"/>
     <use xlink:href="#md6e89437a3" x="190.755479" y="321.079438" style="fill: #1f77b4; stroke: #1f77b4"/>
     <use xlink:href="#md6e89437a3" x="185.738986" y="319.310202" style="fill: #1f77b4; stroke: #1f77b4"/>
     <use xlink:href="#md6e89437a3" x="180.975852" y="317.540966" style="fill: #1f77b4; stroke: #1f77b4"/>
     <use xlink:href="#md6e89437a3" x="176.440741" y="315.771731" style="fill: #1f77b4; stroke: #1f77b4"/>
     <use xlink:href="#md6e89437a3" x="172.133651" y="314.002495" style="fill: #1f77b4; stroke: #1f77b4"/>
     <use xlink:href="#md6e89437a3" x="168.029248" y="312.233259" style="fill: #1f77b4; stroke: #1f77b4"/>
     <use xlink:href="#md6e89437a3" x="164.152868" y="310.464024" style="fill: #1f77b4; stroke: #1f77b4"/>
     <use xlink:href="#md6e89437a3" x="160.428502" y="308.694788" style="fill: #1f77b4; stroke: #1f77b4"/>
     <use xlink:href="#md6e89437a3" x="156.906823" y="306.925552" style="fill: #1f77b4; stroke: #1f77b4"/>
     <use xlink:href="#md6e89437a3" x="153.562495" y="305.156317" style="fill: #1f77b4; stroke: #1f77b4"/>
     <use xlink:href="#md6e89437a3" x="150.370182" y="303.387081" style="fill: #1f77b4; stroke: #1f77b4"/>
     <use xlink:href="#md6e89437a3" x="147.304548" y="301.617845" style="fill: #1f77b4; stroke: #1f77b4"/>
     <use xlink:href="#md6e89437a3" x="144.416264" y="299.84861" style="fill: #1f77b4; stroke: #1f77b4"/>
     <use xlink:href="#md6e89437a3" x="141.65466" y="298.079374" style="fill: #1f77b4; stroke: #1f77b4"/>
     <use xlink:href="#md6e89437a3" x="139.019734" y="296.310138" style="fill: #1f77b4; stroke: #1f77b4"/>
     <use xlink:href="#md6e89437a3" x="136.511488" y="294.540903" style="fill: #1f77b4; stroke: #1f77b4"/>
     <use xlink:href="#md6e89437a3" x="134.104585" y="292.771667" style="fill: #1f77b4; stroke: #1f77b4"/>
     <use xlink:href="#md6e89437a3" x="131.824362" y="291.002431" style="fill: #1f77b4; stroke: #1f77b4"/>
     <use xlink:href="#md6e89437a3" x="129.645481" y="289.233195" style="fill: #1f77b4; stroke: #1f77b4"/>
     <use xlink:href="#md6e89437a3" x="127.567944" y="287.46396" style="fill: #1f77b4; stroke: #1f77b4"/>
     <use xlink:href="#md6e89437a3" x="125.59175" y="285.694724" style="fill: #1f77b4; stroke: #1f77b4"/>
     <use xlink:href="#md6e89437a3" x="123.691563" y="283.925488" style="fill: #1f77b4; stroke: #1f77b4"/>
     <use xlink:href="#md6e89437a3" x="121.89272" y="282.156253" style="fill: #1f77b4; stroke: #1f77b4"/>
     <use xlink:href="#md6e89437a3" x="120.169884" y="280.387017" style="fill: #1f77b4; stroke: #1f77b4"/>
     <use xlink:href="#md6e89437a3" x="118.49772" y="278.617781" style="fill: #1f77b4; stroke: #1f77b4"/>
     <use xlink:href="#md6e89437a3" x="116.9269" y="276.848546" style="fill: #1f77b4; stroke: #1f77b4"/>
     <use xlink:href="#md6e89437a3" x="115.432086" y="275.07931" style="fill: #1f77b4; stroke: #1f77b4"/>
     <use xlink:href="#md6e89437a3" x="113.987944" y="273.310074" style="fill: #1f77b4; stroke: #1f77b4"/>
     <use xlink:href="#md6e89437a3" x="112.61981" y="271.540839" style="fill: #1f77b4; stroke: #1f77b4"/>
     <use xlink:href="#md6e89437a3" x="111.302347" y="269.771603" style="fill: #1f77b4; stroke: #1f77b4"/>
     <use xlink:href="#md6e89437a3" x="110.035556" y="268.002367" style="fill: #1f77b4; stroke: #1f77b4"/>
     <use xlink:href="#md6e89437a3" x="108.819437" y="266.233132" style="fill: #1f77b4; stroke: #1f77b4"/>
     <use xlink:href="#md6e89437a3" x="107.679325" y="264.463896" style="fill: #1f77b4; stroke: #1f77b4"/>
     <use xlink:href="#md6e89437a3" x="106.564549" y="262.69466" style="fill: #1f77b4; stroke: #1f77b4"/>
     <use xlink:href="#md6e89437a3" x="105.500445" y="260.925425" style="fill: #1f77b4; stroke: #1f77b4"/>
     <use xlink:href="#md6e89437a3" x="104.487012" y="259.156189" style="fill: #1f77b4; stroke: #1f77b4"/>
     <use xlink:href="#md6e89437a3" x="103.524251" y="257.386953" style="fill: #1f77b4; stroke: #1f77b4"/>
     <use xlink:href="#md6e89437a3" x="102.594426" y="255.617717" style="fill: #1f77b4; stroke: #1f77b4"/>
     <use xlink:href="#md6e89437a3" x="101.705139" y="253.848482" style="fill: #1f77b4; stroke: #1f77b4"/>
     <use xlink:href="#md6e89437a3" x="100.851322" y="252.079246" style="fill: #1f77b4; stroke: #1f77b4"/>
     <use xlink:href="#md6e89437a3" x="100.032975" y="250.31001" style="fill: #1f77b4; stroke: #1f77b4"/>
     <use xlink:href="#md6e89437a3" x="99.247564" y="248.540775" style="fill: #1f77b4; stroke: #1f77b4"/>
     <use xlink:href="#md6e89437a3" x="98.495091" y="246.771539" style="fill: #1f77b4; stroke: #1f77b4"/>
     <use xlink:href="#md6e89437a3" x="97.77302" y="245.002303" style="fill: #1f77b4; stroke: #1f77b4"/>
     <use xlink:href="#md6e89437a3" x="97.078818" y="243.233068" style="fill: #1f77b4; stroke: #1f77b4"/>
     <use xlink:href="#md6e89437a3" x="96.41502" y="241.463832" style="fill: #1f77b4; stroke: #1f77b4"/>
     <use xlink:href="#md6e89437a3" x="95.776557" y="239.694596" style="fill: #1f77b4; stroke: #1f77b4"/>
     <use xlink:href="#md6e89437a3" x="95.16343" y="237.925361" style="fill: #1f77b4; stroke: #1f77b4"/>
     <use xlink:href="#md6e89437a3" x="94.575639" y="236.156125" style="fill: #1f77b4; stroke: #1f77b4"/>
     <use xlink:href="#md6e89437a3" x="94.01065" y="234.386889" style="fill: #1f77b4; stroke: #1f77b4"/>
     <use xlink:href="#md6e89437a3" x="93.468464" y="232.617654" style="fill: #1f77b4; stroke: #1f77b4"/>
     <use xlink:href="#md6e89437a3" x="92.94908" y="230.848418" style="fill: #1f77b4; stroke: #1f77b4"/>
     <use xlink:href="#md6e89437a3" x="92.44743" y="229.079182" style="fill: #1f77b4; stroke: #1f77b4"/>
     <use xlink:href="#md6e89437a3" x="91.96605" y="227.309946" style="fill: #1f77b4; stroke: #1f77b4"/>
     <use xlink:href="#md6e89437a3" x="91.502404" y="225.540711" style="fill: #1f77b4; stroke: #1f77b4"/>
     <use xlink:href="#md6e89437a3" x="91.059027" y="223.771475" style="fill: #1f77b4; stroke: #1f77b4"/>
     <use xlink:href="#md6e89437a3" x="90.630852" y="222.002239" style="fill: #1f77b4; stroke: #1f77b4"/>
     <use xlink:href="#md6e89437a3" x="90.220412" y="220.233004" style="fill: #1f77b4; stroke: #1f77b4"/>
     <use xlink:href="#md6e89437a3" x="89.822639" y="218.463768" style="fill: #1f77b4; stroke: #1f77b4"/>
     <use xlink:href="#md6e89437a3" x="89.442602" y="216.694532" style="fill: #1f77b4; stroke: #1f77b4"/>
     <use xlink:href="#md6e89437a3" x="89.075233" y="214.925297" style="fill: #1f77b4; stroke: #1f77b4"/>
     <use xlink:href="#md6e89437a3" x="88.723065" y="213.156061" style="fill: #1f77b4; stroke: #1f77b4"/>
     <use xlink:href="#md6e89437a3" x="88.383565" y="211.386825" style="fill: #1f77b4; stroke: #1f77b4"/>
     <use xlink:href="#md6e89437a3" x="88.056733" y="209.61759" style="fill: #1f77b4; stroke: #1f77b4"/>
     <use xlink:href="#md6e89437a3" x="87.742569" y="207.848354" style="fill: #1f77b4; stroke: #1f77b4"/>
     <use xlink:href="#md6e89437a3" x="87.438539" y="206.079118" style="fill: #1f77b4; stroke: #1f77b4"/>
     <use xlink:href="#md6e89437a3" x="87.147177" y="204.309883" style="fill: #1f77b4; stroke: #1f77b4"/>
     <use xlink:href="#md6e89437a3" x="86.865949" y="202.540647" style="fill: #1f77b4; stroke: #1f77b4"/>
     <use xlink:href="#md6e89437a3" x="86.594856" y="200.771411" style="fill: #1f77b4; stroke: #1f77b4"/>
     <use xlink:href="#md6e89437a3" x="86.333897" y="199.002176" style="fill: #1f77b4; stroke: #1f77b4"/>
     <use xlink:href="#md6e89437a3" x="86.080539" y="197.23294" style="fill: #1f77b4; stroke: #1f77b4"/>
     <use xlink:href="#md6e89437a3" x="85.837315" y="195.463704" style="fill: #1f77b4; stroke: #1f77b4"/>
     <use xlink:href="#md6e89437a3" x="85.604225" y="193.694468" style="fill: #1f77b4; stroke: #1f77b4"/>
     <use xlink:href="#md6e89437a3" x="85.376203" y="191.925233" style="fill: #1f77b4; stroke: #1f77b4"/>
     <use xlink:href="#md6e89437a3" x="85.158315" y="190.155997" style="fill: #1f77b4; stroke: #1f77b4"/>
     <use xlink:href="#md6e89437a3" x="84.948028" y="188.386761" style="fill: #1f77b4; stroke: #1f77b4"/>
     <use xlink:href="#md6e89437a3" x="84.745341" y="186.617526" style="fill: #1f77b4; stroke: #1f77b4"/>
     <use xlink:href="#md6e89437a3" x="84.550255" y="184.84829" style="fill: #1f77b4; stroke: #1f77b4"/>
     <use xlink:href="#md6e89437a3" x="84.360237" y="183.079054" style="fill: #1f77b4; stroke: #1f77b4"/>
     <use xlink:href="#md6e89437a3" x="84.177819" y="181.309819" style="fill: #1f77b4; stroke: #1f77b4"/>
     <use xlink:href="#md6e89437a3" x="84.003002" y="179.540583" style="fill: #1f77b4; stroke: #1f77b4"/>
     <use xlink:href="#md6e89437a3" x="83.830718" y="177.771347" style="fill: #1f77b4; stroke: #1f77b4"/>
     <use xlink:href="#md6e89437a3" x="83.668569" y="176.002112" style="fill: #1f77b4; stroke: #1f77b4"/>
     <use xlink:href="#md6e89437a3" x="83.508953" y="174.232876" style="fill: #1f77b4; stroke: #1f77b4"/>
     <use xlink:href="#md6e89437a3" x="83.354405" y="172.46364" style="fill: #1f77b4; stroke: #1f77b4"/>
     <use xlink:href="#md6e89437a3" x="83.207457" y="170.694405" style="fill: #1f77b4; stroke: #1f77b4"/>
     <use xlink:href="#md6e89437a3" x="83.063043" y="168.925169" style="fill: #1f77b4; stroke: #1f77b4"/>
     <use xlink:href="#md6e89437a3" x="82.923696" y="167.155933" style="fill: #1f77b4; stroke: #1f77b4"/>
     <use xlink:href="#md6e89437a3" x="82.791949" y="165.386697" style="fill: #1f77b4; stroke: #1f77b4"/>
     <use xlink:href="#md6e89437a3" x="82.660203" y="163.617462" style="fill: #1f77b4; stroke: #1f77b4"/>
     <use xlink:href="#md6e89437a3" x="82.536058" y="161.848226" style="fill: #1f77b4; stroke: #1f77b4"/>
     <use xlink:href="#md6e89437a3" x="82.414446" y="160.07899" style="fill: #1f77b4; stroke: #1f77b4"/>
     <use xlink:href="#md6e89437a3" x="82.297901" y="158.309755" style="fill: #1f77b4; stroke: #1f77b4"/>
     <use xlink:href="#md6e89437a3" x="82.18389" y="156.540519" style="fill: #1f77b4; stroke: #1f77b4"/>
     <use xlink:href="#md6e89437a3" x="82.074946" y="154.771283" style="fill: #1f77b4; stroke: #1f77b4"/>
     <use xlink:href="#md6e89437a3" x="81.968535" y="153.002048" style="fill: #1f77b4; stroke: #1f77b4"/>
     <use xlink:href="#md6e89437a3" x="81.864658" y="151.232812" style="fill: #1f77b4; stroke: #1f77b4"/>
     <use xlink:href="#md6e89437a3" x="81.765849" y="149.463576" style="fill: #1f77b4; stroke: #1f77b4"/>
     <use xlink:href="#md6e89437a3" x="81.669573" y="147.694341" style="fill: #1f77b4; stroke: #1f77b4"/>
     <use xlink:href="#md6e89437a3" x="81.57583" y="145.925105" style="fill: #1f77b4; stroke: #1f77b4"/>
     <use xlink:href="#md6e89437a3" x="81.487155" y="144.155869" style="fill: #1f77b4; stroke: #1f77b4"/>
     <use xlink:href="#md6e89437a3" x="81.398479" y="142.386634" style="fill: #1f77b4; stroke: #1f77b4"/>
     <use xlink:href="#md6e89437a3" x="81.314871" y="140.617398" style="fill: #1f77b4; stroke: #1f77b4"/>
     <use xlink:href="#md6e89437a3" x="81.231263" y="138.848162" style="fill: #1f77b4; stroke: #1f77b4"/>
     <use xlink:href="#md6e89437a3" x="81.152722" y="137.078926" style="fill: #1f77b4; stroke: #1f77b4"/>
     <use xlink:href="#md6e89437a3" x="81.074181" y="135.309691" style="fill: #1f77b4; stroke: #1f77b4"/>
     <use xlink:href="#md6e89437a3" x="81.000707" y="133.540455" style="fill: #1f77b4; stroke: #1f77b4"/>
     <use xlink:href="#md6e89437a3" x="80.927233" y="131.771219" style="fill: #1f77b4; stroke: #1f77b4"/>
     <use xlink:href="#md6e89437a3" x="80.858826" y="130.001984" style="fill: #1f77b4; stroke: #1f77b4"/>
     <use xlink:href="#md6e89437a3" x="80.79042" y="128.232748" style="fill: #1f77b4; stroke: #1f77b4"/>
     <use xlink:href="#md6e89437a3" x="80.724546" y="126.463512" style="fill: #1f77b4; stroke: #1f77b4"/>
     <use xlink:href="#md6e89437a3" x="80.658673" y="124.694277" style="fill: #1f77b4; stroke: #1f77b4"/>
     <use xlink:href="#md6e89437a3" x="80.597867" y="122.925041" style="fill: #1f77b4; stroke: #1f77b4"/>
     <use xlink:href="#md6e89437a3" x="80.537061" y="121.155805" style="fill: #1f77b4; stroke: #1f77b4"/>
     <use xlink:href="#md6e89437a3" x="80.478789" y="119.38657" style="fill: #1f77b4; stroke: #1f77b4"/>
     <use xlink:href="#md6e89437a3" x="80.420517" y="117.617334" style="fill: #1f77b4; stroke: #1f77b4"/>
     <use xlink:href="#md6e89437a3" x="80.367311" y="115.848098" style="fill: #1f77b4; stroke: #1f77b4"/>
     <use xlink:href="#md6e89437a3" x="80.311573" y="114.078863" style="fill: #1f77b4; stroke: #1f77b4"/>
     <use xlink:href="#md6e89437a3" x="80.260901" y="112.309627" style="fill: #1f77b4; stroke: #1f77b4"/>
     <use xlink:href="#md6e89437a3" x="80.210229" y="110.540391" style="fill: #1f77b4; stroke: #1f77b4"/>
     <use xlink:href="#md6e89437a3" x="80.162091" y="108.771156" style="fill: #1f77b4; stroke: #1f77b4"/>
     <use xlink:href="#md6e89437a3" x="80.113953" y="107.00192" style="fill: #1f77b4; stroke: #1f77b4"/>
     <use xlink:href="#md6e89437a3" x="80.068349" y="105.232684" style="fill: #1f77b4; stroke: #1f77b4"/>
     <use xlink:href="#md6e89437a3" x="80.022744" y="103.463448" style="fill: #1f77b4; stroke: #1f77b4"/>
     <use xlink:href="#md6e89437a3" x="79.979673" y="101.694213" style="fill: #1f77b4; stroke: #1f77b4"/>
     <use xlink:href="#md6e89437a3" x="79.936602" y="99.924977" style="fill: #1f77b4; stroke: #1f77b4"/>
     <use xlink:href="#md6e89437a3" x="79.896065" y="98.155741" style="fill: #1f77b4; stroke: #1f77b4"/>
     <use xlink:href="#md6e89437a3" x="79.855528" y="96.386506" style="fill: #1f77b4; stroke: #1f77b4"/>
     <use xlink:href="#md6e89437a3" x="79.817524" y="94.61727" style="fill: #1f77b4; stroke: #1f77b4"/>
     <use xlink:href="#md6e89437a3" x="79.77952" y="92.848034" style="fill: #1f77b4; stroke: #1f77b4"/>
     <use xlink:href="#md6e89437a3" x="79.741517" y="91.078799" style="fill: #1f77b4; stroke: #1f77b4"/>
     <use xlink:href="#md6e89437a3" x="79.706046" y="89.309563" style="fill: #1f77b4; stroke: #1f77b4"/>
     <use xlink:href="#md6e89437a3" x="79.670576" y="87.540327" style="fill: #1f77b4; stroke: #1f77b4"/>
     <use xlink:href="#md6e89437a3" x="79.63764" y="85.771092" style="fill: #1f77b4; stroke: #1f77b4"/>
     <use xlink:href="#md6e89437a3" x="79.604703" y="84.001856" style="fill: #1f77b4; stroke: #1f77b4"/>
     <use xlink:href="#md6e89437a3" x="79.571767" y="82.23262" style="fill: #1f77b4; stroke: #1f77b4"/>
     <use xlink:href="#md6e89437a3" x="79.541364" y="80.463385" style="fill: #1f77b4; stroke: #1f77b4"/>
    </g>
   </g>
   <g id="line2d_32">
    <path d="M 555.768636 372.256513 
L 506.870504 368.735797 
L 463.546252 365.219339 
L 425.035806 361.700788 
L 390.832449 358.188076 
L 360.176107 354.652904 
L 333.066779 351.147795 
L 308.668385 347.615637 
L 286.904915 344.091252 
L 267.42167 340.566822 
L 249.939954 337.038487 
L 234.257082 333.511055 
L 220.14503 329.97777 
L 207.47712 326.451392 
L 196.050665 322.919105 
L 185.738986 319.382716 
L 176.440741 315.848958 
L 168.029248 312.31026 
L 160.428502 308.774365 
L 153.562495 305.24672 
L 147.304548 301.698926 
L 141.65466 298.16806 
L 136.511488 294.629017 
L 131.824362 291.080572 
L 127.567944 287.538678 
L 123.691563 283.99699 
L 120.169884 280.468139 
L 116.9269 276.906736 
L 113.987944 273.372561 
L 111.302347 269.840833 
L 108.819437 266.271804 
L 106.564549 262.731701 
L 104.487012 259.17296 
L 101.705139 253.868543 
L 99.247564 248.546507 
L 97.078818 243.221239 
L 95.16343 237.898267 
L 93.468464 232.576957 
L 91.96605 227.258083 
L 90.220412 220.167746 
L 88.723065 213.066654 
L 87.438539 205.974459 
L 86.080539 197.114345 
L 84.948028 188.249741 
L 83.830718 177.622973 
L 82.791949 165.267339 
L 81.864658 151.102991 
L 81.074181 135.227346 
L 80.420517 117.620647 
L 79.817524 94.873106 
L 79.541364 80.810062 
L 79.541364 80.810062 
" clip-path="url(#pe65e4875a6)" style="fill: none; stroke: #ff7f0e; stroke-width: 2; stroke-linecap: square"/>
   </g>
   <g id="line2d_33">
    <path d="M 555.768636 364.724297 
L 506.870504 361.555703 
L 463.546252 358.383158 
L 425.035806 355.200944 
L 390.832449 352.016252 
L 360.176107 348.803375 
L 333.066779 345.610079 
L 308.668385 342.38435 
L 286.904915 339.157931 
L 267.42167 335.923701 
L 249.939954 332.67811 
L 234.257082 329.425582 
L 220.14503 326.159878 
L 207.47712 322.892807 
L 196.050665 319.612506 
L 185.738986 316.320631 
L 176.440741 313.023457 
L 168.029248 309.713921 
L 160.428502 306.39927 
L 153.562495 303.084657 
L 147.304548 299.743371 
L 141.65466 296.410331 
L 136.511488 293.06188 
L 131.824362 289.696815 
L 127.567944 286.330265 
L 123.691563 282.956234 
L 120.169884 279.586812 
L 116.9269 276.178607 
L 113.987944 272.788824 
L 111.302347 269.393803 
L 108.819437 265.955233 
L 106.564549 262.536908 
L 104.487012 259.092947 
L 101.705139 253.94542 
L 99.247564 248.763764 
L 97.078818 243.561929 
L 95.16343 238.345352 
L 93.468464 233.113475 
L 91.96605 227.867118 
L 90.220412 220.84729 
L 88.723065 213.78694 
L 87.438539 206.705691 
L 86.080539 197.817629 
L 84.948028 188.878959 
L 83.830718 178.102867 
L 82.923696 167.271201 
L 82.074946 154.589852 
L 81.314871 140.00163 
L 80.597867 121.625292 
L 79.979673 99.393792 
L 79.541364 76.932727 
L 79.541364 76.932727 
" clip-path="url(#pe65e4875a6)" style="fill: none; stroke-dasharray: 7.4,3.2; stroke-dashoffset: 0; stroke: #2ca02c; stroke-width: 2"/>
   </g>
   <g id="patch_3">
    <path d="M 55.73 387.16 
L 55.73 62.16 
" style="fill: none; stroke: #000000; stroke-width: 0.8; stroke-linejoin: miter; stroke-linecap: square"/>
   </g>
   <g id="patch_4">
    <path d="M 579.58 387.16 
L 579.58 62.16 
" style="fill: none; stroke: #000000; stroke-width: 0.8; stroke-linejoin: miter; stroke-linecap: square"/>
   </g>
   <g id="patch_5">
    <path d="M 55.73 387.16 
L 579.58 387.16 
" style="fill: none; stroke: #000000; stroke-width: 0.8; stroke-linejoin: miter; stroke-linecap: square"/>
   </g>
   <g id="patch_6">
    <path d="M 55.73 62.16 
L 579.58 62.16 
" style="fill: none; stroke: #000000; stroke-width: 0.8; stroke-linejoin: miter; stroke-linecap: square"/>
   </g>
   <g id="text_18">
    <!-- Resistance from Temperature Inversion -->
    <g transform="translate(180.497656 56.16) scale(0.14 -0.14)">
     <defs>
      <path id="DejaVuSans-66" d="M 2375 4863 
L 2375 4384 
L 1825 4384 
Q 1516 4384 1395 4259 
Q 1275 4134 1275 3809 
L 1275 3500 
L 2222 3500 
L 2222 3053 
L 1275 3053 
L 1275 0 
L 697 0 
L 697 3053 
L 147 3053 
L 147 3500 
L 697 3500 
L 697 3744 
Q 697 4328 969 4595 
Q 1241 4863 1831 4863 
L 2375 4863 
z
" transform="scale(0.015625)"/>
      <path id="DejaVuSans-6f" d="M 1959 3097 
Q 1497 3097 1228 2736 
Q 959 2375 959 1747 
Q 959 1119 1226 758 
Q 1494 397 1959 397 
Q 2419 397 2687 759 
Q 2956 1122 2956 1747 
Q 2956 2369 2687 2733 
Q 2419 3097 1959 3097 
z
M 1959 3584 
Q 2709 3584 3137 3096 
Q 3566 2609 3566 1747 
Q 3566 888 3137 398 
Q 2709 -91 1959 -91 
Q 1206 -91 779 398 
Q 353 888 353 1747 
Q 353 2609 779 3096 
Q 1206 3584 1959 3584 
z
" transform="scale(0.015625)"/>
      <path id="DejaVuSans-49" d="M 628 4666 
L 1259 4666 
L 1259 0 
L 628 0 
L 628 4666 
z
" transform="scale(0.015625)"/>
      <path id="DejaVuSans-76" d="M 191 3500 
L 800 3500 
L 1894 563 
L 2988 3500 
L 3597 3500 
L 2284 0 
L 1503 0 
L 191 3500 
z
" transform="scale(0.015625)"/>
     </defs>
     <use xlink:href="#DejaVuSans-52"/>
     <use xlink:href="#DejaVuSans-65" transform="translate(64.982422 0)"/>
     <use xlink:href="#DejaVuSans-73" transform="translate(126.505859 0)"/>
     <use xlink:href="#DejaVuSans-69" transform="translate(178.605469 0)"/>
     <use xlink:href="#DejaVuSans-73" transform="translate(206.388672 0)"/>
     <use xlink:href="#DejaVuSans-74" transform="translate(258.488281 0)"/>
     <use xlink:href="#DejaVuSans-61" transform="translate(297.697266 0)"/>
     <use xlink:href="#DejaVuSans-6e" transform="translate(358.976562 0)"/>
     <use xlink:href="#DejaVuSans-63" transform="translate(422.355469 0)"/>
     <use xlink:href="#DejaVuSans-65" transform="translate(477.335938 0)"/>
     <use xlink:href="#DejaVuSans-20" transform="translate(538.859375 0)"/>
     <use xlink:href="#DejaVuSans-66" transform="translate(570.646484 0)"/>
     <use xlink:href="#DejaVuSans-72" transform="translate(605.851562 0)"/>
     <use xlink:href="#DejaVuSans-6f" transform="translate(644.714844 0)"/>
     <use xlink:href="#DejaVuSans-6d" transform="translate(705.896484 0)"/>
     <use xlink:href="#DejaVuSans-20" transform="translate(803.308594 0)"/>
     <use xlink:href="#DejaVuSans-54" transform="translate(835.095703 0)"/>
     <use xlink:href="#DejaVuSans-65" transform="translate(879.179688 0)"/>
     <use xlink:href="#DejaVuSans-6d" transform="translate(940.703125 0)"/>
     <use xlink:href="#DejaVuSans-70" transform="translate(1038.115234 0)"/>
     <use xlink:href="#DejaVuSans-65" transform="translate(1101.591797 0)"/>
     <use xlink:href="#DejaVuSans-72" transform="translate(1163.115234 0)"/>
     <use xlink:href="#DejaVuSans-61" transform="translate(1204.228516 0)"/>
     <use xlink:href="#DejaVuSans-74" transform="translate(1265.507812 0)"/>
     <use xlink:href="#DejaVuSans-75" transform="translate(1304.716797 0)"/>
     <use xlink:href="#DejaVuSans-72" transform="translate(1368.095703 0)"/>
     <use xlink:href="#DejaVuSans-65" transform="translate(1406.958984 0)"/>
     <use xlink:href="#DejaVuSans-20" transform="translate(1468.482422 0)"/>
     <use xlink:href="#DejaVuSans-49" transform="translate(1500.269531 0)"/>
     <use xlink:href="#DejaVuSans-6e" transform="translate(1529.761719 0)"/>
     <use xlink:href="#DejaVuSans-76" transform="translate(1593.140625 0)"/>
     <use xlink:href="#DejaVuSans-65" transform="translate(1652.320312 0)"/>
     <use xlink:href="#DejaVuSans-72" transform="translate(1713.84375 0)"/>
     <use xlink:href="#DejaVuSans-73" transform="translate(1754.957031 0)"/>
     <use xlink:href="#DejaVuSans-69" transform="translate(1807.056641 0)"/>
     <use xlink:href="#DejaVuSans-6f" transform="translate(1834.839844 0)"/>
     <use xlink:href="#DejaVuSans-6e" transform="translate(1896.021484 0)"/>
    </g>
   </g>
  </g>
  <g id="axes_2">
   <g id="matplotlib.axis_3">
    <g id="ytick_8">
     <g id="line2d_34">
      <defs>
       <path id="m6f2ae362ab" d="M 0 0 
L 3.5 0 
" style="stroke: #000000; stroke-width: 0.8"/>
      </defs>
      <g>
       <use xlink:href="#m6f2ae362ab" x="579.58" y="327.043645" style="stroke: #000000; stroke-width: 0.8"/>
      </g>
     </g>
     <g id="text_19">
      <!-- −8000 -->
      <g transform="translate(586.58 330.842864) scale(0.1 -0.1)">
       <defs>
        <path id="DejaVuSans-38" d="M 2034 2216 
Q 1584 2216 1326 1975 
Q 1069 1734 1069 1313 
Q 1069 891 1326 650 
Q 1584 409 2034 409 
Q 2484 409 2743 651 
Q 3003 894 3003 1313 
Q 3003 1734 2745 1975 
Q 2488 2216 2034 2216 
z
M 1403 2484 
Q 997 2584 770 2862 
Q 544 3141 544 3541 
Q 544 4100 942 4425 
Q 1341 4750 2034 4750 
Q 2731 4750 3128 4425 
Q 3525 4100 3525 3541 
Q 3525 3141 3298 2862 
Q 3072 2584 2669 2484 
Q 3125 2378 3379 2068 
Q 3634 1759 3634 1313 
Q 3634 634 3220 271 
Q 2806 -91 2034 -91 
Q 1263 -91 848 271 
Q 434 634 434 1313 
Q 434 1759 690 2068 
Q 947 2378 1403 2484 
z
M 1172 3481 
Q 1172 3119 1398 2916 
Q 1625 2713 2034 2713 
Q 2441 2713 2670 2916 
Q 2900 3119 2900 3481 
Q 2900 3844 2670 4047 
Q 2441 4250 2034 4250 
Q 1625 4250 1398 4047 
Q 1172 3844 1172 3481 
z
" transform="scale(0.015625)"/>
       </defs>
       <use xlink:href="#DejaVuSans-2212"/>
       <use xlink:href="#DejaVuSans-38" transform="translate(83.789062 0)"/>
       <use xlink:href="#DejaVuSans-30" transform="translate(147.412109 0)"/>
       <use xlink:href="#DejaVuSans-30" transform="translate(211.035156 0)"/>
       <use xlink:href="#DejaVuSans-30" transform="translate(274.658203 0)"/>
      </g>
     </g>
    </g>
    <g id="ytick_9">
     <g id="line2d_35">
      <g>
       <use xlink:href="#m6f2ae362ab" x="579.58" y="265.183308" style="stroke: #000000; stroke-width: 0.8"/>
      </g>
     </g>
     <g id="text_20">
      <!-- −6000 -->
      <g transform="translate(586.58 268.982526) scale(0.1 -0.1)">
       <defs>
        <path id="DejaVuSans-36" d="M 2113 2584 
Q 1688 2584 1439 2293 
Q 1191 2003 1191 1497 
Q 1191 994 1439 701 
Q 1688 409 2113 409 
Q 2538 409 2786 701 
Q 3034 994 3034 1497 
Q 3034 2003 2786 2293 
Q 2538 2584 2113 2584 
z
M 3366 4563 
L 3366 3988 
Q 3128 4100 2886 4159 
Q 2644 4219 2406 4219 
Q 1781 4219 1451 3797 
Q 1122 3375 1075 2522 
Q 1259 2794 1537 2939 
Q 1816 3084 2150 3084 
Q 2853 3084 3261 2657 
Q 3669 2231 3669 1497 
Q 3669 778 3244 343 
Q 2819 -91 2113 -91 
Q 1303 -91 875 529 
Q 447 1150 447 2328 
Q 447 3434 972 4092 
Q 1497 4750 2381 4750 
Q 2619 4750 2861 4703 
Q 3103 4656 3366 4563 
z
" transform="scale(0.015625)"/>
       </defs>
       <use xlink:href="#DejaVuSans-2212"/>
       <use xlink:href="#DejaVuSans-36" transform="translate(83.789062 0)"/>
       <use xlink:href="#DejaVuSans-30" transform="translate(147.412109 0)"/>
       <use xlink:href="#DejaVuSans-30" transform="translate(211.035156 0)"/>
       <use xlink:href="#DejaVuSans-30" transform="translate(274.658203 0)"/>
      </g>
     </g>
    </g>
    <g id="ytick_10">
     <g id="line2d_36">
      <g>
       <use xlink:href="#m6f2ae362ab" x="579.58" y="203.32297" style="stroke: #000000; stroke-width: 0.8"/>
      </g>
     </g>
     <g id="text_21">
      <!-- −4000 -->
      <g transform="translate(586.58 207.122189) scale(0.1 -0.1)">
       <defs>
        <path id="DejaVuSans-34" d="M 2419 4116 
L 825 1625 
L 2419 1625 
L 2419 4116 
z
M 2253 4666 
L 3047 4666 
L 3047 1625 
L 3713 1625 
L 3713 1100 
L 3047 1100 
L 3047 0 
L 2419 0 
L 2419 1100 
L 313 1100 
L 313 1709 
L 2253 4666 
z
" transform="scale(0.015625)"/>
       </defs>
       <use xlink:href="#DejaVuSans-2212"/>
       <use xlink:href="#DejaVuSans-34" transform="translate(83.789062 0)"/>
       <use xlink:href="#DejaVuSans-30" transform="translate(147.412109 0)"/>
       <use xlink:href="#DejaVuSans-30" transform="translate(211.035156 0)"/>
       <use xlink:href="#DejaVuSans-30" transform="translate(274.658203 0)"/>
      </g>
     </g>
    </g>
    <g id="ytick_11">
     <g id="line2d_37">
      <g>
       <use xlink:href="#m6f2ae362ab" x="579.58" y="141.462633" style="stroke: #000000; stroke-width: 0.8"/>
      </g>
     </g>
     <g id="text_22">
      <!-- −2000 -->
      <g transform="translate(586.58 145.261851) scale(0.1 -0.1)">
       <use xlink:href="#DejaVuSans-2212"/>
       <use xlink:href="#DejaVuSans-32" transform="translate(83.789062 0)"/>
       <use xlink:href="#DejaVuSans-30" transform="translate(147.412109 0)"/>
       <use xlink:href="#DejaVuSans-30" transform="translate(211.035156 0)"/>
       <use xlink:href="#DejaVuSans-30" transform="translate(274.658203 0)"/>
      </g>
     </g>
    </g>
    <g id="ytick_12">
     <g id="line2d_38">
      <g>
       <use xlink:href="#m6f2ae362ab" x="579.58" y="79.602295" style="stroke: #000000; stroke-width: 0.8"/>
      </g>
     </g>
     <g id="text_23">
      <!-- 0 -->
      <g transform="translate(586.58 83.401514) scale(0.1 -0.1)">
       <use xlink:href="#DejaVuSans-30"/>
      </g>
     </g>
    </g>
    <g id="text_24">
     <!-- Resistance Error (Ω) -->
     <g transform="translate(633.527813 284.694687) rotate(-90) scale(0.12 -0.12)">
      <defs>
       <path id="DejaVuSans-45" d="M 628 4666 
L 3578 4666 
L 3578 4134 
L 1259 4134 
L 1259 2753 
L 3481 2753 
L 3481 2222 
L 1259 2222 
L 1259 531 
L 3634 531 
L 3634 0 
L 628 0 
L 628 4666 
z
" transform="scale(0.015625)"/>
      </defs>
      <use xlink:href="#DejaVuSans-52"/>
      <use xlink:href="#DejaVuSans-65" transform="translate(64.982422 0)"/>
      <use xlink:href="#DejaVuSans-73" transform="translate(126.505859 0)"/>
      <use xlink:href="#DejaVuSans-69" transform="translate(178.605469 0)"/>
      <use xlink:href="#DejaVuSans-73" transform="translate(206.388672 0)"/>
      <use xlink:href="#DejaVuSans-74" transform="translate(258.488281 0)"/>
      <use xlink:href="#DejaVuSans-61" transform="translate(297.697266 0)"/>
      <use xlink:href="#DejaVuSans-6e" transform="translate(358.976562 0)"/>
      <use xlink:href="#DejaVuSans-63" transform="translate(422.355469 0)"/>
      <use xlink:href="#DejaVuSans-65" transform="translate(477.335938 0)"/>
      <use xlink:href="#DejaVuSans-20" transform="translate(538.859375 0)"/>
      <use xlink:href="#DejaVuSans-45" transform="translate(570.646484 0)"/>
      <use xlink:href="#DejaVuSans-72" transform="translate(633.830078 0)"/>
      <use xlink:href="#DejaVuSans-72" transform="translate(673.193359 0)"/>
      <use xlink:href="#DejaVuSans-6f" transform="translate(712.056641 0)"/>
      <use xlink:href="#DejaVuSans-72" transform="translate(773.238281 0)"/>
      <use xlink:href="#DejaVuSans-20" transform="translate(814.351562 0)"/>
      <use xlink:href="#DejaVuSans-28" transform="translate(846.138672 0)"/>
      <use xlink:href="#DejaVuSans-3a9" transform="translate(885.152344 0)"/>
      <use xlink:href="#DejaVuSans-29" transform="translate(961.568359 0)"/>
     </g>
    </g>
   </g>
   <g id="line2d_39">
    <path d="M 555.768636 103.192624 
L 530.686175 99.034745 
L 506.870504 97.667624 
L 484.574982 94.825787 
L 463.546252 92.511087 
L 443.784312 89.707629 
L 425.035806 88.562236 
L 407.55409 85.100281 
L 390.832449 84.68605 
L 375.12424 83.460282 
L 360.176107 83.801243 
L 346.241406 81.948944 
L 333.066779 80.373788 
L 320.500213 80.350165 
L 308.668385 79.788422 
L 297.495288 79.10889 
L 286.904915 78.76497 
L 267.42167 77.956227 
L 258.427454 77.925011 
L 249.939954 77.546297 
L 227.011037 77.211691 
L 213.633724 77.183396 
L 207.47712 76.932727 
L 201.59921 77.138793 
L 196.050665 76.965866 
L 190.755479 77.137988 
L 172.133651 77.307346 
L 168.029248 77.481057 
L 164.152868 77.319642 
L 160.428502 77.618694 
L 150.370182 77.594823 
L 147.304548 77.942322 
L 144.416264 77.886678 
L 136.511488 78.114391 
L 134.104585 78.356874 
L 125.59175 78.540827 
L 123.691563 78.691412 
L 120.169884 78.659493 
L 118.49772 78.994456 
L 111.302347 78.98826 
L 108.819437 79.288373 
L 107.679325 79.162194 
L 105.500445 79.444337 
L 102.594426 79.468486 
L 96.41502 79.665891 
L 90.630852 79.790644 
L 88.383565 79.816262 
L 88.056733 268.430975 
L 79.541364 372.387273 
L 79.541364 372.387273 
" clip-path="url(#pe65e4875a6)" style="fill: none; stroke-dasharray: 1.5,2.475; stroke-dashoffset: 0; stroke: #d62728; stroke-width: 1.5"/>
   </g>
   <g id="patch_7">
    <path d="M 55.73 387.16 
L 55.73 62.16 
" style="fill: none; stroke: #000000; stroke-width: 0.8; stroke-linejoin: miter; stroke-linecap: square"/>
   </g>
   <g id="patch_8">
    <path d="M 579.58 387.16 
L 579.58 62.16 
" style="fill: none; stroke: #000000; stroke-width: 0.8; stroke-linejoin: miter; stroke-linecap: square"/>
   </g>
   <g id="patch_9">
    <path d="M 55.73 387.16 
L 579.58 387.16 
" style="fill: none; stroke: #000000; stroke-width: 0.8; stroke-linejoin: miter; stroke-linecap: square"/>
   </g>
   <g id="patch_10">
    <path d="M 55.73 62.16 
L 579.58 62.16 
" style="fill: none; stroke: #000000; stroke-width: 0.8; stroke-linejoin: miter; stroke-linecap: square"/>
   </g>
  </g>
  <g id="legend_1">
   <g id="line2d_40">
    <g>
     <use xlink:href="#md6e89437a3" x="385.120313" y="13.098437" style="fill: #1f77b4; stroke: #1f77b4"/>
    </g>
   </g>
   <g id="text_25">
    <!-- Measured -->
    <g transform="translate(403.120313 16.598437) scale(0.1 -0.1)">
     <defs>
      <path id="DejaVuSans-4d" d="M 628 4666 
L 1569 4666 
L 2759 1491 
L 3956 4666 
L 4897 4666 
L 4897 0 
L 4281 0 
L 4281 4097 
L 3078 897 
L 2444 897 
L 1241 4097 
L 1241 0 
L 628 0 
L 628 4666 
z
" transform="scale(0.015625)"/>
      <path id="DejaVuSans-64" d="M 2906 2969 
L 2906 4863 
L 3481 4863 
L 3481 0 
L 2906 0 
L 2906 525 
Q 2725 213 2448 61 
Q 2172 -91 1784 -91 
Q 1150 -91 751 415 
Q 353 922 353 1747 
Q 353 2572 751 3078 
Q 1150 3584 1784 3584 
Q 2172 3584 2448 3432 
Q 2725 3281 2906 2969 
z
M 947 1747 
Q 947 1113 1208 752 
Q 1469 391 1925 391 
Q 2381 391 2643 752 
Q 2906 1113 2906 1747 
Q 2906 2381 2643 2742 
Q 2381 3103 1925 3103 
Q 1469 3103 1208 2742 
Q 947 2381 947 1747 
z
" transform="scale(0.015625)"/>
     </defs>
     <use xlink:href="#DejaVuSans-4d"/>
     <use xlink:href="#DejaVuSans-65" transform="translate(86.279297 0)"/>
     <use xlink:href="#DejaVuSans-61" transform="translate(147.802734 0)"/>
     <use xlink:href="#DejaVuSans-73" transform="translate(209.082031 0)"/>
     <use xlink:href="#DejaVuSans-75" transform="translate(261.181641 0)"/>
     <use xlink:href="#DejaVuSans-72" transform="translate(324.560547 0)"/>
     <use xlink:href="#DejaVuSans-65" transform="translate(363.423828 0)"/>
     <use xlink:href="#DejaVuSans-64" transform="translate(424.947266 0)"/>
    </g>
   </g>
   <g id="line2d_41">
    <path d="M 375.120313 27.776563 
L 385.120313 27.776563 
L 395.120313 27.776563 
" style="fill: none; stroke: #ff7f0e; stroke-width: 2; stroke-linecap: square"/>
   </g>
   <g id="text_26">
    <!-- Steinhart–Hart Fit -->
    <g transform="translate(403.120313 31.276563) scale(0.1 -0.1)">
     <defs>
      <path id="DejaVuSans-53" d="M 3425 4513 
L 3425 3897 
Q 3066 4069 2747 4153 
Q 2428 4238 2131 4238 
Q 1616 4238 1336 4038 
Q 1056 3838 1056 3469 
Q 1056 3159 1242 3001 
Q 1428 2844 1947 2747 
L 2328 2669 
Q 3034 2534 3370 2195 
Q 3706 1856 3706 1288 
Q 3706 609 3251 259 
Q 2797 -91 1919 -91 
Q 1588 -91 1214 -16 
Q 841 59 441 206 
L 441 856 
Q 825 641 1194 531 
Q 1563 422 1919 422 
Q 2459 422 2753 634 
Q 3047 847 3047 1241 
Q 3047 1584 2836 1778 
Q 2625 1972 2144 2069 
L 1759 2144 
Q 1053 2284 737 2584 
Q 422 2884 422 3419 
Q 422 4038 858 4394 
Q 1294 4750 2059 4750 
Q 2388 4750 2728 4690 
Q 3069 4631 3425 4513 
z
" transform="scale(0.015625)"/>
      <path id="DejaVuSans-68" d="M 3513 2113 
L 3513 0 
L 2938 0 
L 2938 2094 
Q 2938 2591 2744 2837 
Q 2550 3084 2163 3084 
Q 1697 3084 1428 2787 
Q 1159 2491 1159 1978 
L 1159 0 
L 581 0 
L 581 4863 
L 1159 4863 
L 1159 2956 
Q 1366 3272 1645 3428 
Q 1925 3584 2291 3584 
Q 2894 3584 3203 3211 
Q 3513 2838 3513 2113 
z
" transform="scale(0.015625)"/>
      <path id="DejaVuSans-2013" d="M 313 1978 
L 2888 1978 
L 2888 1528 
L 313 1528 
L 313 1978 
z
" transform="scale(0.015625)"/>
      <path id="DejaVuSans-48" d="M 628 4666 
L 1259 4666 
L 1259 2753 
L 3553 2753 
L 3553 4666 
L 4184 4666 
L 4184 0 
L 3553 0 
L 3553 2222 
L 1259 2222 
L 1259 0 
L 628 0 
L 628 4666 
z
" transform="scale(0.015625)"/>
      <path id="DejaVuSans-46" d="M 628 4666 
L 3309 4666 
L 3309 4134 
L 1259 4134 
L 1259 2759 
L 3109 2759 
L 3109 2228 
L 1259 2228 
L 1259 0 
L 628 0 
L 628 4666 
z
" transform="scale(0.015625)"/>
     </defs>
     <use xlink:href="#DejaVuSans-53"/>
     <use xlink:href="#DejaVuSans-74" transform="translate(63.476562 0)"/>
     <use xlink:href="#DejaVuSans-65" transform="translate(102.685547 0)"/>
     <use xlink:href="#DejaVuSans-69" transform="translate(164.208984 0)"/>
     <use xlink:href="#DejaVuSans-6e" transform="translate(191.992188 0)"/>
     <use xlink:href="#DejaVuSans-68" transform="translate(255.371094 0)"/>
     <use xlink:href="#DejaVuSans-61" transform="translate(318.75 0)"/>
     <use xlink:href="#DejaVuSans-72" transform="translate(380.029297 0)"/>
     <use xlink:href="#DejaVuSans-74" transform="translate(421.142578 0)"/>
     <use xlink:href="#DejaVuSans-2013" transform="translate(460.351562 0)"/>
     <use xlink:href="#DejaVuSans-48" transform="translate(510.351562 0)"/>
     <use xlink:href="#DejaVuSans-61" transform="translate(585.546875 0)"/>
     <use xlink:href="#DejaVuSans-72" transform="translate(646.826172 0)"/>
     <use xlink:href="#DejaVuSans-74" transform="translate(687.939453 0)"/>
     <use xlink:href="#DejaVuSans-20" transform="translate(727.148438 0)"/>
     <use xlink:href="#DejaVuSans-46" transform="translate(758.935547 0)"/>
     <use xlink:href="#DejaVuSans-69" transform="translate(809.205078 0)"/>
     <use xlink:href="#DejaVuSans-74" transform="translate(836.988281 0)"/>
    </g>
   </g>
   <g id="line2d_42">
    <path d="M 510.7375 13.098437 
L 520.7375 13.098437 
L 530.7375 13.098437 
" style="fill: none; stroke-dasharray: 7.4,3.2; stroke-dashoffset: 0; stroke: #2ca02c; stroke-width: 2"/>
   </g>
   <g id="text_27">
    <!-- Beta Model Fit -->
    <g transform="translate(538.7375 16.598437) scale(0.1 -0.1)">
     <defs>
      <path id="DejaVuSans-42" d="M 1259 2228 
L 1259 519 
L 2272 519 
Q 2781 519 3026 730 
Q 3272 941 3272 1375 
Q 3272 1813 3026 2020 
Q 2781 2228 2272 2228 
L 1259 2228 
z
M 1259 4147 
L 1259 2741 
L 2194 2741 
Q 2656 2741 2882 2914 
Q 3109 3088 3109 3444 
Q 3109 3797 2882 3972 
Q 2656 4147 2194 4147 
L 1259 4147 
z
M 628 4666 
L 2241 4666 
Q 2963 4666 3353 4366 
Q 3744 4066 3744 3513 
Q 3744 3084 3544 2831 
Q 3344 2578 2956 2516 
Q 3422 2416 3680 2098 
Q 3938 1781 3938 1306 
Q 3938 681 3513 340 
Q 3088 0 2303 0 
L 628 0 
L 628 4666 
z
" transform="scale(0.015625)"/>
      <path id="DejaVuSans-6c" d="M 603 4863 
L 1178 4863 
L 1178 0 
L 603 0 
L 603 4863 
z
" transform="scale(0.015625)"/>
     </defs>
     <use xlink:href="#DejaVuSans-42"/>
     <use xlink:href="#DejaVuSans-65" transform="translate(68.603516 0)"/>
     <use xlink:href="#DejaVuSans-74" transform="translate(130.126953 0)"/>
     <use xlink:href="#DejaVuSans-61" transform="translate(169.335938 0)"/>
     <use xlink:href="#DejaVuSans-20" transform="translate(230.615234 0)"/>
     <use xlink:href="#DejaVuSans-4d" transform="translate(262.402344 0)"/>
     <use xlink:href="#DejaVuSans-6f" transform="translate(348.681641 0)"/>
     <use xlink:href="#DejaVuSans-64" transform="translate(409.863281 0)"/>
     <use xlink:href="#DejaVuSans-65" transform="translate(473.339844 0)"/>
     <use xlink:href="#DejaVuSans-6c" transform="translate(534.863281 0)"/>
     <use xlink:href="#DejaVuSans-20" transform="translate(562.646484 0)"/>
     <use xlink:href="#DejaVuSans-46" transform="translate(594.433594 0)"/>
     <use xlink:href="#DejaVuSans-69" transform="translate(644.703125 0)"/>
     <use xlink:href="#DejaVuSans-74" transform="translate(672.486328 0)"/>
    </g>
   </g>
   <g id="line2d_43">
    <path d="M 510.7375 27.776563 
L 520.7375 27.776563 
L 530.7375 27.776563 
" style="fill: none; stroke-dasharray: 1.5,2.475; stroke-dashoffset: 0; stroke: #d62728; stroke-width: 1.5"/>
   </g>
   <g id="text_28">
    <!-- Steinhart–Hart Error -->
    <g transform="translate(538.7375 31.276563) scale(0.1 -0.1)">
     <use xlink:href="#DejaVuSans-53"/>
     <use xlink:href="#DejaVuSans-74" transform="translate(63.476562 0)"/>
     <use xlink:href="#DejaVuSans-65" transform="translate(102.685547 0)"/>
     <use xlink:href="#DejaVuSans-69" transform="translate(164.208984 0)"/>
     <use xlink:href="#DejaVuSans-6e" transform="translate(191.992188 0)"/>
     <use xlink:href="#DejaVuSans-68" transform="translate(255.371094 0)"/>
     <use xlink:href="#DejaVuSans-61" transform="translate(318.75 0)"/>
     <use xlink:href="#DejaVuSans-72" transform="translate(380.029297 0)"/>
     <use xlink:href="#DejaVuSans-74" transform="translate(421.142578 0)"/>
     <use xlink:href="#DejaVuSans-2013" transform="translate(460.351562 0)"/>
     <use xlink:href="#DejaVuSans-48" transform="translate(510.351562 0)"/>
     <use xlink:href="#DejaVuSans-61" transform="translate(585.546875 0)"/>
     <use xlink:href="#DejaVuSans-72" transform="translate(646.826172 0)"/>
     <use xlink:href="#DejaVuSans-74" transform="translate(687.939453 0)"/>
     <use xlink:href="#DejaVuSans-20" transform="translate(727.148438 0)"/>
     <use xlink:href="#DejaVuSans-45" transform="translate(758.935547 0)"/>
     <use xlink:href="#DejaVuSans-72" transform="translate(822.119141 0)"/>
     <use xlink:href="#DejaVuSans-72" transform="translate(861.482422 0)"/>
     <use xlink:href="#DejaVuSans-6f" transform="translate(900.345703 0)"/>
     <use xlink:href="#DejaVuSans-72" transform="translate(961.527344 0)"/>
    </g>
   </g>
  </g>
 </g>
 <defs>
  <clipPath id="pe65e4875a6">
   <rect x="55.73" y="62.16" width="523.85" height="325"/>
  </clipPath>
 </defs>
</svg>
