<?xml version="1.0" encoding="utf-8" standalone="no"?>
<!DOCTYPE svg PUBLIC "-//W3C//DTD SVG 1.1//EN"
  "http://www.w3.org/Graphics/SVG/1.1/DTD/svg11.dtd">
<svg xmlns:xlink="http://www.w3.org/1999/xlink" width="648pt" height="432pt" viewBox="0 0 648 432" xmlns="http://www.w3.org/2000/svg" version="1.1">
 <metadata>
  <rdf:RDF xmlns:dc="http://purl.org/dc/elements/1.1/" xmlns:cc="http://creativecommons.org/ns#" xmlns:rdf="http://www.w3.org/1999/02/22-rdf-syntax-ns#">
   <cc:Work>
    <dc:type rdf:resource="http://purl.org/dc/dcmitype/StillImage"/>
    <dc:date>2025-08-06T14:54:58.804877</dc:date>
    <dc:format>image/svg+xml</dc:format>
    <dc:creator>
     <cc:Agent>
      <dc:title>Matplotlib v3.10.1, https://matplotlib.org/</dc:title>
     </cc:Agent>
    </dc:creator>
   </cc:Work>
  </rdf:RDF>
 </metadata>
 <defs>
  <style type="text/css">*{stroke-linejoin: round; stroke-linecap: butt}</style>
 </defs>
 <g id="figure_1">
  <g id="patch_1">
   <path d="M 0 432 
L 648 432 
L 648 0 
L 0 0 
z
" style="fill: #ffffff"/>
  </g>
  <g id="axes_1">
   <g id="patch_2">
    <path d="M 81 384.48 
L 583.2 384.48 
L 583.2 51.84 
L 81 51.84 
z
" style="fill: #ffffff"/>
   </g>
   <g id="matplotlib.axis_1">
    <g id="xtick_1">
     <g id="line2d_1">
      <path d="M 145.331405 384.48 
L 145.331405 51.84 
" clip-path="url(#p95f3c9df8d)" style="fill: none; stroke-dasharray: 0.8,1.32; stroke-dashoffset: 0; stroke: #b0b0b0; stroke-opacity: 0.7; stroke-width: 0.8"/>
     </g>
     <g id="line2d_2">
      <defs>
       <path id="mf743db5059" d="M 0 0 
L 0 3.5 
" style="stroke: #000000; stroke-width: 0.8"/>
      </defs>
      <g>
       <use xlink:href="#mf743db5059" x="145.331405" y="384.48" style="stroke: #000000; stroke-width: 0.8"/>
      </g>
     </g>
     <g id="text_1">
      <!-- −25 -->
      <g transform="translate(134.779061 399.078438) scale(0.1 -0.1)">
       <defs>
        <path id="DejaVuSans-2212" d="M 678 2272 
L 4684 2272 
L 4684 1741 
L 678 1741 
L 678 2272 
z
" transform="scale(0.015625)"/>
        <path id="DejaVuSans-32" d="M 1228 531 
L 3431 531 
L 3431 0 
L 469 0 
L 469 531 
Q 828 903 1448 1529 
Q 2069 2156 2228 2338 
Q 2531 2678 2651 2914 
Q 2772 3150 2772 3378 
Q 2772 3750 2511 3984 
Q 2250 4219 1831 4219 
Q 1534 4219 1204 4116 
Q 875 4013 500 3803 
L 500 4441 
Q 881 4594 1212 4672 
Q 1544 4750 1819 4750 
Q 2544 4750 2975 4387 
Q 3406 4025 3406 3419 
Q 3406 3131 3298 2873 
Q 3191 2616 2906 2266 
Q 2828 2175 2409 1742 
Q 1991 1309 1228 531 
z
" transform="scale(0.015625)"/>
        <path id="DejaVuSans-35" d="M 691 4666 
L 3169 4666 
L 3169 4134 
L 1269 4134 
L 1269 2991 
Q 1406 3038 1543 3061 
Q 1681 3084 1819 3084 
Q 2600 3084 3056 2656 
Q 3513 2228 3513 1497 
Q 3513 744 3044 326 
Q 2575 -91 1722 -91 
Q 1428 -91 1123 -41 
Q 819 9 494 109 
L 494 744 
Q 775 591 1075 516 
Q 1375 441 1709 441 
Q 2250 441 2565 725 
Q 2881 1009 2881 1497 
Q 2881 1984 2565 2268 
Q 2250 2553 1709 2553 
Q 1456 2553 1204 2497 
Q 953 2441 691 2322 
L 691 4666 
z
" transform="scale(0.015625)"/>
       </defs>
       <use xlink:href="#DejaVuSans-2212"/>
       <use xlink:href="#DejaVuSans-32" transform="translate(83.789062 0)"/>
       <use xlink:href="#DejaVuSans-35" transform="translate(147.412109 0)"/>
      </g>
     </g>
    </g>
    <g id="xtick_2">
     <g id="line2d_3">
      <path d="M 214.504959 384.48 
L 214.504959 51.84 
" clip-path="url(#p95f3c9df8d)" style="fill: none; stroke-dasharray: 0.8,1.32; stroke-dashoffset: 0; stroke: #b0b0b0; stroke-opacity: 0.7; stroke-width: 0.8"/>
     </g>
     <g id="line2d_4">
      <g>
       <use xlink:href="#mf743db5059" x="214.504959" y="384.48" style="stroke: #000000; stroke-width: 0.8"/>
      </g>
     </g>
     <g id="text_2">
      <!-- 0 -->
      <g transform="translate(211.323709 399.078438) scale(0.1 -0.1)">
       <defs>
        <path id="DejaVuSans-30" d="M 2034 4250 
Q 1547 4250 1301 3770 
Q 1056 3291 1056 2328 
Q 1056 1369 1301 889 
Q 1547 409 2034 409 
Q 2525 409 2770 889 
Q 3016 1369 3016 2328 
Q 3016 3291 2770 3770 
Q 2525 4250 2034 4250 
z
M 2034 4750 
Q 2819 4750 3233 4129 
Q 3647 3509 3647 2328 
Q 3647 1150 3233 529 
Q 2819 -91 2034 -91 
Q 1250 -91 836 529 
Q 422 1150 422 2328 
Q 422 3509 836 4129 
Q 1250 4750 2034 4750 
z
" transform="scale(0.015625)"/>
       </defs>
       <use xlink:href="#DejaVuSans-30"/>
      </g>
     </g>
    </g>
    <g id="xtick_3">
     <g id="line2d_5">
      <path d="M 283.678512 384.48 
L 283.678512 51.84 
" clip-path="url(#p95f3c9df8d)" style="fill: none; stroke-dasharray: 0.8,1.32; stroke-dashoffset: 0; stroke: #b0b0b0; stroke-opacity: 0.7; stroke-width: 0.8"/>
     </g>
     <g id="line2d_6">
      <g>
       <use xlink:href="#mf743db5059" x="283.678512" y="384.48" style="stroke: #000000; stroke-width: 0.8"/>
      </g>
     </g>
     <g id="text_3">
      <!-- 25 -->
      <g transform="translate(277.316012 399.078438) scale(0.1 -0.1)">
       <use xlink:href="#DejaVuSans-32"/>
       <use xlink:href="#DejaVuSans-35" transform="translate(63.623047 0)"/>
      </g>
     </g>
    </g>
    <g id="xtick_4">
     <g id="line2d_7">
      <path d="M 352.852066 384.48 
L 352.852066 51.84 
" clip-path="url(#p95f3c9df8d)" style="fill: none; stroke-dasharray: 0.8,1.32; stroke-dashoffset: 0; stroke: #b0b0b0; stroke-opacity: 0.7; stroke-width: 0.8"/>
     </g>
     <g id="line2d_8">
      <g>
       <use xlink:href="#mf743db5059" x="352.852066" y="384.48" style="stroke: #000000; stroke-width: 0.8"/>
      </g>
     </g>
     <g id="text_4">
      <!-- 50 -->
      <g transform="translate(346.489566 399.078438) scale(0.1 -0.1)">
       <use xlink:href="#DejaVuSans-35"/>
       <use xlink:href="#DejaVuSans-30" transform="translate(63.623047 0)"/>
      </g>
     </g>
    </g>
    <g id="xtick_5">
     <g id="line2d_9">
      <path d="M 422.02562 384.48 
L 422.02562 51.84 
" clip-path="url(#p95f3c9df8d)" style="fill: none; stroke-dasharray: 0.8,1.32; stroke-dashoffset: 0; stroke: #b0b0b0; stroke-opacity: 0.7; stroke-width: 0.8"/>
     </g>
     <g id="line2d_10">
      <g>
       <use xlink:href="#mf743db5059" x="422.02562" y="384.48" style="stroke: #000000; stroke-width: 0.8"/>
      </g>
     </g>
     <g id="text_5">
      <!-- 75 -->
      <g transform="translate(415.66312 399.078438) scale(0.1 -0.1)">
       <defs>
        <path id="DejaVuSans-37" d="M 525 4666 
L 3525 4666 
L 3525 4397 
L 1831 0 
L 1172 0 
L 2766 4134 
L 525 4134 
L 525 4666 
z
" transform="scale(0.015625)"/>
       </defs>
       <use xlink:href="#DejaVuSans-37"/>
       <use xlink:href="#DejaVuSans-35" transform="translate(63.623047 0)"/>
      </g>
     </g>
    </g>
    <g id="xtick_6">
     <g id="line2d_11">
      <path d="M 491.199174 384.48 
L 491.199174 51.84 
" clip-path="url(#p95f3c9df8d)" style="fill: none; stroke-dasharray: 0.8,1.32; stroke-dashoffset: 0; stroke: #b0b0b0; stroke-opacity: 0.7; stroke-width: 0.8"/>
     </g>
     <g id="line2d_12">
      <g>
       <use xlink:href="#mf743db5059" x="491.199174" y="384.48" style="stroke: #000000; stroke-width: 0.8"/>
      </g>
     </g>
     <g id="text_6">
      <!-- 100 -->
      <g transform="translate(481.655424 399.078438) scale(0.1 -0.1)">
       <defs>
        <path id="DejaVuSans-31" d="M 794 531 
L 1825 531 
L 1825 4091 
L 703 3866 
L 703 4441 
L 1819 4666 
L 2450 4666 
L 2450 531 
L 3481 531 
L 3481 0 
L 794 0 
L 794 531 
z
" transform="scale(0.015625)"/>
       </defs>
       <use xlink:href="#DejaVuSans-31"/>
       <use xlink:href="#DejaVuSans-30" transform="translate(63.623047 0)"/>
       <use xlink:href="#DejaVuSans-30" transform="translate(127.246094 0)"/>
      </g>
     </g>
    </g>
    <g id="xtick_7">
     <g id="line2d_13">
      <path d="M 560.372727 384.48 
L 560.372727 51.84 
" clip-path="url(#p95f3c9df8d)" style="fill: none; stroke-dasharray: 0.8,1.32; stroke-dashoffset: 0; stroke: #b0b0b0; stroke-opacity: 0.7; stroke-width: 0.8"/>
     </g>
     <g id="line2d_14">
      <g>
       <use xlink:href="#mf743db5059" x="560.372727" y="384.48" style="stroke: #000000; stroke-width: 0.8"/>
      </g>
     </g>
     <g id="text_7">
      <!-- 125 -->
      <g transform="translate(550.828977 399.078438) scale(0.1 -0.1)">
       <use xlink:href="#DejaVuSans-31"/>
       <use xlink:href="#DejaVuSans-32" transform="translate(63.623047 0)"/>
       <use xlink:href="#DejaVuSans-35" transform="translate(127.246094 0)"/>
      </g>
     </g>
    </g>
    <g id="text_8">
     <!-- Temperature (°C) -->
     <g transform="translate(280.318125 414.27625) scale(0.12 -0.12)">
      <defs>
       <path id="DejaVuSans-54" d="M -19 4666 
L 3928 4666 
L 3928 4134 
L 2272 4134 
L 2272 0 
L 1638 0 
L 1638 4134 
L -19 4134 
L -19 4666 
z
" transform="scale(0.015625)"/>
       <path id="DejaVuSans-65" d="M 3597 1894 
L 3597 1613 
L 953 1613 
Q 991 1019 1311 708 
Q 1631 397 2203 397 
Q 2534 397 2845 478 
Q 3156 559 3463 722 
L 3463 178 
Q 3153 47 2828 -22 
Q 2503 -91 2169 -91 
Q 1331 -91 842 396 
Q 353 884 353 1716 
Q 353 2575 817 3079 
Q 1281 3584 2069 3584 
Q 2775 3584 3186 3129 
Q 3597 2675 3597 1894 
z
M 3022 2063 
Q 3016 2534 2758 2815 
Q 2500 3097 2075 3097 
Q 1594 3097 1305 2825 
Q 1016 2553 972 2059 
L 3022 2063 
z
" transform="scale(0.015625)"/>
       <path id="DejaVuSans-6d" d="M 3328 2828 
Q 3544 3216 3844 3400 
Q 4144 3584 4550 3584 
Q 5097 3584 5394 3201 
Q 5691 2819 5691 2113 
L 5691 0 
L 5113 0 
L 5113 2094 
Q 5113 2597 4934 2840 
Q 4756 3084 4391 3084 
Q 3944 3084 3684 2787 
Q 3425 2491 3425 1978 
L 3425 0 
L 2847 0 
L 2847 2094 
Q 2847 2600 2669 2842 
Q 2491 3084 2119 3084 
Q 1678 3084 1418 2786 
Q 1159 2488 1159 1978 
L 1159 0 
L 581 0 
L 581 3500 
L 1159 3500 
L 1159 2956 
Q 1356 3278 1631 3431 
Q 1906 3584 2284 3584 
Q 2666 3584 2933 3390 
Q 3200 3197 3328 2828 
z
" transform="scale(0.015625)"/>
       <path id="DejaVuSans-70" d="M 1159 525 
L 1159 -1331 
L 581 -1331 
L 581 3500 
L 1159 3500 
L 1159 2969 
Q 1341 3281 1617 3432 
Q 1894 3584 2278 3584 
Q 2916 3584 3314 3078 
Q 3713 2572 3713 1747 
Q 3713 922 3314 415 
Q 2916 -91 2278 -91 
Q 1894 -91 1617 61 
Q 1341 213 1159 525 
z
M 3116 1747 
Q 3116 2381 2855 2742 
Q 2594 3103 2138 3103 
Q 1681 3103 1420 2742 
Q 1159 2381 1159 1747 
Q 1159 1113 1420 752 
Q 1681 391 2138 391 
Q 2594 391 2855 752 
Q 3116 1113 3116 1747 
z
" transform="scale(0.015625)"/>
       <path id="DejaVuSans-72" d="M 2631 2963 
Q 2534 3019 2420 3045 
Q 2306 3072 2169 3072 
Q 1681 3072 1420 2755 
Q 1159 2438 1159 1844 
L 1159 0 
L 581 0 
L 581 3500 
L 1159 3500 
L 1159 2956 
Q 1341 3275 1631 3429 
Q 1922 3584 2338 3584 
Q 2397 3584 2469 3576 
Q 2541 3569 2628 3553 
L 2631 2963 
z
" transform="scale(0.015625)"/>
       <path id="DejaVuSans-61" d="M 2194 1759 
Q 1497 1759 1228 1600 
Q 959 1441 959 1056 
Q 959 750 1161 570 
Q 1363 391 1709 391 
Q 2188 391 2477 730 
Q 2766 1069 2766 1631 
L 2766 1759 
L 2194 1759 
z
M 3341 1997 
L 3341 0 
L 2766 0 
L 2766 531 
Q 2569 213 2275 61 
Q 1981 -91 1556 -91 
Q 1019 -91 701 211 
Q 384 513 384 1019 
Q 384 1609 779 1909 
Q 1175 2209 1959 2209 
L 2766 2209 
L 2766 2266 
Q 2766 2663 2505 2880 
Q 2244 3097 1772 3097 
Q 1472 3097 1187 3025 
Q 903 2953 641 2809 
L 641 3341 
Q 956 3463 1253 3523 
Q 1550 3584 1831 3584 
Q 2591 3584 2966 3190 
Q 3341 2797 3341 1997 
z
" transform="scale(0.015625)"/>
       <path id="DejaVuSans-74" d="M 1172 4494 
L 1172 3500 
L 2356 3500 
L 2356 3053 
L 1172 3053 
L 1172 1153 
Q 1172 725 1289 603 
Q 1406 481 1766 481 
L 2356 481 
L 2356 0 
L 1766 0 
Q 1100 0 847 248 
Q 594 497 594 1153 
L 594 3053 
L 172 3053 
L 172 3500 
L 594 3500 
L 594 4494 
L 1172 4494 
z
" transform="scale(0.015625)"/>
       <path id="DejaVuSans-75" d="M 544 1381 
L 544 3500 
L 1119 3500 
L 1119 1403 
Q 1119 906 1312 657 
Q 1506 409 1894 409 
Q 2359 409 2629 706 
Q 2900 1003 2900 1516 
L 2900 3500 
L 3475 3500 
L 3475 0 
L 2900 0 
L 2900 538 
Q 2691 219 2414 64 
Q 2138 -91 1772 -91 
Q 1169 -91 856 284 
Q 544 659 544 1381 
z
M 1991 3584 
L 1991 3584 
z
" transform="scale(0.015625)"/>
       <path id="DejaVuSans-20" transform="scale(0.015625)"/>
       <path id="DejaVuSans-28" d="M 1984 4856 
Q 1566 4138 1362 3434 
Q 1159 2731 1159 2009 
Q 1159 1288 1364 580 
Q 1569 -128 1984 -844 
L 1484 -844 
Q 1016 -109 783 600 
Q 550 1309 550 2009 
Q 550 2706 781 3412 
Q 1013 4119 1484 4856 
L 1984 4856 
z
" transform="scale(0.015625)"/>
       <path id="DejaVuSans-b0" d="M 1600 4347 
Q 1350 4347 1178 4173 
Q 1006 4000 1006 3750 
Q 1006 3503 1178 3333 
Q 1350 3163 1600 3163 
Q 1850 3163 2022 3333 
Q 2194 3503 2194 3750 
Q 2194 3997 2020 4172 
Q 1847 4347 1600 4347 
z
M 1600 4750 
Q 1800 4750 1984 4673 
Q 2169 4597 2303 4453 
Q 2447 4313 2519 4134 
Q 2591 3956 2591 3750 
Q 2591 3338 2302 3052 
Q 2013 2766 1594 2766 
Q 1172 2766 890 3047 
Q 609 3328 609 3750 
Q 609 4169 896 4459 
Q 1184 4750 1600 4750 
z
" transform="scale(0.015625)"/>
       <path id="DejaVuSans-43" d="M 4122 4306 
L 4122 3641 
Q 3803 3938 3442 4084 
Q 3081 4231 2675 4231 
Q 1875 4231 1450 3742 
Q 1025 3253 1025 2328 
Q 1025 1406 1450 917 
Q 1875 428 2675 428 
Q 3081 428 3442 575 
Q 3803 722 4122 1019 
L 4122 359 
Q 3791 134 3420 21 
Q 3050 -91 2638 -91 
Q 1578 -91 968 557 
Q 359 1206 359 2328 
Q 359 3453 968 4101 
Q 1578 4750 2638 4750 
Q 3056 4750 3426 4639 
Q 3797 4528 4122 4306 
z
" transform="scale(0.015625)"/>
       <path id="DejaVuSans-29" d="M 513 4856 
L 1013 4856 
Q 1481 4119 1714 3412 
Q 1947 2706 1947 2009 
Q 1947 1309 1714 600 
Q 1481 -109 1013 -844 
L 513 -844 
Q 928 -128 1133 580 
Q 1338 1288 1338 2009 
Q 1338 2731 1133 3434 
Q 928 4138 513 4856 
z
" transform="scale(0.015625)"/>
      </defs>
      <use xlink:href="#DejaVuSans-54"/>
      <use xlink:href="#DejaVuSans-65" transform="translate(44.083984 0)"/>
      <use xlink:href="#DejaVuSans-6d" transform="translate(105.607422 0)"/>
      <use xlink:href="#DejaVuSans-70" transform="translate(203.019531 0)"/>
      <use xlink:href="#DejaVuSans-65" transform="translate(266.496094 0)"/>
      <use xlink:href="#DejaVuSans-72" transform="translate(328.019531 0)"/>
      <use xlink:href="#DejaVuSans-61" transform="translate(369.132812 0)"/>
      <use xlink:href="#DejaVuSans-74" transform="translate(430.412109 0)"/>
      <use xlink:href="#DejaVuSans-75" transform="translate(469.621094 0)"/>
      <use xlink:href="#DejaVuSans-72" transform="translate(533 0)"/>
      <use xlink:href="#DejaVuSans-65" transform="translate(571.863281 0)"/>
      <use xlink:href="#DejaVuSans-20" transform="translate(633.386719 0)"/>
      <use xlink:href="#DejaVuSans-28" transform="translate(665.173828 0)"/>
      <use xlink:href="#DejaVuSans-b0" transform="translate(704.1875 0)"/>
      <use xlink:href="#DejaVuSans-43" transform="translate(754.1875 0)"/>
      <use xlink:href="#DejaVuSans-29" transform="translate(824.011719 0)"/>
     </g>
    </g>
   </g>
   <g id="matplotlib.axis_2">
    <g id="ytick_1">
     <g id="line2d_15">
      <path d="M 81 383.798139 
L 583.2 383.798139 
" clip-path="url(#p95f3c9df8d)" style="fill: none; stroke-dasharray: 0.8,1.32; stroke-dashoffset: 0; stroke: #b0b0b0; stroke-opacity: 0.7; stroke-width: 0.8"/>
     </g>
     <g id="line2d_16">
      <defs>
       <path id="m125cec4b29" d="M 0 0 
L -3.5 0 
" style="stroke: #000000; stroke-width: 0.8"/>
      </defs>
      <g>
       <use xlink:href="#m125cec4b29" x="81" y="383.798139" style="stroke: #000000; stroke-width: 0.8"/>
      </g>
     </g>
     <g id="text_9">
      <!-- −3 -->
      <g transform="translate(59.257812 387.597358) scale(0.1 -0.1)">
       <defs>
        <path id="DejaVuSans-33" d="M 2597 2516 
Q 3050 2419 3304 2112 
Q 3559 1806 3559 1356 
Q 3559 666 3084 287 
Q 2609 -91 1734 -91 
Q 1441 -91 1130 -33 
Q 819 25 488 141 
L 488 750 
Q 750 597 1062 519 
Q 1375 441 1716 441 
Q 2309 441 2620 675 
Q 2931 909 2931 1356 
Q 2931 1769 2642 2001 
Q 2353 2234 1838 2234 
L 1294 2234 
L 1294 2753 
L 1863 2753 
Q 2328 2753 2575 2939 
Q 2822 3125 2822 3475 
Q 2822 3834 2567 4026 
Q 2313 4219 1838 4219 
Q 1578 4219 1281 4162 
Q 984 4106 628 3988 
L 628 4550 
Q 988 4650 1302 4700 
Q 1616 4750 1894 4750 
Q 2613 4750 3031 4423 
Q 3450 4097 3450 3541 
Q 3450 3153 3228 2886 
Q 3006 2619 2597 2516 
z
" transform="scale(0.015625)"/>
       </defs>
       <use xlink:href="#DejaVuSans-2212"/>
       <use xlink:href="#DejaVuSans-33" transform="translate(83.789062 0)"/>
      </g>
     </g>
    </g>
    <g id="ytick_2">
     <g id="line2d_17">
      <path d="M 81 326.673329 
L 583.2 326.673329 
" clip-path="url(#p95f3c9df8d)" style="fill: none; stroke-dasharray: 0.8,1.32; stroke-dashoffset: 0; stroke: #b0b0b0; stroke-opacity: 0.7; stroke-width: 0.8"/>
     </g>
     <g id="line2d_18">
      <g>
       <use xlink:href="#m125cec4b29" x="81" y="326.673329" style="stroke: #000000; stroke-width: 0.8"/>
      </g>
     </g>
     <g id="text_10">
      <!-- −2 -->
      <g transform="translate(59.257812 330.472547) scale(0.1 -0.1)">
       <use xlink:href="#DejaVuSans-2212"/>
       <use xlink:href="#DejaVuSans-32" transform="translate(83.789062 0)"/>
      </g>
     </g>
    </g>
    <g id="ytick_3">
     <g id="line2d_19">
      <path d="M 81 269.548518 
L 583.2 269.548518 
" clip-path="url(#p95f3c9df8d)" style="fill: none; stroke-dasharray: 0.8,1.32; stroke-dashoffset: 0; stroke: #b0b0b0; stroke-opacity: 0.7; stroke-width: 0.8"/>
     </g>
     <g id="line2d_20">
      <g>
       <use xlink:href="#m125cec4b29" x="81" y="269.548518" style="stroke: #000000; stroke-width: 0.8"/>
      </g>
     </g>
     <g id="text_11">
      <!-- −1 -->
      <g transform="translate(59.257812 273.347737) scale(0.1 -0.1)">
       <use xlink:href="#DejaVuSans-2212"/>
       <use xlink:href="#DejaVuSans-31" transform="translate(83.789062 0)"/>
      </g>
     </g>
    </g>
    <g id="ytick_4">
     <g id="line2d_21">
      <path d="M 81 212.423708 
L 583.2 212.423708 
" clip-path="url(#p95f3c9df8d)" style="fill: none; stroke-dasharray: 0.8,1.32; stroke-dashoffset: 0; stroke: #b0b0b0; stroke-opacity: 0.7; stroke-width: 0.8"/>
     </g>
     <g id="line2d_22">
      <g>
       <use xlink:href="#m125cec4b29" x="81" y="212.423708" style="stroke: #000000; stroke-width: 0.8"/>
      </g>
     </g>
     <g id="text_12">
      <!-- 0 -->
      <g transform="translate(67.6375 216.222927) scale(0.1 -0.1)">
       <use xlink:href="#DejaVuSans-30"/>
      </g>
     </g>
    </g>
    <g id="ytick_5">
     <g id="line2d_23">
      <path d="M 81 155.298898 
L 583.2 155.298898 
" clip-path="url(#p95f3c9df8d)" style="fill: none; stroke-dasharray: 0.8,1.32; stroke-dashoffset: 0; stroke: #b0b0b0; stroke-opacity: 0.7; stroke-width: 0.8"/>
     </g>
     <g id="line2d_24">
      <g>
       <use xlink:href="#m125cec4b29" x="81" y="155.298898" style="stroke: #000000; stroke-width: 0.8"/>
      </g>
     </g>
     <g id="text_13">
      <!-- 1 -->
      <g transform="translate(67.6375 159.098116) scale(0.1 -0.1)">
       <use xlink:href="#DejaVuSans-31"/>
      </g>
     </g>
    </g>
    <g id="ytick_6">
     <g id="line2d_25">
      <path d="M 81 98.174087 
L 583.2 98.174087 
" clip-path="url(#p95f3c9df8d)" style="fill: none; stroke-dasharray: 0.8,1.32; stroke-dashoffset: 0; stroke: #b0b0b0; stroke-opacity: 0.7; stroke-width: 0.8"/>
     </g>
     <g id="line2d_26">
      <g>
       <use xlink:href="#m125cec4b29" x="81" y="98.174087" style="stroke: #000000; stroke-width: 0.8"/>
      </g>
     </g>
     <g id="text_14">
      <!-- 2 -->
      <g transform="translate(67.6375 101.973306) scale(0.1 -0.1)">
       <use xlink:href="#DejaVuSans-32"/>
      </g>
     </g>
    </g>
    <g id="text_15">
     <!-- Tolerance Range % -->
     <g transform="translate(52.762187 275.300625) rotate(-90) scale(0.12 -0.12)">
      <defs>
       <path id="DejaVuSans-6f" d="M 1959 3097 
Q 1497 3097 1228 2736 
Q 959 2375 959 1747 
Q 959 1119 1226 758 
Q 1494 397 1959 397 
Q 2419 397 2687 759 
Q 2956 1122 2956 1747 
Q 2956 2369 2687 2733 
Q 2419 3097 1959 3097 
z
M 1959 3584 
Q 2709 3584 3137 3096 
Q 3566 2609 3566 1747 
Q 3566 888 3137 398 
Q 2709 -91 1959 -91 
Q 1206 -91 779 398 
Q 353 888 353 1747 
Q 353 2609 779 3096 
Q 1206 3584 1959 3584 
z
" transform="scale(0.015625)"/>
       <path id="DejaVuSans-6c" d="M 603 4863 
L 1178 4863 
L 1178 0 
L 603 0 
L 603 4863 
z
" transform="scale(0.015625)"/>
       <path id="DejaVuSans-6e" d="M 3513 2113 
L 3513 0 
L 2938 0 
L 2938 2094 
Q 2938 2591 2744 2837 
Q 2550 3084 2163 3084 
Q 1697 3084 1428 2787 
Q 1159 2491 1159 1978 
L 1159 0 
L 581 0 
L 581 3500 
L 1159 3500 
L 1159 2956 
Q 1366 3272 1645 3428 
Q 1925 3584 2291 3584 
Q 2894 3584 3203 3211 
Q 3513 2838 3513 2113 
z
" transform="scale(0.015625)"/>
       <path id="DejaVuSans-63" d="M 3122 3366 
L 3122 2828 
Q 2878 2963 2633 3030 
Q 2388 3097 2138 3097 
Q 1578 3097 1268 2742 
Q 959 2388 959 1747 
Q 959 1106 1268 751 
Q 1578 397 2138 397 
Q 2388 397 2633 464 
Q 2878 531 3122 666 
L 3122 134 
Q 2881 22 2623 -34 
Q 2366 -91 2075 -91 
Q 1284 -91 818 406 
Q 353 903 353 1747 
Q 353 2603 823 3093 
Q 1294 3584 2113 3584 
Q 2378 3584 2631 3529 
Q 2884 3475 3122 3366 
z
" transform="scale(0.015625)"/>
       <path id="DejaVuSans-52" d="M 2841 2188 
Q 3044 2119 3236 1894 
Q 3428 1669 3622 1275 
L 4263 0 
L 3584 0 
L 2988 1197 
Q 2756 1666 2539 1819 
Q 2322 1972 1947 1972 
L 1259 1972 
L 1259 0 
L 628 0 
L 628 4666 
L 2053 4666 
Q 2853 4666 3247 4331 
Q 3641 3997 3641 3322 
Q 3641 2881 3436 2590 
Q 3231 2300 2841 2188 
z
M 1259 4147 
L 1259 2491 
L 2053 2491 
Q 2509 2491 2742 2702 
Q 2975 2913 2975 3322 
Q 2975 3731 2742 3939 
Q 2509 4147 2053 4147 
L 1259 4147 
z
" transform="scale(0.015625)"/>
       <path id="DejaVuSans-67" d="M 2906 1791 
Q 2906 2416 2648 2759 
Q 2391 3103 1925 3103 
Q 1463 3103 1205 2759 
Q 947 2416 947 1791 
Q 947 1169 1205 825 
Q 1463 481 1925 481 
Q 2391 481 2648 825 
Q 2906 1169 2906 1791 
z
M 3481 434 
Q 3481 -459 3084 -895 
Q 2688 -1331 1869 -1331 
Q 1566 -1331 1297 -1286 
Q 1028 -1241 775 -1147 
L 775 -588 
Q 1028 -725 1275 -790 
Q 1522 -856 1778 -856 
Q 2344 -856 2625 -561 
Q 2906 -266 2906 331 
L 2906 616 
Q 2728 306 2450 153 
Q 2172 0 1784 0 
Q 1141 0 747 490 
Q 353 981 353 1791 
Q 353 2603 747 3093 
Q 1141 3584 1784 3584 
Q 2172 3584 2450 3431 
Q 2728 3278 2906 2969 
L 2906 3500 
L 3481 3500 
L 3481 434 
z
" transform="scale(0.015625)"/>
       <path id="DejaVuSans-25" d="M 4653 2053 
Q 4381 2053 4226 1822 
Q 4072 1591 4072 1178 
Q 4072 772 4226 539 
Q 4381 306 4653 306 
Q 4919 306 5073 539 
Q 5228 772 5228 1178 
Q 5228 1588 5073 1820 
Q 4919 2053 4653 2053 
z
M 4653 2450 
Q 5147 2450 5437 2106 
Q 5728 1763 5728 1178 
Q 5728 594 5436 251 
Q 5144 -91 4653 -91 
Q 4153 -91 3862 251 
Q 3572 594 3572 1178 
Q 3572 1766 3864 2108 
Q 4156 2450 4653 2450 
z
M 1428 4353 
Q 1159 4353 1004 4120 
Q 850 3888 850 3481 
Q 850 3069 1003 2837 
Q 1156 2606 1428 2606 
Q 1700 2606 1854 2837 
Q 2009 3069 2009 3481 
Q 2009 3884 1853 4118 
Q 1697 4353 1428 4353 
z
M 4250 4750 
L 4750 4750 
L 1831 -91 
L 1331 -91 
L 4250 4750 
z
M 1428 4750 
Q 1922 4750 2215 4408 
Q 2509 4066 2509 3481 
Q 2509 2891 2217 2550 
Q 1925 2209 1428 2209 
Q 931 2209 642 2551 
Q 353 2894 353 3481 
Q 353 4063 643 4406 
Q 934 4750 1428 4750 
z
" transform="scale(0.015625)"/>
      </defs>
      <use xlink:href="#DejaVuSans-54"/>
      <use xlink:href="#DejaVuSans-6f" transform="translate(44.083984 0)"/>
      <use xlink:href="#DejaVuSans-6c" transform="translate(105.265625 0)"/>
      <use xlink:href="#DejaVuSans-65" transform="translate(133.048828 0)"/>
      <use xlink:href="#DejaVuSans-72" transform="translate(194.572266 0)"/>
      <use xlink:href="#DejaVuSans-61" transform="translate(235.685547 0)"/>
      <use xlink:href="#DejaVuSans-6e" transform="translate(296.964844 0)"/>
      <use xlink:href="#DejaVuSans-63" transform="translate(360.34375 0)"/>
      <use xlink:href="#DejaVuSans-65" transform="translate(415.324219 0)"/>
      <use xlink:href="#DejaVuSans-20" transform="translate(476.847656 0)"/>
      <use xlink:href="#DejaVuSans-52" transform="translate(508.634766 0)"/>
      <use xlink:href="#DejaVuSans-61" transform="translate(575.867188 0)"/>
      <use xlink:href="#DejaVuSans-6e" transform="translate(637.146484 0)"/>
      <use xlink:href="#DejaVuSans-67" transform="translate(700.525391 0)"/>
      <use xlink:href="#DejaVuSans-65" transform="translate(764.001953 0)"/>
      <use xlink:href="#DejaVuSans-20" transform="translate(825.525391 0)"/>
      <use xlink:href="#DejaVuSans-25" transform="translate(857.3125 0)"/>
     </g>
    </g>
   </g>
   <g id="line2d_27">
    <path d="M 103.827273 66.96 
L 106.594215 68.492215 
L 109.361157 74.000704 
L 112.128099 73.529219 
L 114.895041 77.217056 
L 117.661983 77.826095 
L 120.428926 83.068769 
L 123.195868 80.597223 
L 125.96281 82.805014 
L 128.729752 85.696313 
L 131.496694 89.243524 
L 134.263636 88.239338 
L 139.797521 94.757589 
L 142.564463 96.880506 
L 145.331405 98.253281 
L 148.098347 100.781386 
L 150.865289 102.442242 
L 153.632231 103.818499 
L 156.399174 106.428839 
L 159.166116 107.932242 
L 161.933058 109.862526 
L 164.7 111.342469 
L 167.466942 114.200932 
L 170.233884 115.567435 
L 173.000826 118.391098 
L 175.767769 119.510534 
L 178.534711 122.121708 
L 181.301653 122.782454 
L 184.068595 124.994334 
L 186.835537 126.299141 
L 189.602479 127.94038 
L 192.369421 129.933007 
L 195.136364 132.313402 
L 197.903306 135.0974 
L 200.670248 134.977752 
L 203.43719 138.509905 
L 206.204132 138.880341 
L 208.971074 139.457564 
L 211.738017 142.245808 
L 214.504959 145.415133 
L 217.271901 144.678141 
L 220.038843 146.291193 
L 222.805785 148.185062 
L 225.572727 150.385469 
L 228.339669 152.891735 
L 231.106612 155.757623 
L 233.873554 156.170817 
L 236.640496 156.735078 
L 239.407438 157.466648 
L 242.17438 161.533008 
L 244.941322 162.74996 
L 247.708264 164.158932 
L 250.475207 165.747244 
L 253.242149 167.590632 
L 256.009091 165.79121 
L 258.776033 167.952872 
L 261.542975 170.389263 
L 264.309917 173.087572 
L 267.07686 171.522889 
L 269.843802 179.348963 
L 272.610744 178.0703 
L 275.377686 181.821131 
L 278.144628 180.628823 
L 280.91157 184.90694 
L 283.678512 183.861303 
L 289.212397 180.421013 
L 291.979339 179.215322 
L 294.746281 177.308712 
L 300.280165 174.649348 
L 303.047107 173.256632 
L 305.81405 172.583443 
L 311.347934 169.633588 
L 316.881818 166.497763 
L 319.64876 165.772542 
L 325.182645 162.417437 
L 327.949587 160.658155 
L 333.483471 159.157948 
L 339.017355 155.42685 
L 341.784298 153.482548 
L 344.55124 153.95537 
L 347.318182 151.980978 
L 350.085124 151.270781 
L 352.852066 149.226467 
L 355.619008 148.541589 
L 358.38595 146.425853 
L 361.152893 145.770522 
L 363.919835 143.579784 
L 366.686777 142.95632 
L 369.453719 140.704968 
L 372.220661 140.113821 
L 374.987603 137.797206 
L 380.521488 136.736646 
L 383.28843 134.357688 
L 388.822314 133.5163 
L 391.589256 133.202644 
L 397.12314 128.249356 
L 402.657025 127.848058 
L 405.423967 125.305261 
L 408.190909 125.210257 
L 410.957851 122.629739 
L 416.491736 122.772216 
L 419.258678 120.147386 
L 422.02562 120.382693 
L 427.559504 114.962557 
L 430.326446 115.327713 
L 433.093388 112.555158 
L 435.860331 113.105992 
L 438.627273 110.289337 
L 441.394215 110.997285 
L 444.161157 108.154172 
L 446.928099 109.047711 
L 449.695041 110.063607 
L 455.228926 104.327269 
L 457.995868 105.608431 
L 460.76281 102.737052 
L 463.529752 104.215701 
L 466.296694 101.32197 
L 469.063636 103.025653 
L 471.830579 100.127072 
L 474.597521 102.086059 
L 477.364463 94.056984 
L 480.131405 96.166 
L 485.665289 90.053131 
L 491.199174 95.24461 
L 493.966116 86.280594 
L 496.733058 89.177084 
L 499.5 86.041384 
L 502.266942 89.226047 
L 505.033884 86.217732 
L 507.800826 89.721251 
L 513.334711 83.570752 
L 516.101653 80.427997 
L 518.868595 84.644527 
L 524.402479 78.290866 
L 527.169421 75.065607 
L 529.936364 79.96038 
L 535.470248 73.518394 
L 538.23719 70.27799 
L 541.004132 75.979097 
L 543.771074 72.640322 
L 546.538017 78.909961 
L 554.838843 69.356204 
L 557.605785 76.412255 
L 560.372727 73.355818 
L 560.372727 73.355818 
" clip-path="url(#p95f3c9df8d)" style="fill: none; stroke: #1f77b4; stroke-width: 1.5; stroke-linecap: square"/>
   </g>
   <g id="line2d_28">
    <path d="M 103.827273 360.91791 
L 106.594215 356.355201 
L 109.361157 357.599053 
L 112.128099 354.879594 
L 114.895041 351.3861 
L 117.661983 347.021321 
L 120.428926 345.951387 
L 123.195868 344.250193 
L 125.96281 342.042402 
L 128.729752 339.151103 
L 131.496694 340.7364 
L 134.263636 336.608078 
L 137.030579 331.67033 
L 139.797521 332.478987 
L 142.564463 330.478719 
L 145.331405 327.914025 
L 148.098347 326.146321 
L 150.865289 323.861882 
L 153.632231 321.793742 
L 156.399174 320.827551 
L 159.166116 318.60052 
L 161.933058 316.753187 
L 164.7 314.432298 
L 167.466942 312.591489 
L 170.233884 311.31906 
L 173.000826 309.661975 
L 175.767769 306.456318 
L 178.534711 305.071214 
L 181.301653 303.292925 
L 184.068595 301.138808 
L 186.835537 299.893971 
L 189.602479 296.907036 
L 192.369421 296.387457 
L 195.136364 294.074596 
L 197.903306 292.971946 
L 200.670248 289.869664 
L 203.43719 289.857215 
L 206.204132 287.805659 
L 208.971074 283.469691 
L 211.738017 282.601608 
L 214.504959 281.526301 
L 217.271901 280.169275 
L 220.038843 278.556223 
L 222.805785 276.662353 
L 225.572727 274.461947 
L 228.339669 274.544027 
L 231.106612 271.788178 
L 233.873554 271.489243 
L 236.640496 268.112338 
L 239.407438 267.380768 
L 242.17438 266.495076 
L 244.941322 262.097456 
L 247.708264 260.688484 
L 250.475207 262.690669 
L 253.242149 257.256783 
L 256.009091 255.170165 
L 258.776033 252.851741 
L 261.542975 250.254708 
L 264.309917 251.759844 
L 267.07686 248.779991 
L 269.843802 250.223417 
L 272.610744 246.777116 
L 275.377686 248.126714 
L 278.144628 244.218593 
L 280.91157 245.44383 
L 283.678512 240.986113 
L 286.445455 242.667301 
L 291.979339 244.993471 
L 294.746281 246.876157 
L 303.047107 250.851782 
L 305.81405 253.030132 
L 311.347934 256.036715 
L 316.881818 259.232844 
L 319.64876 259.989603 
L 322.415702 261.677399 
L 325.182645 262.429979 
L 330.716529 265.997914 
L 333.483471 267.863581 
L 341.784298 270.161987 
L 344.55124 273.38006 
L 347.318182 274.152454 
L 350.085124 276.235458 
L 355.619008 277.725429 
L 358.38595 279.888182 
L 363.919835 281.267632 
L 366.686777 283.506617 
L 372.220661 284.733594 
L 374.987603 285.273388 
L 380.521488 290.002947 
L 383.28843 290.489728 
L 386.055372 292.966267 
L 388.822314 293.407627 
L 391.589256 295.926991 
L 397.12314 296.59806 
L 399.890083 299.189635 
L 405.423967 299.542155 
L 408.190909 302.20226 
L 410.957851 302.217677 
L 413.724793 304.911496 
L 416.491736 304.876809 
L 419.258678 304.700029 
L 424.792562 310.229697 
L 427.559504 309.884859 
L 430.326446 312.756236 
L 433.093388 312.292257 
L 435.860331 315.166173 
L 438.627273 314.558079 
L 441.394215 317.472503 
L 444.161157 316.693244 
L 446.928099 319.628446 
L 449.695041 318.720736 
L 452.461983 321.656702 
L 455.228926 320.520147 
L 457.995868 323.511596 
L 460.76281 322.110364 
L 463.529752 325.140382 
L 466.296694 323.525446 
L 469.063636 326.5782 
L 471.830579 324.720344 
L 474.597521 332.792053 
L 477.364463 330.790432 
L 480.131405 333.965858 
L 485.665289 329.231986 
L 491.199174 335.461761 
L 493.966116 332.560007 
L 499.5 338.806032 
L 502.266942 342.105457 
L 505.033884 338.629684 
L 510.567769 345.109698 
L 513.334711 341.276664 
L 518.868595 347.719311 
L 521.635537 343.302653 
L 529.936364 353.165994 
L 532.703306 348.031566 
L 535.470248 351.329022 
L 538.23719 345.685318 
L 541.004132 348.868319 
L 543.771074 361.525986 
L 546.538017 355.474151 
L 552.071901 362.226532 
L 554.838843 355.491211 
L 557.605785 369.36 
L 560.372727 362.189128 
L 560.372727 362.189128 
" clip-path="url(#p95f3c9df8d)" style="fill: none; stroke: #ff7f0e; stroke-width: 1.5; stroke-linecap: square"/>
   </g>
   <g id="patch_3">
    <path d="M 81 384.48 
L 81 51.84 
" style="fill: none; stroke: #000000; stroke-width: 0.8; stroke-linejoin: miter; stroke-linecap: square"/>
   </g>
   <g id="patch_4">
    <path d="M 583.2 384.48 
L 583.2 51.84 
" style="fill: none; stroke: #000000; stroke-width: 0.8; stroke-linejoin: miter; stroke-linecap: square"/>
   </g>
   <g id="patch_5">
    <path d="M 81 384.48 
L 583.2 384.48 
" style="fill: none; stroke: #000000; stroke-width: 0.8; stroke-linejoin: miter; stroke-linecap: square"/>
   </g>
   <g id="patch_6">
    <path d="M 81 51.84 
L 583.2 51.84 
" style="fill: none; stroke: #000000; stroke-width: 0.8; stroke-linejoin: miter; stroke-linecap: square"/>
   </g>
   <g id="text_16">
    <!-- Thermistor Tolerance Range: (Range-Nominal)/Nominal -->
    <g transform="translate(138.97875 45.84) scale(0.14 -0.14)">
     <defs>
      <path id="DejaVuSans-68" d="M 3513 2113 
L 3513 0 
L 2938 0 
L 2938 2094 
Q 2938 2591 2744 2837 
Q 2550 3084 2163 3084 
Q 1697 3084 1428 2787 
Q 1159 2491 1159 1978 
L 1159 0 
L 581 0 
L 581 4863 
L 1159 4863 
L 1159 2956 
Q 1366 3272 1645 3428 
Q 1925 3584 2291 3584 
Q 2894 3584 3203 3211 
Q 3513 2838 3513 2113 
z
" transform="scale(0.015625)"/>
      <path id="DejaVuSans-69" d="M 603 3500 
L 1178 3500 
L 1178 0 
L 603 0 
L 603 3500 
z
M 603 4863 
L 1178 4863 
L 1178 4134 
L 603 4134 
L 603 4863 
z
" transform="scale(0.015625)"/>
      <path id="DejaVuSans-73" d="M 2834 3397 
L 2834 2853 
Q 2591 2978 2328 3040 
Q 2066 3103 1784 3103 
Q 1356 3103 1142 2972 
Q 928 2841 928 2578 
Q 928 2378 1081 2264 
Q 1234 2150 1697 2047 
L 1894 2003 
Q 2506 1872 2764 1633 
Q 3022 1394 3022 966 
Q 3022 478 2636 193 
Q 2250 -91 1575 -91 
Q 1294 -91 989 -36 
Q 684 19 347 128 
L 347 722 
Q 666 556 975 473 
Q 1284 391 1588 391 
Q 1994 391 2212 530 
Q 2431 669 2431 922 
Q 2431 1156 2273 1281 
Q 2116 1406 1581 1522 
L 1381 1569 
Q 847 1681 609 1914 
Q 372 2147 372 2553 
Q 372 3047 722 3315 
Q 1072 3584 1716 3584 
Q 2034 3584 2315 3537 
Q 2597 3491 2834 3397 
z
" transform="scale(0.015625)"/>
      <path id="DejaVuSans-3a" d="M 750 794 
L 1409 794 
L 1409 0 
L 750 0 
L 750 794 
z
M 750 3309 
L 1409 3309 
L 1409 2516 
L 750 2516 
L 750 3309 
z
" transform="scale(0.015625)"/>
      <path id="DejaVuSans-2d" d="M 313 2009 
L 1997 2009 
L 1997 1497 
L 313 1497 
L 313 2009 
z
" transform="scale(0.015625)"/>
      <path id="DejaVuSans-4e" d="M 628 4666 
L 1478 4666 
L 3547 763 
L 3547 4666 
L 4159 4666 
L 4159 0 
L 3309 0 
L 1241 3903 
L 1241 0 
L 628 0 
L 628 4666 
z
" transform="scale(0.015625)"/>
      <path id="DejaVuSans-2f" d="M 1625 4666 
L 2156 4666 
L 531 -594 
L 0 -594 
L 1625 4666 
z
" transform="scale(0.015625)"/>
     </defs>
     <use xlink:href="#DejaVuSans-54"/>
     <use xlink:href="#DejaVuSans-68" transform="translate(61.083984 0)"/>
     <use xlink:href="#DejaVuSans-65" transform="translate(124.462891 0)"/>
     <use xlink:href="#DejaVuSans-72" transform="translate(185.986328 0)"/>
     <use xlink:href="#DejaVuSans-6d" transform="translate(225.349609 0)"/>
     <use xlink:href="#DejaVuSans-69" transform="translate(322.761719 0)"/>
     <use xlink:href="#DejaVuSans-73" transform="translate(350.544922 0)"/>
     <use xlink:href="#DejaVuSans-74" transform="translate(402.644531 0)"/>
     <use xlink:href="#DejaVuSans-6f" transform="translate(441.853516 0)"/>
     <use xlink:href="#DejaVuSans-72" transform="translate(503.035156 0)"/>
     <use xlink:href="#DejaVuSans-20" transform="translate(544.148438 0)"/>
     <use xlink:href="#DejaVuSans-54" transform="translate(575.935547 0)"/>
     <use xlink:href="#DejaVuSans-6f" transform="translate(620.019531 0)"/>
     <use xlink:href="#DejaVuSans-6c" transform="translate(681.201172 0)"/>
     <use xlink:href="#DejaVuSans-65" transform="translate(708.984375 0)"/>
     <use xlink:href="#DejaVuSans-72" transform="translate(770.507812 0)"/>
     <use xlink:href="#DejaVuSans-61" transform="translate(811.621094 0)"/>
     <use xlink:href="#DejaVuSans-6e" transform="translate(872.900391 0)"/>
     <use xlink:href="#DejaVuSans-63" transform="translate(936.279297 0)"/>
     <use xlink:href="#DejaVuSans-65" transform="translate(991.259766 0)"/>
     <use xlink:href="#DejaVuSans-20" transform="translate(1052.783203 0)"/>
     <use xlink:href="#DejaVuSans-52" transform="translate(1084.570312 0)"/>
     <use xlink:href="#DejaVuSans-61" transform="translate(1151.802734 0)"/>
     <use xlink:href="#DejaVuSans-6e" transform="translate(1213.082031 0)"/>
     <use xlink:href="#DejaVuSans-67" transform="translate(1276.460938 0)"/>
     <use xlink:href="#DejaVuSans-65" transform="translate(1339.9375 0)"/>
     <use xlink:href="#DejaVuSans-3a" transform="translate(1401.460938 0)"/>
     <use xlink:href="#DejaVuSans-20" transform="translate(1435.152344 0)"/>
     <use xlink:href="#DejaVuSans-28" transform="translate(1466.939453 0)"/>
     <use xlink:href="#DejaVuSans-52" transform="translate(1505.953125 0)"/>
     <use xlink:href="#DejaVuSans-61" transform="translate(1573.185547 0)"/>
     <use xlink:href="#DejaVuSans-6e" transform="translate(1634.464844 0)"/>
     <use xlink:href="#DejaVuSans-67" transform="translate(1697.84375 0)"/>
     <use xlink:href="#DejaVuSans-65" transform="translate(1761.320312 0)"/>
     <use xlink:href="#DejaVuSans-2d" transform="translate(1822.84375 0)"/>
     <use xlink:href="#DejaVuSans-4e" transform="translate(1858.927734 0)"/>
     <use xlink:href="#DejaVuSans-6f" transform="translate(1933.732422 0)"/>
     <use xlink:href="#DejaVuSans-6d" transform="translate(1994.914062 0)"/>
     <use xlink:href="#DejaVuSans-69" transform="translate(2092.326172 0)"/>
     <use xlink:href="#DejaVuSans-6e" transform="translate(2120.109375 0)"/>
     <use xlink:href="#DejaVuSans-61" transform="translate(2183.488281 0)"/>
     <use xlink:href="#DejaVuSans-6c" transform="translate(2244.767578 0)"/>
     <use xlink:href="#DejaVuSans-29" transform="translate(2272.550781 0)"/>
     <use xlink:href="#DejaVuSans-2f" transform="translate(2311.564453 0)"/>
     <use xlink:href="#DejaVuSans-4e" transform="translate(2345.255859 0)"/>
     <use xlink:href="#DejaVuSans-6f" transform="translate(2420.060547 0)"/>
     <use xlink:href="#DejaVuSans-6d" transform="translate(2481.242188 0)"/>
     <use xlink:href="#DejaVuSans-69" transform="translate(2578.654297 0)"/>
     <use xlink:href="#DejaVuSans-6e" transform="translate(2606.4375 0)"/>
     <use xlink:href="#DejaVuSans-61" transform="translate(2669.816406 0)"/>
     <use xlink:href="#DejaVuSans-6c" transform="translate(2731.095703 0)"/>
    </g>
   </g>
  </g>
 </g>
 <defs>
  <clipPath id="p95f3c9df8d">
   <rect x="81" y="51.84" width="502.2" height="332.64"/>
  </clipPath>
 </defs>
</svg>
